SplineFontDB: 3.0
FontName: SpurceSans-Light
FullName: Spurce Sans Light
FamilyName: Spurce Sans
Weight: Light
Copyright: Copyright 2020 Nicholas Auler, with font name 'Spurce'.\n\nBased on Source Sans, Copyright 2010, 2012, 2014 Adobe Systems Incorporated (http://www.adobe.com/), with Reserved Font Name `Source'.
Version: 0.6
ItalicAngle: 0
UnderlinePosition: -100
UnderlineWidth: 50
Ascent: 750
Descent: 250
InvalidEm: 0
sfntRevision: 0x0000999a
LayerCount: 2
Layer: 0 1 "Back" 1
Layer: 1 1 "Fore" 0
XUID: [1021 316 771282308 4323]
StyleMap: 0x0040
FSType: 0
OS2Version: 3
OS2_WeightWidthSlopeOnly: 0
OS2_UseTypoMetrics: 0
CreationTime: 1441032311
ModificationTime: 1588186448
PfmFamily: 33
TTFWeight: 300
TTFWidth: 5
LineGap: 0
VLineGap: 0
Panose: 2 11 4 3 3 4 3 2 2 4
OS2TypoAscent: 750
OS2TypoAOffset: 0
OS2TypoDescent: -250
OS2TypoDOffset: 0
OS2TypoLinegap: 0
OS2WinAscent: 984
OS2WinAOffset: 0
OS2WinDescent: 273
OS2WinDOffset: 0
HheadAscent: 984
HheadAOffset: 0
HheadDescent: -273
HheadDOffset: 0
OS2SubXSize: 650
OS2SubYSize: 600
OS2SubXOff: 0
OS2SubYOff: 75
OS2SupXSize: 650
OS2SupYSize: 600
OS2SupXOff: 0
OS2SupYOff: 350
OS2StrikeYSize: 50
OS2StrikeYPos: 288
OS2CapHeight: 660
OS2XHeight: 480
OS2Vendor: 'ADBO'
OS2CodePages: 2000019f.00000000
OS2UnicodeRanges: 600002f7.02000001.00000000.00000000
Lookup: 1 0 0 "'aalt' Access All Alternates lookup 0" { "'aalt' Access All Alternates lookup 0 subtable"  } ['aalt' ('DFLT' <'dflt' > 'cyrl' <'SRB ' 'dflt' > 'grek' <'dflt' > 'latn' <'AZE ' 'CRT ' 'NSM ' 'SKS ' 'TRK ' 'dflt' > ) ]
Lookup: 3 0 0 "'aalt' Access All Alternates lookup 1" { "'aalt' Access All Alternates lookup 1 subtable"  } ['aalt' ('DFLT' <'dflt' > 'cyrl' <'SRB ' 'dflt' > 'grek' <'dflt' > 'latn' <'AZE ' 'CRT ' 'NSM ' 'SKS ' 'TRK ' 'dflt' > ) ]
Lookup: 1 0 0 "'locl' Localized Forms in Latin lookup 2" { "'locl' Localized Forms in Latin lookup 2 subtable"  } ['locl' ('latn' <'AZE ' 'CRT ' 'TRK ' > ) ]

StartChar: .notdef
Encoding: 1114112 -1 0
Width: 632
Flags: W
LayerCount: 2
Fore
SplineSet
94 0 m 1,0,-1
 94 660 l 1,1,-1
 538 660 l 1,2,-1
 538 0 l 1,3,-1
 94 0 l 1,0,-1
158 39 m 1,4,-1
 470 39 l 1,5,-1
 377 203 l 1,6,-1
 318 308 l 1,7,-1
 314 308 l 1,8,-1
 253 203 l 1,9,-1
 158 39 l 1,4,-1
314 372 m 1,10,-1
 318 372 l 1,11,-1
 371 464 l 1,12,-1
 457 619 l 1,13,-1
 173 619 l 1,14,-1
 260 464 l 1,15,-1
 314 372 l 1,10,-1
139 84 m 1,16,-1
 286 340 l 1,17,-1
 139 600 l 1,18,-1
 139 84 l 1,16,-1
491 84 m 1,19,-1
 491 600 l 1,20,-1
 346 340 l 1,21,-1
 491 84 l 1,19,-1
EndSplineSet
Validated: 1
EndChar

StartChar: A
Encoding: 65 65 2
Width: 526
GlyphClass: 2
Flags: W
AnchorPoint: "Anchor-8" 459 0 basechar 0
AnchorPoint: "Anchor-4" 263 -22 basechar 0
AnchorPoint: "Anchor-1" 263 681 basechar 0
LayerCount: 2
Fore
SplineSet
188 388 m 2,0,-1
 146 265 l 1,1,-1
 380 265 l 1,2,-1
 338 388 l 2,3,4
 318 447 318 447 300 501 c 128,-1,5
 282 555 282 555 265 616 c 1,6,-1
 261 616 l 1,7,8
 244 555 244 555 226 501 c 128,-1,9
 208 447 208 447 188 388 c 2,0,-1
8 0 m 1,10,-1
 240 659 l 1,11,-1
 286 659 l 1,12,-1
 518 0 l 1,13,-1
 470 0 l 1,14,-1
 393 226 l 1,15,-1
 132 226 l 1,16,-1
 54 0 l 1,17,-1
 8 0 l 1,10,-1
EndSplineSet
Validated: 1
Substitution2: "'sups' Superscript lookup 27 subtable" A.sups
Substitution2: "'c2sc' Capitals to Small Capitals lookup 17 subtable" A.sc
AlternateSubs2: "'aalt' Access All Alternates lookup 1 subtable" A.sc A.sups
EndChar

StartChar: B
Encoding: 66 66 3
Width: 578
GlyphClass: 2
Flags: W
AnchorPoint: "Anchor-4" 295 -22 basechar 0
AnchorPoint: "Anchor-1" 279 681 basechar 0
LayerCount: 2
Fore
SplineSet
97 0 m 1,0,-1
 97 659 l 1,1,-1
 275 659 l 2,2,3
 375 659 375 659 434 620.5 c 128,-1,4
 493 582 493 582 493 499 c 0,5,6
 493 447 493 447 467 408.5 c 128,-1,7
 441 370 441 370 391 355 c 1,8,-1
 391 351 l 1,9,10
 455 340 455 340 494 300.5 c 128,-1,11
 533 261 533 261 533 192 c 0,12,13
 533 144 533 144 515.5 108 c 128,-1,14
 498 72 498 72 466 48 c 128,-1,15
 434 24 434 24 389 12 c 128,-1,16
 344 0 344 0 288 0 c 2,17,-1
 97 0 l 1,0,-1
143 369 m 1,18,-1
 257 369 l 2,19,20
 358 369 358 369 402.5 402.5 c 128,-1,21
 447 436 447 436 447 494 c 0,22,23
 447 564 447 564 400 592.5 c 128,-1,24
 353 621 353 621 262 621 c 2,25,-1
 143 621 l 1,26,-1
 143 369 l 1,18,-1
143 38 m 1,27,-1
 276 38 l 2,28,29
 375 38 375 38 431.5 75 c 128,-1,30
 488 112 488 112 488 191 c 0,31,32
 488 263 488 263 433 297 c 128,-1,33
 378 331 378 331 276 331 c 2,34,-1
 143 331 l 1,35,-1
 143 38 l 1,27,-1
EndSplineSet
Validated: 1
Substitution2: "'sups' Superscript lookup 27 subtable" B.sups
Substitution2: "'c2sc' Capitals to Small Capitals lookup 17 subtable" B.sc
AlternateSubs2: "'aalt' Access All Alternates lookup 1 subtable" B.sc B.sups
EndChar

StartChar: C
Encoding: 67 67 4
Width: 564
GlyphClass: 2
Flags: W
AnchorPoint: "Anchor-4" 339 -22 basechar 0
AnchorPoint: "Anchor-3" 339 0 basechar 0
AnchorPoint: "Anchor-1" 321 681 basechar 0
LayerCount: 2
Fore
SplineSet
331 -12 m 0,0,1
 270 -12 270 -12 219 12 c 128,-1,2
 168 36 168 36 131.5 80.5 c 128,-1,3
 95 125 95 125 75 188.5 c 128,-1,4
 55 252 55 252 55 331 c 0,5,6
 55 409 55 409 75.5 472 c 128,-1,7
 96 535 96 535 133 579.5 c 128,-1,8
 170 624 170 624 221.5 647.5 c 128,-1,9
 273 671 273 671 336 671 c 0,10,11
 394 671 394 671 438 647 c 128,-1,12
 482 623 482 623 508 592 c 1,13,-1
 481 561 l 1,14,15
 454 592 454 592 418 610.5 c 128,-1,16
 382 629 382 629 337 629 c 0,17,18
 283 629 283 629 239.5 608 c 128,-1,19
 196 587 196 587 165.5 548.5 c 128,-1,20
 135 510 135 510 119 455 c 128,-1,21
 103 400 103 400 103 331 c 256,22,23
 103 262 103 262 119 206.5 c 128,-1,24
 135 151 135 151 165 112 c 128,-1,25
 195 73 195 73 237.5 51.5 c 128,-1,26
 280 30 280 30 333 30 c 0,27,28
 384 30 384 30 424 50.5 c 128,-1,29
 464 71 464 71 500 111 c 1,30,-1
 527 82 l 1,31,32
 489 38 489 38 442 13 c 128,-1,33
 395 -12 395 -12 331 -12 c 0,0,1
EndSplineSet
Validated: 1
Substitution2: "'sups' Superscript lookup 27 subtable" C.sups
Substitution2: "'c2sc' Capitals to Small Capitals lookup 17 subtable" C.sc
AlternateSubs2: "'aalt' Access All Alternates lookup 1 subtable" C.sc C.sups
EndChar

StartChar: D
Encoding: 68 68 5
Width: 604
GlyphClass: 2
Flags: W
AnchorPoint: "Anchor-4" 300 -22 basechar 0
AnchorPoint: "Anchor-1" 302 681 basechar 0
LayerCount: 2
Fore
SplineSet
97 0 m 1,0,-1
 97 659 l 1,1,-1
 250 659 l 2,2,3
 326 659 326 659 382.5 636 c 128,-1,4
 439 613 439 613 476 570 c 128,-1,5
 513 527 513 527 531 467 c 128,-1,6
 549 407 549 407 549 332 c 256,7,8
 549 257 549 257 531 195.5 c 128,-1,9
 513 134 513 134 476 90.5 c 128,-1,10
 439 47 439 47 383 23.5 c 128,-1,11
 327 0 327 0 251 0 c 2,12,-1
 97 0 l 1,0,-1
143 39 m 1,13,-1
 245 39 l 2,14,15
 312 39 312 39 360.5 60.5 c 128,-1,16
 409 82 409 82 440 121 c 128,-1,17
 471 160 471 160 486 213.5 c 128,-1,18
 501 267 501 267 501 332 c 0,19,20
 501 396 501 396 486 449 c 128,-1,21
 471 502 471 502 440 540 c 128,-1,22
 409 578 409 578 360.5 599 c 128,-1,23
 312 620 312 620 245 620 c 2,24,-1
 143 620 l 1,25,-1
 143 39 l 1,13,-1
EndSplineSet
Validated: 1
Substitution2: "'sups' Superscript lookup 27 subtable" D.sups
Substitution2: "'c2sc' Capitals to Small Capitals lookup 17 subtable" D.sc
AlternateSubs2: "'aalt' Access All Alternates lookup 1 subtable" D.sc D.sups
EndChar

StartChar: E
Encoding: 69 69 6
Width: 515
GlyphClass: 2
Flags: W
AnchorPoint: "Anchor-8" 385 0 basechar 0
AnchorPoint: "Anchor-4" 299 -22 basechar 0
AnchorPoint: "Anchor-1" 283 681 basechar 0
LayerCount: 2
Fore
SplineSet
97 0 m 1,0,-1
 97 659 l 1,1,-1
 458 659 l 1,2,-1
 458 619 l 1,3,-1
 143 619 l 1,4,-1
 143 370 l 1,5,-1
 407 370 l 1,6,-1
 407 330 l 1,7,-1
 143 330 l 1,8,-1
 143 40 l 1,9,-1
 468 40 l 1,10,-1
 468 0 l 1,11,-1
 97 0 l 1,0,-1
EndSplineSet
Validated: 1
Substitution2: "'sups' Superscript lookup 27 subtable" E.sups
Substitution2: "'c2sc' Capitals to Small Capitals lookup 17 subtable" E.sc
AlternateSubs2: "'aalt' Access All Alternates lookup 1 subtable" E.sc E.sups
EndChar

StartChar: F
Encoding: 70 70 7
Width: 477
GlyphClass: 2
Flags: W
AnchorPoint: "Anchor-4" 121 -22 basechar 0
AnchorPoint: "Anchor-1" 285 681 basechar 0
LayerCount: 2
Fore
SplineSet
97 0 m 1,0,-1
 97 659 l 1,1,-1
 456 659 l 1,2,-1
 456 619 l 1,3,-1
 143 619 l 1,4,-1
 143 357 l 1,5,-1
 408 357 l 1,6,-1
 408 317 l 1,7,-1
 143 317 l 1,8,-1
 143 0 l 1,9,-1
 97 0 l 1,0,-1
EndSplineSet
Validated: 1
Substitution2: "'sups' Superscript lookup 27 subtable" F.sups
Substitution2: "'c2sc' Capitals to Small Capitals lookup 17 subtable" F.sc
AlternateSubs2: "'aalt' Access All Alternates lookup 1 subtable" F.sc F.sups
EndChar

StartChar: G
Encoding: 71 71 8
Width: 605
GlyphClass: 2
Flags: W
AnchorPoint: "Anchor-4" 339 -22 basechar 0
AnchorPoint: "Anchor-1" 345 681 basechar 0
LayerCount: 2
Fore
SplineSet
338 -12 m 0,0,1
 274 -12 274 -12 222 12 c 128,-1,2
 170 36 170 36 133 80.5 c 128,-1,3
 96 125 96 125 75.5 188.5 c 128,-1,4
 55 252 55 252 55 331 c 0,5,6
 55 409 55 409 76 472 c 128,-1,7
 97 535 97 535 135 579.5 c 128,-1,8
 173 624 173 624 227 647.5 c 128,-1,9
 281 671 281 671 346 671 c 0,10,11
 379 671 379 671 406.5 664 c 128,-1,12
 434 657 434 657 456 645.5 c 128,-1,13
 478 634 478 634 495.5 620 c 128,-1,14
 513 606 513 606 526 592 c 1,15,-1
 499 561 l 1,16,17
 473 589 473 589 437 609 c 128,-1,18
 401 629 401 629 347 629 c 0,19,20
 290 629 290 629 245 608 c 128,-1,21
 200 587 200 587 168.5 548.5 c 128,-1,22
 137 510 137 510 120 455 c 128,-1,23
 103 400 103 400 103 331 c 256,24,25
 103 262 103 262 119 206.5 c 128,-1,26
 135 151 135 151 165.5 112 c 128,-1,27
 196 73 196 73 240.5 51.5 c 128,-1,28
 285 30 285 30 341 30 c 0,29,30
 386 30 386 30 425.5 43 c 128,-1,31
 465 56 465 56 489 80 c 1,32,-1
 489 285 l 1,33,-1
 331 285 l 1,34,-1
 331 324 l 1,35,-1
 533 324 l 1,36,-1
 533 63 l 1,37,38
 502 30 502 30 452.5 9 c 128,-1,39
 403 -12 403 -12 338 -12 c 0,0,1
EndSplineSet
Validated: 1
Substitution2: "'sups' Superscript lookup 27 subtable" G.sups
Substitution2: "'c2sc' Capitals to Small Capitals lookup 17 subtable" G.sc
AlternateSubs2: "'aalt' Access All Alternates lookup 1 subtable" G.sc G.sups
EndChar

StartChar: H
Encoding: 72 72 9
Width: 639
GlyphClass: 2
Flags: W
AnchorPoint: "Anchor-4" 318 -22 basechar 0
AnchorPoint: "Anchor-1" 318 681 basechar 0
LayerCount: 2
Fore
SplineSet
97 0 m 1,0,-1
 97 659 l 1,1,-1
 143 659 l 1,2,-1
 143 370 l 1,3,-1
 496 370 l 1,4,-1
 496 659 l 1,5,-1
 542 659 l 1,6,-1
 542 0 l 1,7,-1
 496 0 l 1,8,-1
 496 330 l 1,9,-1
 143 330 l 1,10,-1
 143 0 l 1,11,-1
 97 0 l 1,0,-1
EndSplineSet
Validated: 1
Substitution2: "'sups' Superscript lookup 27 subtable" H.sups
Substitution2: "'c2sc' Capitals to Small Capitals lookup 17 subtable" H.sc
AlternateSubs2: "'aalt' Access All Alternates lookup 1 subtable" H.sc H.sups
EndChar

StartChar: I
Encoding: 73 73 10
Width: 312
GlyphClass: 2
Flags: W
LayerCount: 2
Fore
SplineSet
43 0 m 1,0,-1
 43 40 l 1,1,-1
 133 40 l 1,2,-1
 133 619 l 1,3,-1
 43 619 l 1,4,-1
 43 659 l 1,5,-1
 268 659 l 1,6,-1
 268 619 l 1,7,-1
 179 619 l 1,8,-1
 179 40 l 1,9,-1
 268 40 l 1,10,-1
 268 0 l 1,11,-1
 43 0 l 1,0,-1
EndSplineSet
Validated: 1
Substitution2: "'ss04' Style Set 4 lookup 43 subtable" I.a
Substitution2: "'sups' Superscript lookup 27 subtable" I.sups
Substitution2: "'c2sc' Capitals to Small Capitals lookup 17 subtable" I.sc
AlternateSubs2: "'aalt' Access All Alternates lookup 1 subtable" I.sc I.sups I.a
EndChar

StartChar: J
Encoding: 74 74 11
Width: 462
GlyphClass: 2
Flags: W
AnchorPoint: "Anchor-4" 244 -22 basechar 0
AnchorPoint: "Anchor-1" 341 681 basechar 0
LayerCount: 2
Fore
SplineSet
203 -12 m 0,0,1
 148 -12 148 -12 107 13 c 128,-1,2
 66 38 66 38 41 85 c 1,3,-1
 76 108 l 1,4,5
 100 66 100 66 130.5 48 c 128,-1,6
 161 30 161 30 203 30 c 0,7,8
 263 30 263 30 292 66.5 c 128,-1,9
 321 103 321 103 321 184 c 2,10,-1
 321 659 l 1,11,-1
 367 659 l 1,12,-1
 367 179 l 2,13,14
 367 139 367 139 358 104.5 c 128,-1,15
 349 70 349 70 329.5 44 c 128,-1,16
 310 18 310 18 279 3 c 128,-1,17
 248 -12 248 -12 203 -12 c 0,0,1
EndSplineSet
Validated: 1
Substitution2: "'sups' Superscript lookup 27 subtable" J.sups
Substitution2: "'c2sc' Capitals to Small Capitals lookup 17 subtable" J.sc
AlternateSubs2: "'aalt' Access All Alternates lookup 1 subtable" J.sc J.sups
EndChar

StartChar: K
Encoding: 75 75 12
Width: 558
GlyphClass: 2
Flags: W
AnchorPoint: "Anchor-4" 325 -22 basechar 0
AnchorPoint: "Anchor-1" 306 681 basechar 0
LayerCount: 2
Fore
SplineSet
97 0 m 1,0,-1
 97 659 l 1,1,-1
 143 659 l 1,2,-1
 143 293 l 1,3,-1
 145 293 l 1,4,-1
 464 659 l 1,5,-1
 519 659 l 1,6,-1
 309 415 l 1,7,-1
 548 0 l 1,8,-1
 495 0 l 1,9,-1
 277 380 l 1,10,-1
 143 227 l 1,11,-1
 143 0 l 1,12,-1
 97 0 l 1,0,-1
EndSplineSet
Validated: 1
Substitution2: "'sups' Superscript lookup 27 subtable" K.sups
Substitution2: "'c2sc' Capitals to Small Capitals lookup 17 subtable" K.sc
AlternateSubs2: "'aalt' Access All Alternates lookup 1 subtable" K.sc K.sups
EndChar

StartChar: L
Encoding: 76 76 13
Width: 467
GlyphClass: 2
Flags: W
AnchorPoint: "Anchor-4" 288 -22 basechar 0
AnchorPoint: "Anchor-1" 121 681 basechar 0
LayerCount: 2
Fore
SplineSet
97 0 m 1,0,-1
 97 659 l 1,1,-1
 143 659 l 1,2,-1
 143 40 l 1,3,-1
 447 40 l 1,4,-1
 447 0 l 1,5,-1
 97 0 l 1,0,-1
EndSplineSet
Validated: 1
Substitution2: "'sups' Superscript lookup 27 subtable" L.sups
Substitution2: "'c2sc' Capitals to Small Capitals lookup 17 subtable" L.sc
AlternateSubs2: "'aalt' Access All Alternates lookup 1 subtable" L.sc L.sups
EndChar

StartChar: M
Encoding: 77 77 14
Width: 706
GlyphClass: 2
Flags: W
AnchorPoint: "Anchor-4" 354 -22 basechar 0
AnchorPoint: "Anchor-1" 352 681 basechar 0
LayerCount: 2
Fore
SplineSet
97 0 m 1,0,-1
 97 659 l 1,1,-1
 162 659 l 1,2,-1
 300 272 l 2,3,4
 313 236 313 236 326 199.5 c 128,-1,5
 339 163 339 163 352 126 c 1,6,-1
 356 126 l 1,7,8
 369 163 369 163 381 199.5 c 128,-1,9
 393 236 393 236 406 272 c 2,10,-1
 543 659 l 1,11,-1
 609 659 l 1,12,-1
 609 0 l 1,13,-1
 564 0 l 1,14,-1
 564 433 l 2,15,16
 564 474 564 474 566 521.5 c 128,-1,17
 568 569 568 569 570 611 c 1,18,-1
 566 611 l 1,19,-1
 515 464 l 1,20,-1
 373 72 l 1,21,-1
 333 72 l 1,22,-1
 190 464 l 1,23,-1
 138 611 l 1,24,-1
 134 611 l 1,25,26
 136 569 136 569 138 521.5 c 128,-1,27
 140 474 140 474 140 433 c 2,28,-1
 140 0 l 1,29,-1
 97 0 l 1,0,-1
EndSplineSet
Validated: 1
Substitution2: "'sups' Superscript lookup 27 subtable" M.sups
Substitution2: "'c2sc' Capitals to Small Capitals lookup 17 subtable" M.sc
AlternateSubs2: "'aalt' Access All Alternates lookup 1 subtable" M.sc M.sups
EndChar

StartChar: N
Encoding: 78 78 15
Width: 636
GlyphClass: 2
Flags: W
AnchorPoint: "Anchor-4" 318 -22 basechar 0
AnchorPoint: "Anchor-1" 323 681 basechar 0
LayerCount: 2
Fore
SplineSet
97 0 m 1,0,-1
 97 659 l 1,1,-1
 145 659 l 1,2,-1
 423 194 l 1,3,-1
 497 63 l 1,4,-1
 501 63 l 1,5,6
 499 111 499 111 497 159 c 128,-1,7
 495 207 495 207 495 255 c 2,8,-1
 495 659 l 1,9,-1
 539 659 l 1,10,-1
 539 0 l 1,11,-1
 491 0 l 1,12,-1
 213 465 l 1,13,-1
 139 596 l 1,14,-1
 135 596 l 1,15,16
 137 548 137 548 139 502.5 c 128,-1,17
 141 457 141 457 141 409 c 2,18,-1
 141 0 l 1,19,-1
 97 0 l 1,0,-1
EndSplineSet
Validated: 1
Substitution2: "'sups' Superscript lookup 27 subtable" N.sups
Substitution2: "'c2sc' Capitals to Small Capitals lookup 17 subtable" N.sc
AlternateSubs2: "'aalt' Access All Alternates lookup 1 subtable" N.sc N.sups
EndChar

StartChar: O
Encoding: 79 79 16
Width: 652
GlyphClass: 2
Flags: W
AnchorPoint: "Anchor-8" 326 0 basechar 0
AnchorPoint: "Anchor-6" 459 649 basechar 0
AnchorPoint: "Anchor-4" 326 -22 basechar 0
AnchorPoint: "Anchor-1" 326 681 basechar 0
LayerCount: 2
Fore
SplineSet
326 -12 m 0,0,1
 267 -12 267 -12 217 12.5 c 128,-1,2
 167 37 167 37 131 82 c 128,-1,3
 95 127 95 127 75 190.5 c 128,-1,4
 55 254 55 254 55 332 c 256,5,6
 55 410 55 410 75 472.5 c 128,-1,7
 95 535 95 535 131 579.5 c 128,-1,8
 167 624 167 624 217 647.5 c 128,-1,9
 267 671 267 671 326 671 c 0,10,11
 386 671 386 671 436 647.5 c 128,-1,12
 486 624 486 624 522 579.5 c 128,-1,13
 558 535 558 535 578 472.5 c 128,-1,14
 598 410 598 410 598 332 c 256,15,16
 598 254 598 254 578 190.5 c 128,-1,17
 558 127 558 127 522 82 c 128,-1,18
 486 37 486 37 436 12.5 c 128,-1,19
 386 -12 386 -12 326 -12 c 0,0,1
326 30 m 256,20,21
 376 30 376 30 417 51.5 c 128,-1,22
 458 73 458 73 487.5 112.5 c 128,-1,23
 517 152 517 152 533 207.5 c 128,-1,24
 549 263 549 263 549 332 c 0,25,26
 549 400 549 400 533 455 c 128,-1,27
 517 510 517 510 487.5 548.5 c 128,-1,28
 458 587 458 587 417 608 c 128,-1,29
 376 629 376 629 326 629 c 256,30,31
 276 629 276 629 234.5 608 c 128,-1,32
 193 587 193 587 164 548.5 c 128,-1,33
 135 510 135 510 119 455 c 128,-1,34
 103 400 103 400 103 332 c 0,35,36
 103 263 103 263 119 207.5 c 128,-1,37
 135 152 135 152 164 112.5 c 128,-1,38
 193 73 193 73 234.5 51.5 c 128,-1,39
 276 30 276 30 326 30 c 256,20,21
EndSplineSet
Validated: 1
Substitution2: "'sups' Superscript lookup 27 subtable" O.sups
Substitution2: "'c2sc' Capitals to Small Capitals lookup 17 subtable" O.sc
AlternateSubs2: "'aalt' Access All Alternates lookup 1 subtable" O.sc O.sups
EndChar

StartChar: P
Encoding: 80 80 17
Width: 549
GlyphClass: 2
Flags: W
AnchorPoint: "Anchor-4" 123 -22 basechar 0
AnchorPoint: "Anchor-1" 295 681 basechar 0
LayerCount: 2
Fore
SplineSet
97 0 m 1,0,-1
 97 659 l 1,1,-1
 263 659 l 2,2,3
 319 659 319 659 363.5 649.5 c 128,-1,4
 408 640 408 640 438.5 618 c 128,-1,5
 469 596 469 596 485.5 561 c 128,-1,6
 502 526 502 526 502 475 c 0,7,8
 502 378 502 378 440 330.5 c 128,-1,9
 378 283 378 283 267 283 c 2,10,-1
 143 283 l 1,11,-1
 143 0 l 1,12,-1
 97 0 l 1,0,-1
143 322 m 1,13,-1
 256 322 l 2,14,15
 357 322 357 322 406 358 c 128,-1,16
 455 394 455 394 455 475 c 0,17,18
 455 558 455 558 404.5 589 c 128,-1,19
 354 620 354 620 252 620 c 2,20,-1
 143 620 l 1,21,-1
 143 322 l 1,13,-1
EndSplineSet
Validated: 1
Substitution2: "'sups' Superscript lookup 27 subtable" P.sups
Substitution2: "'c2sc' Capitals to Small Capitals lookup 17 subtable" P.sc
AlternateSubs2: "'aalt' Access All Alternates lookup 1 subtable" P.sc P.sups
EndChar

StartChar: Q
Encoding: 81 81 18
Width: 652
GlyphClass: 2
Flags: W
AnchorPoint: "Anchor-1" 326 681 basechar 0
LayerCount: 2
Fore
SplineSet
326 27 m 256,0,1
 376 27 376 27 417 49 c 128,-1,2
 458 71 458 71 487.5 110.5 c 128,-1,3
 517 150 517 150 533 206.5 c 128,-1,4
 549 263 549 263 549 332 c 0,5,6
 549 400 549 400 533 455 c 128,-1,7
 517 510 517 510 487.5 548.5 c 128,-1,8
 458 587 458 587 417 608 c 128,-1,9
 376 629 376 629 326 629 c 256,10,11
 276 629 276 629 234.5 608 c 128,-1,12
 193 587 193 587 164 548.5 c 128,-1,13
 135 510 135 510 119 455 c 128,-1,14
 103 400 103 400 103 332 c 0,15,16
 103 263 103 263 119 206.5 c 128,-1,17
 135 150 135 150 164 110.5 c 128,-1,18
 193 71 193 71 234.5 49 c 128,-1,19
 276 27 276 27 326 27 c 256,0,1
519 -156 m 0,20,21
 477 -156 477 -156 442.5 -145 c 128,-1,22
 408 -134 408 -134 380.5 -114.5 c 128,-1,23
 353 -95 353 -95 332.5 -68.5 c 128,-1,24
 312 -42 312 -42 300 -11 c 1,25,26
 246 -6 246 -6 201 20.5 c 128,-1,27
 156 47 156 47 123.5 91.5 c 128,-1,28
 91 136 91 136 73 197 c 128,-1,29
 55 258 55 258 55 332 c 0,30,31
 55 410 55 410 75 472.5 c 128,-1,32
 95 535 95 535 131 579.5 c 128,-1,33
 167 624 167 624 217 647.5 c 128,-1,34
 267 671 267 671 326 671 c 0,35,36
 386 671 386 671 436 647.5 c 128,-1,37
 486 624 486 624 522 579.5 c 128,-1,38
 558 535 558 535 578 472.5 c 128,-1,39
 598 410 598 410 598 332 c 0,40,41
 598 258 598 258 580 197 c 128,-1,42
 562 136 562 136 529.5 91.5 c 128,-1,43
 497 47 497 47 451.5 20.5 c 128,-1,44
 406 -6 406 -6 351 -11 c 1,45,46
 374 -61 374 -61 417.5 -87 c 128,-1,47
 461 -113 461 -113 523 -113 c 0,48,49
 546 -113 546 -113 561.5 -110.5 c 128,-1,50
 577 -108 577 -108 590 -105 c 1,51,-1
 600 -144 l 1,52,53
 587 -148 587 -148 565.5 -152 c 128,-1,54
 544 -156 544 -156 519 -156 c 0,20,21
EndSplineSet
Validated: 1
Substitution2: "'sups' Superscript lookup 27 subtable" Q.sups
Substitution2: "'c2sc' Capitals to Small Capitals lookup 17 subtable" Q.sc
AlternateSubs2: "'aalt' Access All Alternates lookup 1 subtable" Q.sc Q.sups
EndChar

StartChar: R
Encoding: 82 82 19
Width: 544
GlyphClass: 2
Flags: W
AnchorPoint: "Anchor-4" 300 -22 basechar 0
AnchorPoint: "Anchor-1" 285 681 basechar 0
LayerCount: 2
Fore
SplineSet
97 0 m 1,0,-1
 97 659 l 1,1,-1
 286 659 l 2,2,3
 335 659 335 659 375 649.5 c 128,-1,4
 415 640 415 640 443 619 c 128,-1,5
 471 598 471 598 486.5 565 c 128,-1,6
 502 532 502 532 502 485 c 0,7,8
 502 406 502 406 456.5 361 c 128,-1,9
 411 316 411 316 333 306 c 1,10,-1
 515 0 l 1,11,-1
 462 0 l 1,12,-1
 283 303 l 1,13,-1
 143 303 l 1,14,-1
 143 0 l 1,15,-1
 97 0 l 1,0,-1
143 341 m 1,16,-1
 274 341 l 2,17,18
 362 341 362 341 408.5 376.5 c 128,-1,19
 455 412 455 412 455 485 c 0,20,21
 455 559 455 559 408 589.5 c 128,-1,22
 361 620 361 620 274 620 c 2,23,-1
 143 620 l 1,24,-1
 143 341 l 1,16,-1
EndSplineSet
Validated: 1
Substitution2: "'sups' Superscript lookup 27 subtable" R.sups
Substitution2: "'c2sc' Capitals to Small Capitals lookup 17 subtable" R.sc
AlternateSubs2: "'aalt' Access All Alternates lookup 1 subtable" R.sc R.sups
EndChar

StartChar: S
Encoding: 83 83 20
Width: 521
GlyphClass: 2
Flags: W
AnchorPoint: "Anchor-4" 269 -22 basechar 0
AnchorPoint: "Anchor-3" 269 0 basechar 0
AnchorPoint: "Anchor-1" 271 681 basechar 0
LayerCount: 2
Fore
SplineSet
269 -12 m 0,0,1
 197 -12 197 -12 141 15.5 c 128,-1,2
 85 43 85 43 46 87 c 1,3,-1
 76 119 l 1,4,5
 112 78 112 78 162 54 c 128,-1,6
 212 30 212 30 269 30 c 0,7,8
 345 30 345 30 389 66.5 c 128,-1,9
 433 103 433 103 433 162 c 0,10,11
 433 193 433 193 423.5 214.5 c 128,-1,12
 414 236 414 236 398 251.5 c 128,-1,13
 382 267 382 267 360.5 278 c 128,-1,14
 339 289 339 289 315 300 c 2,15,-1
 215 345 l 2,16,17
 194 354 194 354 170 367 c 128,-1,18
 146 380 146 380 126.5 399.5 c 128,-1,19
 107 419 107 419 94 445.5 c 128,-1,20
 81 472 81 472 81 509 c 0,21,22
 81 545 81 545 95.5 574.5 c 128,-1,23
 110 604 110 604 135.5 625.5 c 128,-1,24
 161 647 161 647 196.5 659 c 128,-1,25
 232 671 232 671 273 671 c 0,26,27
 333 671 333 671 379.5 647.5 c 128,-1,28
 426 624 426 624 456 592 c 1,29,-1
 430 562 l 1,30,31
 401 592 401 592 362 610.5 c 128,-1,32
 323 629 323 629 273 629 c 0,33,34
 207 629 207 629 167 597 c 128,-1,35
 127 565 127 565 127 511 c 0,36,37
 127 482 127 482 138 462 c 128,-1,38
 149 442 149 442 166 427.5 c 128,-1,39
 183 413 183 413 203 402.5 c 128,-1,40
 223 392 223 392 241 384 c 2,41,-1
 341 340 l 2,42,43
 369 328 369 328 394 313 c 128,-1,44
 419 298 419 298 438 278 c 128,-1,45
 457 258 457 258 468.5 230.5 c 128,-1,46
 480 203 480 203 480 165 c 256,47,48
 480 127 480 127 465 94.5 c 128,-1,49
 450 62 450 62 422.5 38.5 c 128,-1,50
 395 15 395 15 356 1.5 c 128,-1,51
 317 -12 317 -12 269 -12 c 0,0,1
EndSplineSet
Validated: 1
Substitution2: "'sups' Superscript lookup 27 subtable" S.sups
Substitution2: "'c2sc' Capitals to Small Capitals lookup 17 subtable" S.sc
AlternateSubs2: "'aalt' Access All Alternates lookup 1 subtable" S.sc S.sups
EndChar

StartChar: T
Encoding: 84 84 21
Width: 524
GlyphClass: 2
Flags: W
AnchorPoint: "Anchor-4" 262 -22 basechar 0
AnchorPoint: "Anchor-3" 262 0 basechar 0
AnchorPoint: "Anchor-1" 260 681 basechar 0
LayerCount: 2
Fore
SplineSet
239 0 m 1,0,-1
 239 619 l 1,1,-1
 29 619 l 1,2,-1
 29 659 l 1,3,-1
 495 659 l 1,4,-1
 495 619 l 1,5,-1
 285 619 l 1,6,-1
 285 0 l 1,7,-1
 239 0 l 1,0,-1
EndSplineSet
Validated: 1
Substitution2: "'sups' Superscript lookup 27 subtable" T.sups
Substitution2: "'c2sc' Capitals to Small Capitals lookup 17 subtable" T.sc
AlternateSubs2: "'aalt' Access All Alternates lookup 1 subtable" T.sc T.sups
EndChar

StartChar: U
Encoding: 85 85 22
Width: 634
GlyphClass: 2
Flags: W
AnchorPoint: "Anchor-8" 316 0 basechar 0
AnchorPoint: "Anchor-6" 514 669 basechar 0
AnchorPoint: "Anchor-4" 316 -22 basechar 0
AnchorPoint: "Anchor-1" 316 681 basechar 0
LayerCount: 2
Fore
SplineSet
316 -12 m 0,0,1
 274 -12 274 -12 234 0.5 c 128,-1,2
 194 13 194 13 163 43.5 c 128,-1,3
 132 74 132 74 113.5 125 c 128,-1,4
 95 176 95 176 95 253 c 2,5,-1
 95 659 l 1,6,-1
 141 659 l 1,7,-1
 141 258 l 2,8,9
 141 192 141 192 155.5 148.5 c 128,-1,10
 170 105 170 105 194 78.5 c 128,-1,11
 218 52 218 52 249.5 41 c 128,-1,12
 281 30 281 30 316 30 c 0,13,14
 352 30 352 30 384.5 41 c 128,-1,15
 417 52 417 52 441.5 78.5 c 128,-1,16
 466 105 466 105 481 148.5 c 128,-1,17
 496 192 496 192 496 258 c 2,18,-1
 496 659 l 1,19,-1
 539 659 l 1,20,-1
 539 253 l 2,21,22
 539 176 539 176 520 125 c 128,-1,23
 501 74 501 74 470 43.5 c 128,-1,24
 439 13 439 13 399 0.5 c 128,-1,25
 359 -12 359 -12 316 -12 c 0,0,1
EndSplineSet
Validated: 1
Substitution2: "'sups' Superscript lookup 27 subtable" U.sups
Substitution2: "'c2sc' Capitals to Small Capitals lookup 17 subtable" U.sc
AlternateSubs2: "'aalt' Access All Alternates lookup 1 subtable" U.sc U.sups
EndChar

StartChar: V
Encoding: 86 86 23
Width: 491
GlyphClass: 2
Flags: W
AnchorPoint: "Anchor-4" 248 -22 basechar 0
AnchorPoint: "Anchor-1" 245 681 basechar 0
LayerCount: 2
Fore
SplineSet
222 0 m 1,0,-1
 4 659 l 1,1,-1
 53 659 l 1,2,-1
 175 274 l 2,3,4
 194 214 194 214 209.5 163.5 c 128,-1,5
 225 113 225 113 245 53 c 1,6,-1
 249 53 l 1,7,8
 259 83 259 83 267.5 110 c 128,-1,9
 276 137 276 137 284 163.5 c 128,-1,10
 292 190 292 190 300.5 217 c 128,-1,11
 309 244 309 244 318 274 c 2,12,-1
 440 659 l 1,13,-1
 487 659 l 1,14,-1
 271 0 l 1,15,-1
 222 0 l 1,0,-1
EndSplineSet
Validated: 1
Substitution2: "'sups' Superscript lookup 27 subtable" V.sups
Substitution2: "'c2sc' Capitals to Small Capitals lookup 17 subtable" V.sc
AlternateSubs2: "'aalt' Access All Alternates lookup 1 subtable" V.sc V.sups
EndChar

StartChar: W
Encoding: 87 87 24
Width: 770
GlyphClass: 2
Flags: W
AnchorPoint: "Anchor-4" 389 -22 basechar 0
AnchorPoint: "Anchor-1" 385 681 basechar 0
LayerCount: 2
Fore
SplineSet
178 0 m 1,0,-1
 28 659 l 1,1,-1
 76 659 l 1,2,-1
 159 271 l 2,3,4
 170 217 170 217 181.5 163.5 c 128,-1,5
 193 110 193 110 204 56 c 1,6,-1
 208 56 l 1,7,8
 220 110 220 110 232.5 163.5 c 128,-1,9
 245 217 245 217 259 271 c 2,10,-1
 362 659 l 1,11,-1
 409 659 l 1,12,-1
 512 271 l 2,13,14
 526 217 526 217 538.5 163.5 c 128,-1,15
 551 110 551 110 565 56 c 1,16,-1
 569 56 l 1,17,18
 580 110 580 110 590.5 163.5 c 128,-1,19
 601 217 601 217 612 271 c 2,20,-1
 695 659 l 1,21,-1
 740 659 l 1,22,-1
 593 0 l 1,23,-1
 542 0 l 1,24,-1
 422 452 l 2,25,26
 413 491 413 491 404 526.5 c 128,-1,27
 395 562 395 562 387 601 c 1,28,-1
 383 601 l 1,29,30
 375 562 375 562 365 526.5 c 128,-1,31
 355 491 355 491 346 452 c 2,32,-1
 228 0 l 1,33,-1
 178 0 l 1,0,-1
EndSplineSet
Validated: 1
Substitution2: "'sups' Superscript lookup 27 subtable" W.sups
Substitution2: "'c2sc' Capitals to Small Capitals lookup 17 subtable" W.sc
AlternateSubs2: "'aalt' Access All Alternates lookup 1 subtable" W.sc W.sups
EndChar

StartChar: X
Encoding: 88 88 25
Width: 482
GlyphClass: 2
Flags: W
AnchorPoint: "Anchor-4" 239 -22 basechar 0
AnchorPoint: "Anchor-1" 242 681 basechar 0
LayerCount: 2
Fore
SplineSet
17 0 m 1,0,-1
 215 341 l 1,1,-1
 31 659 l 1,2,-1
 81 659 l 1,3,-1
 189 465 l 2,4,5
 203 442 203 442 214.5 422 c 128,-1,6
 226 402 226 402 243 375 c 1,7,-1
 247 375 l 1,8,9
 261 402 261 402 271.5 422 c 128,-1,10
 282 442 282 442 296 465 c 2,11,-1
 404 659 l 1,12,-1
 451 659 l 1,13,-1
 267 339 l 1,14,-1
 465 0 l 1,15,-1
 415 0 l 1,16,-1
 300 202 l 2,17,18
 286 227 286 227 271.5 252 c 128,-1,19
 257 277 257 277 239 307 c 1,20,-1
 235 307 l 1,21,22
 219 277 219 277 206 252 c 128,-1,23
 193 227 193 227 179 202 c 2,24,-1
 64 0 l 1,25,-1
 17 0 l 1,0,-1
EndSplineSet
Validated: 1
Substitution2: "'sups' Superscript lookup 27 subtable" X.sups
Substitution2: "'c2sc' Capitals to Small Capitals lookup 17 subtable" X.sc
AlternateSubs2: "'aalt' Access All Alternates lookup 1 subtable" X.sc X.sups
EndChar

StartChar: Y
Encoding: 89 89 26
Width: 447
GlyphClass: 2
Flags: W
AnchorPoint: "Anchor-4" 225 -22 basechar 0
AnchorPoint: "Anchor-1" 223 681 basechar 0
LayerCount: 2
Fore
SplineSet
200 0 m 1,0,-1
 200 267 l 1,1,-1
 3 659 l 1,2,-1
 52 659 l 1,3,-1
 152 453 l 2,4,5
 169 417 169 417 185.5 382 c 128,-1,6
 202 347 202 347 222 311 c 1,7,-1
 226 311 l 1,8,9
 245 347 245 347 263 382 c 128,-1,10
 281 417 281 417 297 453 c 2,11,-1
 397 659 l 1,12,-1
 444 659 l 1,13,-1
 246 267 l 1,14,-1
 246 0 l 1,15,-1
 200 0 l 1,0,-1
EndSplineSet
Validated: 1
Substitution2: "'sups' Superscript lookup 27 subtable" Y.sups
Substitution2: "'c2sc' Capitals to Small Capitals lookup 17 subtable" Y.sc
AlternateSubs2: "'aalt' Access All Alternates lookup 1 subtable" Y.sc Y.sups
EndChar

StartChar: Z
Encoding: 90 90 27
Width: 538
GlyphClass: 2
Flags: W
AnchorPoint: "Anchor-4" 282 -22 basechar 0
AnchorPoint: "Anchor-1" 279 681 basechar 0
LayerCount: 2
Fore
SplineSet
50 0 m 1,0,-1
 50 27 l 1,1,-1
 429 619 l 1,2,-1
 83 619 l 1,3,-1
 83 659 l 1,4,-1
 487 659 l 1,5,-1
 487 632 l 1,6,-1
 107 40 l 1,7,-1
 490 40 l 1,8,-1
 490 0 l 1,9,-1
 50 0 l 1,0,-1
EndSplineSet
Validated: 1
Substitution2: "'sups' Superscript lookup 27 subtable" Z.sups
Substitution2: "'c2sc' Capitals to Small Capitals lookup 17 subtable" Z.sc
AlternateSubs2: "'aalt' Access All Alternates lookup 1 subtable" Z.sc Z.sups
EndChar

StartChar: a
Encoding: 97 97 28
Width: 544
GlyphClass: 2
Flags: W
LayerCount: 2
Fore
SplineSet
257 27 m 0,0,1
 297 27 297 27 333.5 47.5 c 128,-1,2
 370 68 370 68 408 106 c 1,3,-1
 408 391 l 1,4,5
 370 425 370 425 336.5 439 c 128,-1,6
 303 453 303 453 268 453 c 0,7,8
 232 453 232 453 201 436.5 c 128,-1,9
 170 420 170 420 147.5 391.5 c 128,-1,10
 125 363 125 363 112 323.5 c 128,-1,11
 99 284 99 284 99 239 c 0,12,13
 99 191 99 191 109.5 152 c 128,-1,14
 120 113 120 113 140 85.5 c 128,-1,15
 160 58 160 58 189.5 42.5 c 128,-1,16
 219 27 219 27 257 27 c 0,0,1
251 -12 m 0,17,18
 160 -12 160 -12 106 52.5 c 128,-1,19
 52 117 52 117 52 239 c 0,20,21
 52 297 52 297 69.5 344 c 128,-1,22
 87 391 87 391 116 424 c 128,-1,23
 145 457 145 457 184 474.5 c 128,-1,24
 223 492 223 492 266 492 c 128,-1,25
 309 492 309 492 341.5 477 c 128,-1,26
 374 462 374 462 408 434 c 1,27,-1
 410 434 l 1,28,-1
 413 480 l 1,29,-1
 452 480 l 1,30,-1
 452 189 l 1,31,-1
 452 58 l 2,32,33
 452 42 452 42 458 34.5 c 128,-1,34
 464 27 464 27 473 27 c 0,35,36
 476 27 476 27 479.5 27 c 128,-1,37
 483 27 483 27 491 29 c 1,38,-1
 499 -7 l 1,39,40
 492 -9 492 -9 485 -10.5 c 128,-1,41
 478 -12 478 -12 467 -12 c 0,42,43
 409.76824584 -12 409.76824584 -12 409.010175891 62 c 1,44,-1
 407 62 l 1,45,46
 378 33 378 33 338.5 10.5 c 128,-1,47
 299 -12 299 -12 251 -12 c 0,17,18
EndSplineSet
Validated: 1
Substitution2: "'ss02' Style Set 2 lookup 39 subtable" a.a
Substitution2: "'sups' Superscript lookup 26 subtable" a.sups
Substitution2: "'smcp' Lowercase to Small Capitals lookup 20 subtable" A.sc
AlternateSubs2: "'aalt' Access All Alternates lookup 1 subtable" A.sc a.sups a.a
EndChar

StartChar: b
Encoding: 98 98 29
Width: 542
GlyphClass: 2
Flags: W
AnchorPoint: "Anchor-4" 278 -22 basechar 0
AnchorPoint: "Anchor-0" 117 730 basechar 0
LayerCount: 2
Fore
SplineSet
280 -12 m 0,0,1
 245 -12 245 -12 207.5 4.5 c 128,-1,2
 170 21 170 21 136 49 c 1,3,-1
 134 49 l 1,4,-1
 129 0 l 1,5,-1
 92 0 l 1,6,-1
 92 719 l 1,7,-1
 136 719 l 1,8,-1
 136 511 l 1,9,-1
 134 417 l 1,10,11
 171 448 171 448 213 470 c 128,-1,12
 255 492 255 492 300 492 c 0,13,14
 396 492 396 492 444 425.5 c 128,-1,15
 492 359 492 359 492 247 c 0,16,17
 492 186 492 186 475 138 c 128,-1,18
 458 90 458 90 428.5 56.5 c 128,-1,19
 399 23 399 23 360.5 5.5 c 128,-1,20
 322 -12 322 -12 280 -12 c 0,0,1
278 27 m 0,21,22
 314 27 314 27 345 43 c 128,-1,23
 376 59 376 59 398 88 c 128,-1,24
 420 117 420 117 432.5 157.5 c 128,-1,25
 445 198 445 198 445 247 c 0,26,27
 445 291 445 291 436.5 329 c 128,-1,28
 428 367 428 367 410 394.5 c 128,-1,29
 392 422 392 422 363 437.5 c 128,-1,30
 334 453 334 453 293 453 c 0,31,32
 257 453 257 453 218 432.5 c 128,-1,33
 179 412 179 412 136 374 c 1,34,-1
 136 89 l 1,35,36
 176 55 176 55 213 41 c 128,-1,37
 250 27 250 27 278 27 c 0,21,22
EndSplineSet
Validated: 1
Substitution2: "'sups' Superscript lookup 26 subtable" b.sups
Substitution2: "'smcp' Lowercase to Small Capitals lookup 20 subtable" B.sc
AlternateSubs2: "'aalt' Access All Alternates lookup 1 subtable" B.sc b.sups
EndChar

StartChar: c
Encoding: 99 99 30
Width: 449
GlyphClass: 2
Flags: W
AnchorPoint: "Anchor-4" 267 -22 basechar 0
AnchorPoint: "Anchor-3" 267 0 basechar 0
AnchorPoint: "Anchor-0" 269 504 basechar 0
LayerCount: 2
Fore
SplineSet
270 -12 m 0,0,1
 223 -12 223 -12 183.5 5 c 128,-1,2
 144 22 144 22 114.5 54 c 128,-1,3
 85 86 85 86 68.5 132.5 c 128,-1,4
 52 179 52 179 52 239 c 256,5,6
 52 299 52 299 70 346.5 c 128,-1,7
 88 394 88 394 118 426 c 128,-1,8
 148 458 148 458 187.5 475 c 128,-1,9
 227 492 227 492 271 492 c 0,10,11
 321 492 321 492 354 474 c 128,-1,12
 387 456 387 456 412 433 c 1,13,-1
 386 402 l 1,14,15
 363 424 363 424 335 438.5 c 128,-1,16
 307 453 307 453 272 453 c 0,17,18
 235 453 235 453 203.5 437.5 c 128,-1,19
 172 422 172 422 148.5 393.5 c 128,-1,20
 125 365 125 365 111.5 326 c 128,-1,21
 98 287 98 287 98 239 c 0,22,23
 98 192 98 192 110.5 153 c 128,-1,24
 123 114 123 114 145.5 86 c 128,-1,25
 168 58 168 58 200.5 42.5 c 128,-1,26
 233 27 233 27 272 27 c 0,27,28
 310 27 310 27 342.5 43 c 128,-1,29
 375 59 375 59 400 82 c 1,30,-1
 423 51 l 1,31,32
 392 24 392 24 354 6 c 128,-1,33
 316 -12 316 -12 270 -12 c 0,0,1
EndSplineSet
Validated: 1
Substitution2: "'sups' Superscript lookup 26 subtable" c.sups
Substitution2: "'smcp' Lowercase to Small Capitals lookup 20 subtable" C.sc
AlternateSubs2: "'aalt' Access All Alternates lookup 1 subtable" C.sc c.sups
EndChar

StartChar: d
Encoding: 100 100 31
Width: 544
GlyphClass: 2
Flags: W
AnchorPoint: "Anchor-4" 294 -22 basechar 0
AnchorPoint: "Anchor-0" 383 730 basechar 0
LayerCount: 2
Fore
SplineSet
257 27 m 0,0,1
 297 27 297 27 333.5 47.5 c 128,-1,2
 370 68 370 68 408 106 c 1,3,-1
 408 391 l 1,4,5
 370 425 370 425 336.5 439 c 128,-1,6
 303 453 303 453 268 453 c 0,7,8
 232 453 232 453 201 436.5 c 128,-1,9
 170 420 170 420 147.5 391.5 c 128,-1,10
 125 363 125 363 112 323.5 c 128,-1,11
 99 284 99 284 99 239 c 0,12,13
 99 191 99 191 109.5 152 c 128,-1,14
 120 113 120 113 140 85.5 c 128,-1,15
 160 58 160 58 189.5 42.5 c 128,-1,16
 219 27 219 27 257 27 c 0,0,1
251 -12 m 0,17,18
 160 -12 160 -12 106 52.5 c 128,-1,19
 52 117 52 117 52 239 c 0,20,21
 52 297 52 297 69 344 c 128,-1,22
 86 391 86 391 115.5 424 c 128,-1,23
 145 457 145 457 183.5 474.5 c 128,-1,24
 222 492 222 492 265 492 c 0,25,26
 309 492 309 492 341.5 476.5 c 128,-1,27
 374 461 374 461 410 433 c 1,28,-1
 408 521 l 1,29,-1
 408 719 l 1,30,-1
 452 719 l 1,31,-1
 452 189 l 1,32,-1
 452 58 l 2,33,34
 452 42 452 42 458 34.5 c 128,-1,35
 464 27 464 27 473 27 c 0,36,37
 476 27 476 27 479.5 27 c 128,-1,38
 483 27 483 27 491 29 c 1,39,-1
 499 -7 l 1,40,41
 492 -9 492 -9 485 -10.5 c 128,-1,42
 478 -12 478 -12 467 -12 c 0,43,44
 409.76824584 -12 409.76824584 -12 409.010175891 62 c 1,45,-1
 407 62 l 1,46,47
 378 33 378 33 338.5 10.5 c 128,-1,48
 299 -12 299 -12 251 -12 c 0,17,18
EndSplineSet
Validated: 1
Substitution2: "'sups' Superscript lookup 26 subtable" d.sups
Substitution2: "'smcp' Lowercase to Small Capitals lookup 20 subtable" D.sc
AlternateSubs2: "'aalt' Access All Alternates lookup 1 subtable" D.sc d.sups
EndChar

StartChar: e
Encoding: 101 101 32
Width: 483
GlyphClass: 2
Flags: W
AnchorPoint: "Anchor-7" 384 0 basechar 0
AnchorPoint: "Anchor-4" 258 -22 basechar 0
AnchorPoint: "Anchor-0" 261 504 basechar 0
LayerCount: 2
Fore
SplineSet
274 -12 m 0,0,1
 228 -12 228 -12 187.5 5 c 128,-1,2
 147 22 147 22 117 54.5 c 128,-1,3
 87 87 87 87 69.5 133.5 c 128,-1,4
 52 180 52 180 52 239 c 256,5,6
 52 298 52 298 69.5 345 c 128,-1,7
 87 392 87 392 116.5 424.5 c 128,-1,8
 146 457 146 457 183.5 474.5 c 128,-1,9
 221 492 221 492 261 492 c 0,10,11
 347 492 347 492 396 434 c 128,-1,12
 445 376 445 376 445 270 c 0,13,14
 445 261 445 261 445 252 c 128,-1,15
 445 243 445 243 443 234 c 1,16,-1
 97 234 l 1,17,18
 98 189 98 189 111 150.5 c 128,-1,19
 124 112 124 112 147.5 84.5 c 128,-1,20
 171 57 171 57 204 41.5 c 128,-1,21
 237 26 237 26 278 26 c 0,22,23
 317 26 317 26 348.5 37.5 c 128,-1,24
 380 49 380 49 407 69 c 1,25,-1
 425 35 l 1,26,27
 396 18 396 18 361.5 3 c 128,-1,28
 327 -12 327 -12 274 -12 c 0,0,1
97 270 m 1,29,-1
 403 270 l 1,30,31
 403 363 403 363 365 408.5 c 128,-1,32
 327 454 327 454 262 454 c 0,33,34
 231 454 231 454 203 441.5 c 128,-1,35
 175 429 175 429 152.5 405 c 128,-1,36
 130 381 130 381 115.5 347 c 128,-1,37
 101 313 101 313 97 270 c 1,29,-1
EndSplineSet
Validated: 1
Substitution2: "'sups' Superscript lookup 26 subtable" e.sups
Substitution2: "'smcp' Lowercase to Small Capitals lookup 20 subtable" E.sc
AlternateSubs2: "'aalt' Access All Alternates lookup 1 subtable" E.sc e.sups
EndChar

StartChar: f
Encoding: 102 102 33
Width: 263
GlyphClass: 2
Flags: W
AnchorPoint: "Anchor-4" 122 -22 basechar 0
AnchorPoint: "Anchor-0" 214 740 basechar 0
LayerCount: 2
Fore
SplineSet
99 0 m 1,0,-1
 99 442 l 1,1,-1
 33 442 l 1,2,-1
 33 476 l 1,3,-1
 99 480 l 1,4,-1
 99 587 l 2,5,6
 99 659 99 659 130 695 c 128,-1,7
 161 731 161 731 218 731 c 0,8,9
 253 731 253 731 288 715 c 1,10,-1
 276 679 l 1,11,12
 261 687 261 687 246.5 690 c 128,-1,13
 232 693 232 693 218 693 c 0,14,15
 180 693 180 693 161.5 665 c 128,-1,16
 143 637 143 637 143 584 c 2,17,-1
 143 480 l 1,18,-1
 254 480 l 1,19,-1
 254 442 l 1,20,-1
 143 442 l 1,21,-1
 143 0 l 1,22,-1
 99 0 l 1,0,-1
EndSplineSet
Validated: 1
Substitution2: "'sups' Superscript lookup 26 subtable" f.sups
Substitution2: "'smcp' Lowercase to Small Capitals lookup 20 subtable" F.sc
AlternateSubs2: "'aalt' Access All Alternates lookup 1 subtable" F.sc f.sups
EndChar

StartChar: g
Encoding: 103 103 34
Width: 545
GlyphClass: 2
Flags: W
LayerCount: 2
Fore
SplineSet
258 -229 m 4,0,1
 210 -229 210 -229 167.5 -215 c 132,-1,2
 125 -201 125 -201 90 -177 c 5,3,-1
 110 -142 l 5,4,5
 146 -168 146 -168 183 -180 c 132,-1,6
 220 -192 220 -192 258 -192 c 4,7,8
 333 -192 333 -192 370.5 -150 c 132,-1,9
 408 -108 408 -108 408 -35 c 6,10,-1
 409 74 l 5,11,12
 380 45 380 45 339.5 22.5 c 132,-1,13
 299 0 299 0 251 0 c 4,14,15
 160 0 160 0 106.5 63.5 c 132,-1,16
 53 127 53 127 53 246 c 4,17,18
 53 303 53 303 70 348.5 c 132,-1,19
 87 394 87 394 116.5 426 c 132,-1,20
 146 458 146 458 184.5 475 c 132,-1,21
 223 492 223 492 266 492 c 260,22,23
 309 492 309 492 341.5 477 c 132,-1,24
 374 462 374 462 406 436 c 5,25,-1
 409 436 l 5,26,-1
 413 480 l 5,27,-1
 452 480 l 5,28,-1
 452 -42 l 6,29,30
 452 -128 452 -128 402 -178.5 c 132,-1,31
 352 -229 352 -229 258 -229 c 4,0,1
258 39 m 4,32,33
 298 39 298 39 334 59.5 c 132,-1,34
 370 80 370 80 408 118 c 5,35,-1
 408 391 l 5,36,37
 370 425 370 425 336.5 439 c 132,-1,38
 303 453 303 453 268 453 c 4,39,40
 232 453 232 453 201.5 437 c 132,-1,41
 171 421 171 421 148 393.5 c 132,-1,42
 125 366 125 366 112 328 c 132,-1,43
 99 290 99 290 99 246 c 4,44,45
 99 153 99 153 140 96 c 132,-1,46
 181 39 181 39 258 39 c 4,32,33
EndSplineSet
Validated: 1
Substitution2: "'ss03' Style Set 3 lookup 41 subtable" g.a
Substitution2: "'sups' Superscript lookup 26 subtable" g.sups
Substitution2: "'smcp' Lowercase to Small Capitals lookup 20 subtable" G.sc
AlternateSubs2: "'aalt' Access All Alternates lookup 1 subtable" G.sc g.sups g.a
EndChar

StartChar: h
Encoding: 104 104 35
Width: 528
GlyphClass: 2
Flags: W
AnchorPoint: "Anchor-4" 282 -22 basechar 0
AnchorPoint: "Anchor-0" 115 730 basechar 0
LayerCount: 2
Fore
SplineSet
92 0 m 1,0,-1
 92 719 l 1,1,-1
 136 719 l 1,2,-1
 136 405 l 1,3,4
 174 443 174 443 213 467.5 c 128,-1,5
 252 492 252 492 302 492 c 0,6,7
 377 492 377 492 412 447 c 128,-1,8
 447 402 447 402 447 308 c 2,9,-1
 447 189 l 1,10,-1
 447 58 l 2,11,12
 447 42 447 42 453 34.5 c 128,-1,13
 459 27 459 27 468 27 c 0,14,15
 471 27 471 27 474.5 27 c 128,-1,16
 478 27 478 27 486 29 c 1,17,-1
 494 -7 l 1,18,19
 487 -9 487 -9 480 -10.5 c 128,-1,20
 473 -12 473 -12 462 -12 c 0,21,22
 403 -12 403 -12 403 64 c 2,23,-1
 403 90 l 1,24,-1
 403 189 l 1,25,-1
 403 302 l 2,26,27
 403 379 403 379 377.5 415.5 c 128,-1,28
 352 452 352 452 293 452 c 0,29,30
 250 452 250 452 215 429.5 c 128,-1,31
 180 407 180 407 136 362 c 1,32,-1
 136 0 l 1,33,-1
 92 0 l 1,0,-1
EndSplineSet
Substitution2: "'sups' Superscript lookup 26 subtable" h.sups
Substitution2: "'smcp' Lowercase to Small Capitals lookup 20 subtable" H.sc
AlternateSubs2: "'aalt' Access All Alternates lookup 1 subtable" H.sc h.sups
EndChar

StartChar: i
Encoding: 105 105 36
Width: 229
GlyphClass: 2
Flags: W
AnchorPoint: "Anchor-7" 136 0 basechar 0
AnchorPoint: "Anchor-4" 113 -22 basechar 0
AnchorPoint: "Anchor-0" 113 678 basechar 0
LayerCount: 2
Fore
SplineSet
92 0 m 1,0,-1
 92 480 l 1,1,-1
 136 480 l 1,2,-1
 136 0 l 1,3,-1
 92 0 l 1,0,-1
115 596 m 256,4,5
 98 596 98 596 86.5 607 c 128,-1,6
 75 618 75 618 75 635 c 0,7,8
 75 654 75 654 86.5 664.5 c 128,-1,9
 98 675 98 675 115 675 c 256,10,11
 132 675 132 675 143.5 664.5 c 128,-1,12
 155 654 155 654 155 635 c 0,13,14
 155 618 155 618 143.5 607 c 128,-1,15
 132 596 132 596 115 596 c 256,4,5
EndSplineSet
Validated: 1
Substitution2: "'sups' Superscript lookup 26 subtable" i.sups
Substitution2: "'smcp' Lowercase to Small Capitals lookup 20 subtable" I.sc
Substitution2: "'locl' Localized Forms in Latin lookup 2 subtable" i.trk
AlternateSubs2: "'aalt' Access All Alternates lookup 1 subtable" i.trk I.sc i.sups
EndChar

StartChar: j
Encoding: 106 106 37
Width: 229
GlyphClass: 2
Flags: W
AnchorPoint: "Anchor-4" 48 -229 basechar 0
AnchorPoint: "Anchor-0" 116 678 basechar 0
LayerCount: 2
Fore
SplineSet
29 -229 m 0,0,1
 12 -229 12 -229 -5 -225.5 c 128,-1,2
 -22 -222 -22 -222 -33 -217 c 1,3,-1
 -22 -181 l 1,4,5
 -13 -184 -13 -184 0.5 -187.5 c 128,-1,6
 14 -191 14 -191 28 -191 c 0,7,8
 68 -191 68 -191 80 -161.5 c 128,-1,9
 92 -132 92 -132 92 -86 c 2,10,-1
 92 480 l 1,11,-1
 137 480 l 1,12,-1
 137 -89 l 2,13,14
 137 -160 137 -160 111 -194.5 c 128,-1,15
 85 -229 85 -229 29 -229 c 0,0,1
115 596 m 0,16,17
 99 596 99 596 87 607 c 128,-1,18
 75 618 75 618 75 635 c 0,19,20
 75 654 75 654 87 664.5 c 128,-1,21
 99 675 99 675 115 675 c 0,22,23
 132 675 132 675 144 664.5 c 128,-1,24
 156 654 156 654 156 635 c 0,25,26
 156 618 156 618 144 607 c 128,-1,27
 132 596 132 596 115 596 c 0,16,17
EndSplineSet
Validated: 1
Substitution2: "'sups' Superscript lookup 26 subtable" j.sups
Substitution2: "'smcp' Lowercase to Small Capitals lookup 20 subtable" J.sc
AlternateSubs2: "'aalt' Access All Alternates lookup 1 subtable" J.sc j.sups
EndChar

StartChar: k
Encoding: 107 107 38
Width: 464
GlyphClass: 2
Flags: W
AnchorPoint: "Anchor-4" 257 -22 basechar 0
AnchorPoint: "Anchor-0" 117 730 basechar 0
LayerCount: 2
Fore
SplineSet
92 0 m 1,0,-1
 92 719 l 1,1,-1
 136 719 l 1,2,-1
 136 189 l 1,3,-1
 138 189 l 1,4,-1
 375 480 l 1,5,-1
 426 480 l 1,6,-1
 270 290 l 1,7,-1
 452 0 l 1,8,-1
 403 0 l 1,9,-1
 244 257 l 1,10,-1
 136 131 l 1,11,-1
 136 0 l 1,12,-1
 92 0 l 1,0,-1
EndSplineSet
Validated: 1
Substitution2: "'sups' Superscript lookup 26 subtable" k.sups
Substitution2: "'smcp' Lowercase to Small Capitals lookup 20 subtable" K.sc
AlternateSubs2: "'aalt' Access All Alternates lookup 1 subtable" K.sc k.sups
EndChar

StartChar: l
Encoding: 108 108 39
Width: 237
GlyphClass: 2
Flags: W
AnchorPoint: "Anchor-4" 113 -22 basechar 0
AnchorPoint: "Anchor-0" 113 730 basechar 0
LayerCount: 2
Fore
SplineSet
151 -12 m 4,0,1
 92 -12 92 -12 92 64 c 6,2,-1
 92 719 l 5,3,-1
 136 719 l 5,4,-1
 136 58 l 6,5,6
 136 42 136 42 142 34.5 c 132,-1,7
 148 27 148 27 157 27 c 4,8,9
 160 27 160 27 163.5 27 c 132,-1,10
 167 27 167 27 175 29 c 5,11,-1
 183 -7 l 5,12,13
 176 -9 176 -9 169 -10.5 c 132,-1,14
 162 -12 162 -12 151 -12 c 4,0,1
EndSplineSet
Validated: 1
Substitution2: "'ss01' Style Set 1 lookup 36 subtable" l.a
Substitution2: "'sups' Superscript lookup 26 subtable" l.sups
Substitution2: "'smcp' Lowercase to Small Capitals lookup 20 subtable" L.sc
AlternateSubs2: "'aalt' Access All Alternates lookup 1 subtable" L.sc l.sups l.a
EndChar

StartChar: m
Encoding: 109 109 40
Width: 812
GlyphClass: 2
Flags: W
AnchorPoint: "Anchor-4" 417 -22 basechar 0
AnchorPoint: "Anchor-0" 408 504 basechar 0
LayerCount: 2
Fore
SplineSet
92 0 m 1,0,-1
 92 480 l 1,1,-1
 130 480 l 1,2,-1
 134 406 l 1,3,-1
 137 406 l 1,4,5
 169 443 169 443 208.5 467.5 c 128,-1,6
 248 492 248 492 288 492 c 0,7,8
 346 492 346 492 377 465.5 c 128,-1,9
 408 439 408 439 421 394 c 1,10,11
 463 439 463 439 502.5 465.5 c 128,-1,12
 542 492 542 492 584 492 c 0,13,14
 728 492 728 492 728 308 c 2,15,-1
 728 189 l 1,16,-1
 728 58 l 2,17,18
 728 42 728 42 734 34.5 c 128,-1,19
 740 27 740 27 749 27 c 0,20,21
 752 27 752 27 755.5 27 c 128,-1,22
 759 27 759 27 767 29 c 1,23,-1
 775 -7 l 1,24,25
 768 -9 768 -9 761 -10.5 c 128,-1,26
 754 -12 754 -12 743 -12 c 0,27,28
 684 -12 684 -12 684 64 c 2,29,-1
 684 78.2222222222 l 1,30,-1
 683 80 l 1,31,-1
 683 302 l 2,32,33
 683 379 683 379 657 415.5 c 128,-1,34
 631 452 631 452 576 452 c 0,35,36
 511 452 511 452 432 362 c 1,37,-1
 432 0 l 1,38,-1
 388 0 l 1,39,-1
 388 302 l 2,40,41
 388 379 388 379 362 415.5 c 128,-1,42
 336 452 336 452 280 452 c 0,43,44
 215 452 215 452 136 362 c 1,45,-1
 136 0 l 1,46,-1
 92 0 l 1,0,-1
EndSplineSet
Validated: 1
Substitution2: "'sups' Superscript lookup 26 subtable" m.sups
Substitution2: "'smcp' Lowercase to Small Capitals lookup 20 subtable" M.sc
AlternateSubs2: "'aalt' Access All Alternates lookup 1 subtable" M.sc m.sups
EndChar

StartChar: n
Encoding: 110 110 41
Width: 532
GlyphClass: 2
Flags: W
AnchorPoint: "Anchor-4" 271 -22 basechar 0
AnchorPoint: "Anchor-0" 282 504 basechar 0
LayerCount: 2
Fore
SplineSet
92 0 m 1,0,-1
 92 480 l 1,1,-1
 130 480 l 1,2,-1
 134 406 l 1,3,-1
 137 406 l 1,4,5
 174 443 174 443 213 467.5 c 128,-1,6
 252 492 252 492 302 492 c 0,7,8
 377 492 377 492 412 447 c 128,-1,9
 447 402 447 402 447 308 c 2,10,-1
 447 189 l 1,11,-1
 447 58 l 2,12,13
 447 42 447 42 453 34.5 c 128,-1,14
 459 27 459 27 468 27 c 0,15,16
 471 27 471 27 474.5 27 c 128,-1,17
 478 27 478 27 486 29 c 1,18,-1
 494 -7 l 1,19,20
 487 -9 487 -9 480 -10.5 c 128,-1,21
 473 -12 473 -12 462 -12 c 0,22,23
 403 -12 403 -12 403 64 c 2,24,-1
 403 70 l 1,25,-1
 403 189 l 1,26,-1
 403 302 l 2,27,28
 403 379 403 379 377.5 415.5 c 128,-1,29
 352 452 352 452 293 452 c 0,30,31
 250 452 250 452 215 429.5 c 128,-1,32
 180 407 180 407 136 362 c 1,33,-1
 136 0 l 1,34,-1
 92 0 l 1,0,-1
EndSplineSet
Validated: 1
Substitution2: "'sups' Superscript lookup 26 subtable" n.sups
Substitution2: "'smcp' Lowercase to Small Capitals lookup 20 subtable" N.sc
AlternateSubs2: "'aalt' Access All Alternates lookup 1 subtable" N.sc n.sups
EndChar

StartChar: o
Encoding: 111 111 42
Width: 535
GlyphClass: 2
Flags: W
AnchorPoint: "Anchor-7" 314 0 basechar 0
AnchorPoint: "Anchor-6" 360 480 basechar 0
AnchorPoint: "Anchor-4" 267 -22 basechar 0
AnchorPoint: "Anchor-0" 267 504 basechar 0
LayerCount: 2
Fore
SplineSet
267 -12 m 256,0,1
 224 -12 224 -12 185 5 c 128,-1,2
 146 22 146 22 116.5 54 c 128,-1,3
 87 86 87 86 69.5 132.5 c 128,-1,4
 52 179 52 179 52 239 c 256,5,6
 52 299 52 299 69.5 346.5 c 128,-1,7
 87 394 87 394 116.5 426 c 128,-1,8
 146 458 146 458 185 475 c 128,-1,9
 224 492 224 492 267 492 c 256,10,11
 310 492 310 492 349.5 475 c 128,-1,12
 389 458 389 458 418.5 426 c 128,-1,13
 448 394 448 394 465.5 346.5 c 128,-1,14
 483 299 483 299 483 239 c 256,15,16
 483 179 483 179 465.5 132.5 c 128,-1,17
 448 86 448 86 418.5 54 c 128,-1,18
 389 22 389 22 349.5 5 c 128,-1,19
 310 -12 310 -12 267 -12 c 256,0,1
267 27 m 256,20,21
 303 27 303 27 334.5 42.5 c 128,-1,22
 366 58 366 58 388.5 86 c 128,-1,23
 411 114 411 114 424 153 c 128,-1,24
 437 192 437 192 437 239 c 0,25,26
 437 287 437 287 424 326 c 128,-1,27
 411 365 411 365 388.5 393.5 c 128,-1,28
 366 422 366 422 334.5 437.5 c 128,-1,29
 303 453 303 453 267 453 c 256,30,31
 231 453 231 453 200 437.5 c 128,-1,32
 169 422 169 422 146.5 393.5 c 128,-1,33
 124 365 124 365 111 326 c 128,-1,34
 98 287 98 287 98 239 c 0,35,36
 98 192 98 192 111 153 c 128,-1,37
 124 114 124 114 146.5 86 c 128,-1,38
 169 58 169 58 200 42.5 c 128,-1,39
 231 27 231 27 267 27 c 256,20,21
EndSplineSet
Validated: 1
Substitution2: "'sups' Superscript lookup 26 subtable" o.sups
Substitution2: "'smcp' Lowercase to Small Capitals lookup 20 subtable" O.sc
AlternateSubs2: "'aalt' Access All Alternates lookup 1 subtable" O.sc o.sups
EndChar

StartChar: p
Encoding: 112 112 43
Width: 544
GlyphClass: 2
Flags: W
AnchorPoint: "Anchor-4" 109 -218 basechar 0
AnchorPoint: "Anchor-0" 282 504 basechar 0
LayerCount: 2
Fore
SplineSet
92 -217 m 1,0,-1
 92 480 l 1,1,-1
 130 480 l 1,2,-1
 134 420 l 1,3,-1
 137 420 l 1,4,5
 172 448 172 448 213.5 470 c 128,-1,6
 255 492 255 492 300 492 c 0,7,8
 396 492 396 492 444 425.5 c 128,-1,9
 492 359 492 359 492 247 c 0,10,11
 492 186 492 186 475 138 c 128,-1,12
 458 90 458 90 428.5 56.5 c 128,-1,13
 399 23 399 23 360.5 5.5 c 128,-1,14
 322 -12 322 -12 280 -12 c 0,15,16
 246 -12 246 -12 210 3.5 c 128,-1,17
 174 19 174 19 136 47 c 1,18,-1
 136 -217 l 1,19,-1
 92 -217 l 1,0,-1
278 27 m 0,20,21
 314 27 314 27 345 43 c 128,-1,22
 376 59 376 59 398 88 c 128,-1,23
 420 117 420 117 432.5 157.5 c 128,-1,24
 445 198 445 198 445 247 c 0,25,26
 445 291 445 291 436.5 329 c 128,-1,27
 428 367 428 367 410 394.5 c 128,-1,28
 392 422 392 422 363 437.5 c 128,-1,29
 334 453 334 453 293 453 c 0,30,31
 257 453 257 453 218.5 432.5 c 128,-1,32
 180 412 180 412 136 374 c 1,33,-1
 136 89 l 1,34,35
 178 55 178 55 214 41 c 128,-1,36
 250 27 250 27 278 27 c 0,20,21
EndSplineSet
Validated: 1
Substitution2: "'sups' Superscript lookup 26 subtable" p.sups
Substitution2: "'smcp' Lowercase to Small Capitals lookup 20 subtable" P.sc
AlternateSubs2: "'aalt' Access All Alternates lookup 1 subtable" P.sc p.sups
EndChar

StartChar: q
Encoding: 113 113 44
Width: 544
GlyphClass: 2
Flags: W
AnchorPoint: "Anchor-4" 423 -218 basechar 0
AnchorPoint: "Anchor-0" 269 504 basechar 0
LayerCount: 2
Fore
SplineSet
257 27 m 0,0,1
 297 27 297 27 333.5 47.5 c 128,-1,2
 370 68 370 68 408 106 c 1,3,-1
 408 391 l 1,4,5
 370 425 370 425 336.5 439 c 128,-1,6
 303 453 303 453 268 453 c 0,7,8
 232 453 232 453 201 436.5 c 128,-1,9
 170 420 170 420 147.5 391.5 c 128,-1,10
 125 363 125 363 112 323.5 c 128,-1,11
 99 284 99 284 99 239 c 0,12,13
 99 191 99 191 109.5 152 c 128,-1,14
 120 113 120 113 140 85.5 c 128,-1,15
 160 58 160 58 189.5 42.5 c 128,-1,16
 219 27 219 27 257 27 c 0,0,1
467 -220 m 0,17,18
 408 -220 408 -220 408 -144 c 2,19,-1
 408 -137 l 1,20,-1
 408 -32 l 1,21,-1
 408 -19 l 1,22,-1
 408.273684211 -19 l 1,23,-1
 410 63 l 1,24,25
 378 32 378 32 338.5 10 c 128,-1,26
 299 -12 299 -12 251 -12 c 0,27,28
 160 -12 160 -12 106 52.5 c 128,-1,29
 52 117 52 117 52 239 c 0,30,31
 52 297 52 297 69 344 c 128,-1,32
 86 391 86 391 115.5 424 c 128,-1,33
 145 457 145 457 183.5 474.5 c 128,-1,34
 222 492 222 492 265 492 c 0,35,36
 309 492 309 492 341.5 477 c 128,-1,37
 374 462 374 462 408 436 c 1,38,-1
 410 436 l 1,39,-1
 415 480 l 1,40,-1
 452 480 l 1,41,-1
 452 -19 l 1,42,-1
 452 -150 l 2,43,44
 452 -166 452 -166 458 -173.5 c 128,-1,45
 464 -181 464 -181 473 -181 c 0,46,47
 476 -181 476 -181 479.5 -181 c 128,-1,48
 483 -181 483 -181 491 -179 c 1,49,-1
 499 -215 l 1,50,51
 492 -217 492 -217 485 -218.5 c 128,-1,52
 478 -220 478 -220 467 -220 c 0,17,18
EndSplineSet
Validated: 1
Substitution2: "'sups' Superscript lookup 26 subtable" q.sups
Substitution2: "'smcp' Lowercase to Small Capitals lookup 20 subtable" Q.sc
AlternateSubs2: "'aalt' Access All Alternates lookup 1 subtable" Q.sc q.sups
EndChar

StartChar: r
Encoding: 114 114 45
Width: 317
GlyphClass: 2
Flags: W
AnchorPoint: "Anchor-4" 113 -22 basechar 0
AnchorPoint: "Anchor-0" 199 504 basechar 0
LayerCount: 2
Fore
SplineSet
92 0 m 1,0,-1
 92 480 l 1,1,-1
 130 480 l 1,2,-1
 134 391 l 1,3,-1
 137 391 l 1,4,5
 161 436 161 436 195.5 464 c 128,-1,6
 230 492 230 492 273 492 c 0,7,8
 287 492 287 492 298 490 c 128,-1,9
 309 488 309 488 321 482 c 1,10,-1
 311 442 l 1,11,12
 299 447 299 447 290 448.5 c 128,-1,13
 281 450 281 450 267 450 c 0,14,15
 235 450 235 450 199.5 422.5 c 128,-1,16
 164 395 164 395 136 327 c 1,17,-1
 136 0 l 1,18,-1
 92 0 l 1,0,-1
EndSplineSet
Validated: 1
Substitution2: "'sups' Superscript lookup 26 subtable" r.sups
Substitution2: "'smcp' Lowercase to Small Capitals lookup 20 subtable" R.sc
AlternateSubs2: "'aalt' Access All Alternates lookup 1 subtable" R.sc r.sups
EndChar

StartChar: s
Encoding: 115 115 46
Width: 405
GlyphClass: 2
Flags: W
AnchorPoint: "Anchor-4" 218 -22 basechar 0
AnchorPoint: "Anchor-3" 218 0 basechar 0
AnchorPoint: "Anchor-0" 210 504 basechar 0
LayerCount: 2
Fore
SplineSet
208 -12 m 0,0,1
 154 -12 154 -12 109 7.5 c 128,-1,2
 64 27 64 27 32 54 c 1,3,-1
 58 87 l 1,4,5
 89 61 89 61 124 43.5 c 128,-1,6
 159 26 159 26 211 26 c 0,7,8
 268 26 268 26 296.5 54.5 c 128,-1,9
 325 83 325 83 325 121 c 0,10,11
 325 143 325 143 314.5 160 c 128,-1,12
 304 177 304 177 287 189 c 128,-1,13
 270 201 270 201 249.5 210 c 128,-1,14
 229 219 229 219 208 227 c 0,15,16
 181 237 181 237 153.5 248 c 128,-1,17
 126 259 126 259 104 274.5 c 128,-1,18
 82 290 82 290 68.5 311.5 c 128,-1,19
 55 333 55 333 55 364 c 0,20,21
 55 390 55 390 65 413.5 c 128,-1,22
 75 437 75 437 95 454.5 c 128,-1,23
 115 472 115 472 143.5 482 c 128,-1,24
 172 492 172 492 210 492 c 256,25,26
 248 492 248 492 284.5 478 c 128,-1,27
 321 464 321 464 347 442 c 1,28,-1
 323 411 l 1,29,30
 299 429 299 429 272 441.5 c 128,-1,31
 245 454 245 454 208 454 c 0,32,33
 180 454 180 454 160 446.5 c 128,-1,34
 140 439 140 439 126.5 427 c 128,-1,35
 113 415 113 415 106.5 399 c 128,-1,36
 100 383 100 383 100 367 c 0,37,38
 100 346 100 346 109.5 331.5 c 128,-1,39
 119 317 119 317 135 306 c 128,-1,40
 151 295 151 295 171.5 286.5 c 128,-1,41
 192 278 192 278 213 270 c 0,42,43
 241 259 241 259 269 248 c 128,-1,44
 297 237 297 237 319.5 221 c 128,-1,45
 342 205 342 205 356 181.5 c 128,-1,46
 370 158 370 158 370 123 c 0,47,48
 370 96 370 96 359.5 71.5 c 128,-1,49
 349 47 349 47 328 28.5 c 128,-1,50
 307 10 307 10 277 -1 c 128,-1,51
 247 -12 247 -12 208 -12 c 0,0,1
EndSplineSet
Validated: 1
Substitution2: "'sups' Superscript lookup 26 subtable" s.sups
Substitution2: "'smcp' Lowercase to Small Capitals lookup 20 subtable" S.sc
AlternateSubs2: "'aalt' Access All Alternates lookup 1 subtable" S.sc s.sups
EndChar

StartChar: t
Encoding: 116 116 47
Width: 312
GlyphClass: 2
Flags: W
AnchorPoint: "Anchor-4" 199 -22 basechar 0
AnchorPoint: "Anchor-3" 206 0 basechar 0
AnchorPoint: "Anchor-0" 129 633 basechar 0
LayerCount: 2
Fore
SplineSet
223 -12 m 0,0,1
 188 -12 188 -12 165 -1.5 c 128,-1,2
 142 9 142 9 128 28 c 128,-1,3
 114 47 114 47 108.5 74 c 128,-1,4
 103 101 103 101 103 133 c 2,5,-1
 103 442 l 1,6,-1
 28 442 l 1,7,-1
 28 476 l 1,8,-1
 104 480 l 1,9,-1
 110 619 l 1,10,-1
 148 619 l 1,11,-1
 148 480 l 1,12,-1
 287 480 l 1,13,-1
 287 442 l 1,14,-1
 148 442 l 1,15,-1
 148 129 l 2,16,17
 148 106 148 106 151.5 87.5 c 128,-1,18
 155 69 155 69 164 55.5 c 128,-1,19
 173 42 173 42 188.5 34.5 c 128,-1,20
 204 27 204 27 229 27 c 0,21,22
 243 27 243 27 259.5 31.5 c 128,-1,23
 276 36 276 36 289 42 c 1,24,-1
 301 6 l 1,25,26
 280 -2 280 -2 259 -7 c 128,-1,27
 238 -12 238 -12 223 -12 c 0,0,1
EndSplineSet
Validated: 1
Substitution2: "'sups' Superscript lookup 26 subtable" t.sups
Substitution2: "'smcp' Lowercase to Small Capitals lookup 20 subtable" T.sc
AlternateSubs2: "'aalt' Access All Alternates lookup 1 subtable" T.sc t.sups
EndChar

StartChar: u
Encoding: 117 117 48
Width: 529
GlyphClass: 2
Flags: W
AnchorPoint: "Anchor-7" 412 0 basechar 0
AnchorPoint: "Anchor-6" 400 490 basechar 0
AnchorPoint: "Anchor-4" 283 -22 basechar 0
AnchorPoint: "Anchor-0" 265 504 basechar 0
LayerCount: 2
Fore
SplineSet
230 -12 m 0,0,1
 155 -12 155 -12 120 33 c 128,-1,2
 85 78 85 78 85 172 c 2,3,-1
 85 480 l 1,4,-1
 129 480 l 1,5,-1
 129 178 l 2,6,7
 129 101 129 101 154.5 64.5 c 128,-1,8
 180 28 180 28 238 28 c 0,9,10
 281 28 281 28 316 51.5 c 128,-1,11
 351 75 351 75 393 126 c 1,12,-1
 393 480 l 1,13,-1
 437 480 l 1,14,-1
 437 189 l 1,15,-1
 437 58 l 2,16,17
 437 42 437 42 443 34.5 c 128,-1,18
 449 27 449 27 458 27 c 0,19,20
 461 27 461 27 464.5 27 c 128,-1,21
 468 27 468 27 476 29 c 1,22,-1
 484 -7 l 1,23,24
 477 -9 477 -9 470 -10.5 c 128,-1,25
 463 -12 463 -12 452 -12 c 0,26,27
 395 -12 395 -12 395 64 c 2,28,-1
 395 80 l 1,29,-1
 393 80 l 1,30,31
 358 38 358 38 319 13 c 128,-1,32
 280 -12 280 -12 230 -12 c 0,0,1
EndSplineSet
Validated: 1
Substitution2: "'sups' Superscript lookup 26 subtable" u.sups
Substitution2: "'smcp' Lowercase to Small Capitals lookup 20 subtable" U.sc
AlternateSubs2: "'aalt' Access All Alternates lookup 1 subtable" U.sc u.sups
EndChar

StartChar: v
Encoding: 118 118 49
Width: 434
GlyphClass: 2
Flags: W
AnchorPoint: "Anchor-4" 218 -22 basechar 0
AnchorPoint: "Anchor-0" 218 504 basechar 0
LayerCount: 2
Fore
SplineSet
192 0 m 1,0,-1
 12 480 l 1,1,-1
 60 480 l 1,2,-1
 168 179 l 2,3,4
 179 144 179 144 192 109 c 128,-1,5
 205 74 205 74 216 41 c 1,6,-1
 220 41 l 1,7,8
 232 74 232 74 244.5 109 c 128,-1,9
 257 144 257 144 269 179 c 2,10,-1
 377 480 l 1,11,-1
 422 480 l 1,12,-1
 244 0 l 1,13,-1
 192 0 l 1,0,-1
EndSplineSet
Validated: 1
Substitution2: "'sups' Superscript lookup 26 subtable" v.sups
Substitution2: "'smcp' Lowercase to Small Capitals lookup 20 subtable" V.sc
AlternateSubs2: "'aalt' Access All Alternates lookup 1 subtable" V.sc v.sups
EndChar

StartChar: w
Encoding: 119 119 50
Width: 685
GlyphClass: 2
Flags: W
AnchorPoint: "Anchor-4" 342 -22 basechar 0
AnchorPoint: "Anchor-0" 342 504 basechar 0
LayerCount: 2
Fore
SplineSet
166 0 m 1,0,-1
 24 480 l 1,1,-1
 72 480 l 1,2,-1
 158 169 l 2,3,4
 167 136 167 136 175 104.5 c 128,-1,5
 183 73 183 73 191 41 c 1,6,-1
 195 41 l 1,7,8
 203 73 203 73 212 104.5 c 128,-1,9
 221 136 221 136 230 169 c 2,10,-1
 317 480 l 1,11,-1
 370 480 l 1,12,-1
 457 169 l 2,13,14
 466 136 466 136 475 104.5 c 128,-1,15
 484 73 484 73 493 41 c 1,16,-1
 497 41 l 1,17,18
 505 73 505 73 514 104.5 c 128,-1,19
 523 136 523 136 531 169 c 2,20,-1
 616 480 l 1,21,-1
 661 480 l 1,22,-1
 523 0 l 1,23,-1
 465 0 l 1,24,-1
 381 298 l 2,25,26
 370 333 370 333 362.5 366.5 c 128,-1,27
 355 400 355 400 344 435 c 1,28,-1
 340 435 l 1,29,30
 332 400 332 400 322.5 365.5 c 128,-1,31
 313 331 313 331 302 296 c 2,32,-1
 219 0 l 1,33,-1
 166 0 l 1,0,-1
EndSplineSet
Validated: 1
Substitution2: "'sups' Superscript lookup 26 subtable" w.sups
Substitution2: "'smcp' Lowercase to Small Capitals lookup 20 subtable" W.sc
AlternateSubs2: "'aalt' Access All Alternates lookup 1 subtable" W.sc w.sups
EndChar

StartChar: x
Encoding: 120 120 51
Width: 407
GlyphClass: 2
Flags: W
AnchorPoint: "Anchor-4" 203 -22 basechar 0
AnchorPoint: "Anchor-0" 203 504 basechar 0
LayerCount: 2
Fore
SplineSet
14 0 m 1,0,-1
 177 251 l 1,1,-1
 27 480 l 1,2,-1
 76 480 l 1,3,-1
 154 358 l 2,4,5
 166 338 166 338 178.5 318.5 c 128,-1,6
 191 299 191 299 205 279 c 1,7,-1
 209 279 l 1,8,9
 222 299 222 299 233.5 318.5 c 128,-1,10
 245 338 245 338 258 358 c 2,11,-1
 333 480 l 1,12,-1
 379 480 l 1,13,-1
 230 247 l 1,14,-1
 393 0 l 1,15,-1
 344 0 l 1,16,-1
 259 131 l 2,17,18
 245 154 245 154 231 176 c 128,-1,19
 217 198 217 198 202 219 c 1,20,-1
 198 219 l 1,21,22
 184 198 184 198 170.5 176 c 128,-1,23
 157 154 157 154 143 131 c 2,24,-1
 61 0 l 1,25,-1
 14 0 l 1,0,-1
EndSplineSet
Validated: 1
Substitution2: "'sups' Superscript lookup 26 subtable" x.sups
Substitution2: "'smcp' Lowercase to Small Capitals lookup 20 subtable" X.sc
AlternateSubs2: "'aalt' Access All Alternates lookup 1 subtable" X.sc x.sups
EndChar

StartChar: y
Encoding: 121 121 52
Width: 436
GlyphClass: 2
Flags: W
AnchorPoint: "Anchor-4" 184 -242 basechar 0
AnchorPoint: "Anchor-0" 229 504 basechar 0
LayerCount: 2
Fore
SplineSet
73 -219 m 0,0,1
 46 -219 46 -219 24 -209 c 1,2,-1
 34 -170 l 1,3,4
 42 -173 42 -173 52 -175.5 c 128,-1,5
 62 -178 62 -178 73 -178 c 0,6,7
 118 -178 118 -178 148 -142 c 128,-1,8
 178 -106 178 -106 196 -51 c 2,9,-1
 209 -9 l 1,10,-1
 12 480 l 1,11,-1
 60 480 l 1,12,-1
 176 178 l 2,13,14
 187 148 187 148 200.5 112 c 128,-1,15
 214 76 214 76 228 44 c 1,16,-1
 232 44 l 1,17,18
 243 76 243 76 254.5 112 c 128,-1,19
 266 148 266 148 276 178 c 2,20,-1
 379 480 l 1,21,-1
 424 480 l 1,22,-1
 234 -60 l 2,23,24
 224 -90 224 -90 209.5 -119 c 128,-1,25
 195 -148 195 -148 175.5 -170 c 128,-1,26
 156 -192 156 -192 130.5 -205.5 c 128,-1,27
 105 -219 105 -219 73 -219 c 0,0,1
EndSplineSet
Validated: 1
Substitution2: "'sups' Superscript lookup 26 subtable" y.sups
Substitution2: "'smcp' Lowercase to Small Capitals lookup 20 subtable" Y.sc
AlternateSubs2: "'aalt' Access All Alternates lookup 1 subtable" Y.sc y.sups
EndChar

StartChar: z
Encoding: 122 122 53
Width: 404
GlyphClass: 2
Flags: W
AnchorPoint: "Anchor-4" 218 -22 basechar 0
AnchorPoint: "Anchor-0" 220 504 basechar 0
LayerCount: 2
Fore
SplineSet
27 0 m 1,0,-1
 27 24 l 1,1,-1
 311 442 l 1,2,-1
 58 442 l 1,3,-1
 58 480 l 1,4,-1
 368 480 l 1,5,-1
 368 457 l 1,6,-1
 85 39 l 1,7,-1
 378 39 l 1,8,-1
 378 0 l 1,9,-1
 27 0 l 1,0,-1
EndSplineSet
Validated: 1
Substitution2: "'sups' Superscript lookup 26 subtable" z.sups
Substitution2: "'smcp' Lowercase to Small Capitals lookup 20 subtable" Z.sc
AlternateSubs2: "'aalt' Access All Alternates lookup 1 subtable" Z.sc z.sups
EndChar

StartChar: Aogonek
Encoding: 260 260 75
Width: 526
GlyphClass: 2
Flags: W
AnchorPoint: "Anchor-1" 263 681 basechar 0
LayerCount: 2
Fore
SplineSet
489 -205 m 0,0,1
 454 -205 454 -205 429.5 -185 c 128,-1,2
 405 -165 405 -165 405 -123 c 0,3,4
 405 -104 405 -104 411 -86 c 128,-1,5
 417 -68 417 -68 427 -52 c 128,-1,6
 437 -36 437 -36 450 -22.5 c 128,-1,7
 463 -9 463 -9 476 0 c 1,8,-1
 470 0 l 1,9,-1
 393 226 l 1,10,-1
 132 226 l 1,11,-1
 54 0 l 1,12,-1
 8 0 l 1,13,-1
 240 659 l 1,14,-1
 286 659 l 1,15,-1
 518 0 l 1,16,17
 487 -20 487 -20 465.5 -52.5 c 128,-1,18
 444 -85 444 -85 444 -116 c 0,19,20
 444 -142 444 -142 459.5 -155 c 128,-1,21
 475 -168 475 -168 495 -168 c 0,22,23
 520 -168 520 -168 538 -154 c 1,24,-1
 554 -181 l 1,25,26
 543 -191 543 -191 524.5 -198 c 128,-1,27
 506 -205 506 -205 489 -205 c 0,0,1
188 388 m 2,28,-1
 146 265 l 1,29,-1
 380 265 l 1,30,-1
 338 388 l 2,31,32
 318 447 318 447 300 501 c 128,-1,33
 282 555 282 555 265 616 c 1,34,-1
 261 616 l 1,35,36
 244 555 244 555 226 501 c 128,-1,37
 208 447 208 447 188 388 c 2,28,-1
EndSplineSet
Validated: 1
Substitution2: "'c2sc' Capitals to Small Capitals lookup 17 subtable" Aogonek.sc
Ligature2: "'ccmp' Glyph Composition/Decomposition lookup 11 subtable" A uni0328
Substitution2: "'aalt' Access All Alternates lookup 0 subtable" Aogonek.sc
EndChar

StartChar: AE
Encoding: 198 198 76
Width: 809
GlyphClass: 2
Flags: W
AnchorPoint: "Anchor-1" 580 694 basechar 0
LayerCount: 2
Fore
SplineSet
283 388 m 2,0,-1
 210 255 l 1,1,-1
 411 255 l 1,2,-1
 411 619 l 1,3,-1
 407 619 l 1,4,5
 376 563 376 563 345.5 505.5 c 128,-1,6
 315 448 315 448 283 388 c 2,0,-1
21 0 m 1,7,-1
 386 659 l 1,8,-1
 752 659 l 1,9,-1
 752 619 l 1,10,-1
 457 619 l 1,11,-1
 457 370 l 1,12,-1
 702 370 l 1,13,-1
 702 330 l 1,14,-1
 457 330 l 1,15,-1
 457 40 l 1,16,-1
 762 40 l 1,17,-1
 762 0 l 1,18,-1
 411 0 l 1,19,-1
 411 217 l 1,20,-1
 189 217 l 1,21,-1
 70 0 l 1,22,-1
 21 0 l 1,7,-1
EndSplineSet
Validated: 1
Substitution2: "'c2sc' Capitals to Small Capitals lookup 17 subtable" AE.sc
Substitution2: "'aalt' Access All Alternates lookup 0 subtable" AE.sc
EndChar

StartChar: uni0243
Encoding: 579 579 79
Width: 588
Flags: W
LayerCount: 2
Fore
SplineSet
111 0 m 1,0,-1
 111 178 l 1,1,-1
 33 178 l 1,2,-1
 33 208 l 1,3,-1
 111 211 l 1,4,-1
 111 659 l 1,5,-1
 289 659 l 2,6,7
 388 659 388 659 447 620 c 128,-1,8
 506 581 506 581 506 499 c 0,9,10
 506 448 506 448 477 410 c 128,-1,11
 448 372 448 372 389 357 c 1,12,-1
 389 353 l 1,13,14
 462 342 462 342 504.5 302 c 128,-1,15
 547 262 547 262 547 193 c 0,16,17
 547 145 547 145 529.5 109 c 128,-1,18
 512 73 512 73 480 49 c 128,-1,19
 448 25 448 25 403 12.5 c 128,-1,20
 358 0 358 0 302 0 c 2,21,-1
 111 0 l 1,0,-1
157 370 m 1,22,-1
 270 370 l 2,23,24
 372 370 372 370 416.5 403 c 128,-1,25
 461 436 461 436 461 501 c 0,26,27
 461 565 461 565 414 593.5 c 128,-1,28
 367 622 367 622 276 622 c 2,29,-1
 157 622 l 1,30,-1
 157 370 l 1,22,-1
157 37 m 1,31,-1
 290 37 l 2,32,33
 388 37 388 37 445 75 c 128,-1,34
 502 113 502 113 502 193 c 0,35,36
 502 265 502 265 446.5 300 c 128,-1,37
 391 335 391 335 290 335 c 2,38,-1
 157 335 l 1,39,-1
 157 211 l 1,40,-1
 323 211 l 1,41,-1
 323 178 l 1,42,-1
 157 178 l 1,43,-1
 157 37 l 1,31,-1
EndSplineSet
Validated: 1
Substitution2: "'c2sc' Capitals to Small Capitals lookup 17 subtable" uni0243.sc
Substitution2: "'aalt' Access All Alternates lookup 0 subtable" uni0243.sc
EndChar

StartChar: Eogonek
Encoding: 280 280 106
Width: 515
GlyphClass: 2
Flags: W
AnchorPoint: "Anchor-1" 283 681 basechar 0
LayerCount: 2
Fore
SplineSet
415 -205 m 0,0,1
 380 -205 380 -205 355.5 -185 c 128,-1,2
 331 -165 331 -165 331 -123 c 0,3,4
 331 -85 331 -85 353 -52 c 128,-1,5
 375 -19 375 -19 404 0 c 1,6,-1
 97 0 l 1,7,-1
 97 659 l 1,8,-1
 458 659 l 1,9,-1
 458 619 l 1,10,-1
 143 619 l 1,11,-1
 143 370 l 1,12,-1
 407 370 l 1,13,-1
 407 330 l 1,14,-1
 143 330 l 1,15,-1
 143 40 l 1,16,-1
 468 40 l 1,17,-1
 468 0 l 1,18,-1
 465 0 l 2,19,20
 448 -3 448 -3 431.5 -13.5 c 128,-1,21
 415 -24 415 -24 401.5 -39.5 c 128,-1,22
 388 -55 388 -55 379.5 -74.5 c 128,-1,23
 371 -94 371 -94 371 -116 c 0,24,25
 371 -142 371 -142 386.5 -155 c 128,-1,26
 402 -168 402 -168 421 -168 c 0,27,28
 446 -168 446 -168 464 -154 c 1,29,-1
 481 -181 l 1,30,31
 469 -191 469 -191 450.5 -198 c 128,-1,32
 432 -205 432 -205 415 -205 c 0,0,1
EndSplineSet
Validated: 1
Substitution2: "'c2sc' Capitals to Small Capitals lookup 17 subtable" Eogonek.sc
Ligature2: "'ccmp' Glyph Composition/Decomposition lookup 11 subtable" E uni0328
Substitution2: "'aalt' Access All Alternates lookup 0 subtable" Eogonek.sc
EndChar

StartChar: uni0193
Encoding: 403 403 116
Width: 605
Flags: W
LayerCount: 2
Fore
SplineSet
338 -12 m 0,0,1
 274 -12 274 -12 222 12 c 128,-1,2
 170 36 170 36 133 80.5 c 128,-1,3
 96 125 96 125 75.5 188.5 c 128,-1,4
 55 252 55 252 55 331 c 0,5,6
 55 409 55 409 76 472 c 128,-1,7
 97 535 97 535 135 579.5 c 128,-1,8
 173 624 173 624 227 647.5 c 128,-1,9
 281 671 281 671 346 671 c 0,10,11
 383 671 383 671 412.5 664.5 c 128,-1,12
 442 658 442 658 465 648 c 1,13,14
 451 676 451 676 451 706 c 0,15,16
 451 748 451 748 478.5 771.5 c 128,-1,17
 506 795 506 795 546 795 c 0,18,19
 560 795 560 795 572 791.5 c 128,-1,20
 584 788 584 788 595 783 c 1,21,-1
 585 747 l 1,22,23
 577 750 577 750 568 753.5 c 128,-1,24
 559 757 559 757 548 757 c 0,25,26
 520 757 520 757 506 739.5 c 128,-1,27
 492 722 492 722 492 700 c 0,28,29
 492 676 492 676 499.5 657.5 c 128,-1,30
 507 639 507 639 526 611 c 1,31,-1
 499 580 l 1,32,33
 473 600 473 600 437 614.5 c 128,-1,34
 401 629 401 629 347 629 c 0,35,36
 290 629 290 629 245 608 c 128,-1,37
 200 587 200 587 168.5 548.5 c 128,-1,38
 137 510 137 510 120 455 c 128,-1,39
 103 400 103 400 103 331 c 256,40,41
 103 262 103 262 119 206.5 c 128,-1,42
 135 151 135 151 165.5 112 c 128,-1,43
 196 73 196 73 240.5 51.5 c 128,-1,44
 285 30 285 30 341 30 c 0,45,46
 386 30 386 30 425.5 43 c 128,-1,47
 465 56 465 56 489 80 c 1,48,-1
 489 285 l 1,49,-1
 331 285 l 1,50,-1
 331 324 l 1,51,-1
 533 324 l 1,52,-1
 533 63 l 1,53,54
 502 30 502 30 452.5 9 c 128,-1,55
 403 -12 403 -12 338 -12 c 0,0,1
EndSplineSet
Validated: 1
Substitution2: "'c2sc' Capitals to Small Capitals lookup 17 subtable" uni0193.sc
Substitution2: "'aalt' Access All Alternates lookup 0 subtable" uni0193.sc
EndChar

StartChar: Hbar
Encoding: 294 294 120
Width: 672
Flags: W
LayerCount: 2
Fore
SplineSet
36 495 m 1,0,-1
 36 524 l 1,1,-1
 117 528 l 1,2,-1
 117 659 l 1,3,-1
 163 659 l 1,4,-1
 163 528 l 1,5,-1
 516 528 l 1,6,-1
 516 659 l 1,7,-1
 562 659 l 1,8,-1
 562 528 l 1,9,-1
 635 528 l 1,10,-1
 635 495 l 1,11,-1
 562 495 l 1,12,-1
 562 0 l 1,13,-1
 516 0 l 1,14,-1
 516 330 l 1,15,-1
 163 330 l 1,16,-1
 163 0 l 1,17,-1
 117 0 l 1,18,-1
 117 495 l 1,19,-1
 36 495 l 1,0,-1
163 370 m 1,20,-1
 516 370 l 1,21,-1
 516 495 l 1,22,-1
 163 495 l 1,23,-1
 163 370 l 1,20,-1
EndSplineSet
Validated: 1
Substitution2: "'c2sc' Capitals to Small Capitals lookup 17 subtable" Hbar.sc
Substitution2: "'aalt' Access All Alternates lookup 0 subtable" Hbar.sc
EndChar

StartChar: Iogonek
Encoding: 302 302 131
Width: 312
GlyphClass: 2
Flags: W
AnchorPoint: "Anchor-1" 155 681 basechar 0
LayerCount: 2
Fore
SplineSet
162 -205 m 0,0,1
 127 -205 127 -205 102.5 -185 c 128,-1,2
 78 -165 78 -165 78 -123 c 0,3,4
 78 -85 78 -85 97.5 -53.5 c 128,-1,5
 117 -22 117 -22 143 0 c 1,6,-1
 43 0 l 1,7,-1
 43 40 l 1,8,-1
 133 40 l 1,9,-1
 133 619 l 1,10,-1
 43 619 l 1,11,-1
 43 659 l 1,12,-1
 268 659 l 1,13,-1
 268 619 l 1,14,-1
 179 619 l 1,15,-1
 179 40 l 1,16,-1
 268 40 l 1,17,-1
 268 0 l 1,18,-1
 185 0 l 1,19,20
 153 -24 153 -24 135 -54.5 c 128,-1,21
 117 -85 117 -85 117 -116 c 0,22,23
 117 -142 117 -142 132.5 -155 c 128,-1,24
 148 -168 148 -168 168 -168 c 0,25,26
 191 -168 191 -168 211 -154 c 1,27,-1
 227 -181 l 1,28,29
 216 -191 216 -191 197.5 -198 c 128,-1,30
 179 -205 179 -205 162 -205 c 0,0,1
EndSplineSet
Substitution2: "'ss04' Style Set 4 lookup 43 subtable" Iogonek.a
Substitution2: "'c2sc' Capitals to Small Capitals lookup 17 subtable" Iogonek.sc
Ligature2: "'ccmp' Glyph Composition/Decomposition lookup 11 subtable" I uni0328
AlternateSubs2: "'aalt' Access All Alternates lookup 1 subtable" Iogonek.sc Iogonek.a
EndChar

StartChar: Lslash
Encoding: 321 321 144
Width: 468
Flags: W
LayerCount: 2
Fore
SplineSet
23 215 m 1,0,-1
 4 246 l 1,1,-1
 101 298 l 1,2,-1
 101 659 l 1,3,-1
 147 659 l 1,4,-1
 147 318 l 1,5,-1
 334 417 l 1,6,-1
 352 385 l 1,7,-1
 147 278 l 1,8,-1
 147 40 l 1,9,-1
 451 40 l 1,10,-1
 451 0 l 1,11,-1
 101 0 l 1,12,-1
 101 257 l 1,13,-1
 23 215 l 1,0,-1
EndSplineSet
Validated: 1
Substitution2: "'c2sc' Capitals to Small Capitals lookup 17 subtable" Lslash.sc
Substitution2: "'aalt' Access All Alternates lookup 0 subtable" Lslash.sc
EndChar

StartChar: Oslash
Encoding: 216 216 173
Width: 652
GlyphClass: 2
Flags: W
AnchorPoint: "Anchor-1" 325 681 basechar 0
LayerCount: 2
Fore
SplineSet
330 -12 m 0,0,1
 276 -12 276 -12 230.5 8 c 128,-1,2
 185 28 185 28 150 65 c 1,3,-1
 84 -23 l 1,4,-1
 56 -1 l 1,5,-1
 126 93 l 1,6,7
 94 138 94 138 76.5 198 c 128,-1,8
 59 258 59 258 59 332 c 0,9,10
 59 410 59 410 79 472.5 c 128,-1,11
 99 535 99 535 135 579.5 c 128,-1,12
 171 624 171 624 221 647.5 c 128,-1,13
 271 671 271 671 330 671 c 0,14,15
 382 671 382 671 426.5 653 c 128,-1,16
 471 635 471 635 506 601 c 1,17,-1
 566 682 l 1,18,-1
 595 660 l 1,19,-1
 530 574 l 1,20,21
 565 529 565 529 583.5 468.5 c 128,-1,22
 602 408 602 408 602 332 c 0,23,24
 602 254 602 254 582 190.5 c 128,-1,25
 562 127 562 127 526 82 c 128,-1,26
 490 37 490 37 440 12.5 c 128,-1,27
 390 -12 390 -12 330 -12 c 0,0,1
107 332 m 0,28,29
 107 271 107 271 119.5 220.5 c 128,-1,30
 132 170 132 170 155 132 c 1,31,-1
 478 565 l 1,32,33
 449 596 449 596 412 612.5 c 128,-1,34
 375 629 375 629 330 629 c 0,35,36
 280 629 280 629 238.5 608 c 128,-1,37
 197 587 197 587 168 548.5 c 128,-1,38
 139 510 139 510 123 455 c 128,-1,39
 107 400 107 400 107 332 c 0,28,29
330 30 m 0,40,41
 380 30 380 30 421 51.5 c 128,-1,42
 462 73 462 73 491.5 112.5 c 128,-1,43
 521 152 521 152 537 207.5 c 128,-1,44
 553 263 553 263 553 332 c 0,45,46
 553 395 553 395 539.5 446 c 128,-1,47
 526 497 526 497 501 535 c 1,48,-1
 177 101 l 1,49,50
 206 67 206 67 244.5 48.5 c 128,-1,51
 283 30 283 30 330 30 c 0,40,41
EndSplineSet
Validated: 1
Substitution2: "'c2sc' Capitals to Small Capitals lookup 17 subtable" Oslash.sc
Substitution2: "'aalt' Access All Alternates lookup 0 subtable" Oslash.sc
EndChar

StartChar: OE
Encoding: 338 338 174
Width: 833
GlyphClass: 2
Flags: W
AnchorPoint: "Anchor-1" 533 681 basechar 0
LayerCount: 2
Fore
SplineSet
367 0 m 2,0,1
 289 0 289 0 230.5 23.5 c 128,-1,2
 172 47 172 47 133 90.5 c 128,-1,3
 94 134 94 134 74.5 195.5 c 128,-1,4
 55 257 55 257 55 332 c 256,5,6
 55 407 55 407 74.5 467 c 128,-1,7
 94 527 94 527 133.5 570 c 128,-1,8
 173 613 173 613 231.5 636 c 128,-1,9
 290 659 290 659 368 659 c 2,10,-1
 776 659 l 1,11,-1
 776 619 l 1,12,-1
 481 619 l 1,13,-1
 481 370 l 1,14,-1
 726 370 l 1,15,-1
 726 330 l 1,16,-1
 481 330 l 1,17,-1
 481 40 l 1,18,-1
 786 40 l 1,19,-1
 786 0 l 1,20,-1
 367 0 l 2,0,1
372 39 m 2,21,-1
 435 39 l 1,22,-1
 435 620 l 1,23,-1
 372 620 l 2,24,25
 303 620 303 620 252.5 599 c 128,-1,26
 202 578 202 578 168.5 540.5 c 128,-1,27
 135 503 135 503 119 449.5 c 128,-1,28
 103 396 103 396 103 332 c 0,29,30
 103 267 103 267 119 213.5 c 128,-1,31
 135 160 135 160 168.5 121 c 128,-1,32
 202 82 202 82 252.5 60.5 c 128,-1,33
 303 39 303 39 372 39 c 2,21,-1
EndSplineSet
Validated: 1
Substitution2: "'c2sc' Capitals to Small Capitals lookup 17 subtable" OE.sc
Substitution2: "'aalt' Access All Alternates lookup 0 subtable" OE.sc
EndChar

StartChar: Ohorn
Encoding: 416 416 175
Width: 652
GlyphClass: 2
Flags: W
AnchorPoint: "Anchor-4" 324 -22 basechar 0
AnchorPoint: "Anchor-1" 330 681 basechar 0
LayerCount: 2
Fore
SplineSet
330 -12 m 0,0,1
 271 -12 271 -12 221 12.5 c 128,-1,2
 171 37 171 37 135 82 c 128,-1,3
 99 127 99 127 79 190.5 c 128,-1,4
 59 254 59 254 59 332 c 256,5,6
 59 410 59 410 79 472.5 c 128,-1,7
 99 535 99 535 135 579.5 c 128,-1,8
 171 624 171 624 221 647.5 c 128,-1,9
 271 671 271 671 330 671 c 0,10,11
 399 671 399 671 455 639 c 1,12,13
 549 655 549 655 549 727 c 0,14,15
 549 739 549 739 546 753.5 c 128,-1,16
 543 768 543 768 535 781 c 1,17,-1
 574 800 l 1,18,19
 594 766 594 766 594 730 c 0,20,21
 594 682 594 682 565 654 c 128,-1,22
 536 626 536 626 491 614 c 1,23,24
 543 571 543 571 572.5 499.5 c 128,-1,25
 602 428 602 428 602 332 c 0,26,27
 602 254 602 254 582 190.5 c 128,-1,28
 562 127 562 127 526 82 c 128,-1,29
 490 37 490 37 440 12.5 c 128,-1,30
 390 -12 390 -12 330 -12 c 0,0,1
330 30 m 256,31,32
 380 30 380 30 421 51.5 c 128,-1,33
 462 73 462 73 491.5 112.5 c 128,-1,34
 521 152 521 152 537 207.5 c 128,-1,35
 553 263 553 263 553 332 c 0,36,37
 553 400 553 400 537 455 c 128,-1,38
 521 510 521 510 491.5 548.5 c 128,-1,39
 462 587 462 587 421 608 c 128,-1,40
 380 629 380 629 330 629 c 256,41,42
 280 629 280 629 238.5 608 c 128,-1,43
 197 587 197 587 168 548.5 c 128,-1,44
 139 510 139 510 123 455 c 128,-1,45
 107 400 107 400 107 332 c 0,46,47
 107 263 107 263 123 207.5 c 128,-1,48
 139 152 139 152 168 112.5 c 128,-1,49
 197 73 197 73 238.5 51.5 c 128,-1,50
 280 30 280 30 330 30 c 256,31,32
EndSplineSet
Validated: 1
Substitution2: "'c2sc' Capitals to Small Capitals lookup 17 subtable" Ohorn.sc
Substitution2: "'aalt' Access All Alternates lookup 0 subtable" Ohorn.sc
EndChar

StartChar: uni01EA
Encoding: 490 490 181
Width: 652
GlyphClass: 2
Flags: W
AnchorPoint: "Anchor-1" 324 681 basechar 0
LayerCount: 2
Fore
SplineSet
357 -205 m 0,0,1
 322 -205 322 -205 297.5 -185 c 128,-1,2
 273 -165 273 -165 273 -123 c 0,3,4
 273 -93 273 -93 289 -64 c 128,-1,5
 305 -35 305 -35 334 -12 c 1,6,7
 269 -12 269 -12 217.5 12.5 c 128,-1,8
 166 37 166 37 130 82 c 128,-1,9
 94 127 94 127 74.5 190.5 c 128,-1,10
 55 254 55 254 55 332 c 256,11,12
 55 410 55 410 75 472.5 c 128,-1,13
 95 535 95 535 131 579.5 c 128,-1,14
 167 624 167 624 217 647.5 c 128,-1,15
 267 671 267 671 326 671 c 0,16,17
 386 671 386 671 436 647.5 c 128,-1,18
 486 624 486 624 522 579.5 c 128,-1,19
 558 535 558 535 578 472.5 c 128,-1,20
 598 410 598 410 598 332 c 0,21,22
 598 200 598 200 546 118.5 c 128,-1,23
 494 37 494 37 395 -8 c 0,24,25
 352 -27 352 -27 332.5 -58 c 128,-1,26
 313 -89 313 -89 313 -116 c 0,27,28
 313 -142 313 -142 328.5 -155 c 128,-1,29
 344 -168 344 -168 363 -168 c 0,30,31
 388 -168 388 -168 406 -154 c 1,32,-1
 423 -181 l 1,33,34
 411 -191 411 -191 392.5 -198 c 128,-1,35
 374 -205 374 -205 357 -205 c 0,0,1
326 30 m 256,36,37
 376 30 376 30 417 51.5 c 128,-1,38
 458 73 458 73 487.5 112.5 c 128,-1,39
 517 152 517 152 533 207.5 c 128,-1,40
 549 263 549 263 549 332 c 0,41,42
 549 400 549 400 533 455 c 128,-1,43
 517 510 517 510 487.5 548.5 c 128,-1,44
 458 587 458 587 417 608 c 128,-1,45
 376 629 376 629 326 629 c 256,46,47
 276 629 276 629 234.5 608 c 128,-1,48
 193 587 193 587 164 548.5 c 128,-1,49
 135 510 135 510 119 455 c 128,-1,50
 103 400 103 400 103 332 c 0,51,52
 103 263 103 263 119 207.5 c 128,-1,53
 135 152 135 152 164 112.5 c 128,-1,54
 193 73 193 73 234.5 51.5 c 128,-1,55
 276 30 276 30 326 30 c 256,36,37
EndSplineSet
Validated: 1
Substitution2: "'c2sc' Capitals to Small Capitals lookup 17 subtable" uni01EA.sc
Ligature2: "'ccmp' Glyph Composition/Decomposition lookup 11 subtable" O uni0328
Substitution2: "'aalt' Access All Alternates lookup 0 subtable" uni01EA.sc
EndChar

StartChar: uni1E9E
Encoding: 7838 7838 196
Width: 644
Flags: W
LayerCount: 2
Fore
SplineSet
416 -12 m 0,0,1
 363 -12 363 -12 317 8.5 c 128,-1,2
 271 29 271 29 239 67 c 1,3,-1
 270 99 l 1,4,5
 301 63 301 63 336 46 c 128,-1,6
 371 29 371 29 416 29 c 0,7,8
 481 29 481 29 516 67.5 c 128,-1,9
 551 106 551 106 551 166 c 0,10,11
 551 194 551 194 542.5 219.5 c 128,-1,12
 534 245 534 245 510 266 c 128,-1,13
 486 287 486 287 443.5 303 c 128,-1,14
 401 319 401 319 334 330 c 1,15,-1
 331 365 l 1,16,-1
 485 535 l 1,17,18
 466 575 466 575 430 602.5 c 128,-1,19
 394 630 394 630 337 630 c 0,20,21
 248 630 248 630 196 577 c 128,-1,22
 144 524 144 524 144 409 c 2,23,-1
 144 0 l 1,24,-1
 98 0 l 1,25,-1
 98 422 l 2,26,27
 98 482 98 482 115.5 528.5 c 128,-1,28
 133 575 133 575 165 606.5 c 128,-1,29
 197 638 197 638 241 654.5 c 128,-1,30
 285 671 285 671 339 671 c 0,31,32
 414 671 414 671 461.5 633.5 c 128,-1,33
 509 596 509 596 538 533 c 1,34,-1
 382 363 l 1,35,36
 443 353 443 353 484.5 334.5 c 128,-1,37
 526 316 526 316 551.5 290.5 c 128,-1,38
 577 265 577 265 588 233.5 c 128,-1,39
 599 202 599 202 599 167 c 0,40,41
 599 129 599 129 585.5 96 c 128,-1,42
 572 63 572 63 547.5 39 c 128,-1,43
 523 15 523 15 489.5 1.5 c 128,-1,44
 456 -12 456 -12 416 -12 c 0,0,1
EndSplineSet
Validated: 1
Substitution2: "'c2sc' Capitals to Small Capitals lookup 17 subtable" uni1E9E.sc
Substitution2: "'aalt' Access All Alternates lookup 0 subtable" uni1E9E.sc
EndChar

StartChar: uni0166
Encoding: 358 358 202
Width: 524
Flags: W
LayerCount: 2
Fore
SplineSet
239 0 m 1,0,-1
 239 330 l 1,1,-1
 112 330 l 1,2,-1
 112 361 l 1,3,-1
 198 363 l 1,4,-1
 239 363 l 1,5,-1
 239 619 l 1,6,-1
 29 619 l 1,7,-1
 29 659 l 1,8,-1
 495 659 l 1,9,-1
 495 619 l 1,10,-1
 285 619 l 1,11,-1
 285 363 l 1,12,-1
 412 363 l 1,13,-1
 412 330 l 1,14,-1
 285 330 l 1,15,-1
 285 0 l 1,16,-1
 239 0 l 1,0,-1
EndSplineSet
Validated: 1
Substitution2: "'c2sc' Capitals to Small Capitals lookup 17 subtable" uni0166.sc
Substitution2: "'aalt' Access All Alternates lookup 0 subtable" uni0166.sc
EndChar

StartChar: Uogonek
Encoding: 370 370 219
Width: 634
GlyphClass: 2
Flags: W
AnchorPoint: "Anchor-1" 316 681 basechar 0
LayerCount: 2
Fore
SplineSet
346 -205 m 0,0,1
 311 -205 311 -205 286 -185 c 128,-1,2
 261 -165 261 -165 261 -123 c 0,3,4
 261 -104 261 -104 267 -88 c 128,-1,5
 273 -72 273 -72 282 -59 c 128,-1,6
 291 -46 291 -46 302.5 -34.5 c 128,-1,7
 314 -23 314 -23 325 -12 c 1,8,9
 277 -12 277 -12 235 1 c 128,-1,10
 193 14 193 14 162 45 c 128,-1,11
 131 76 131 76 113 127 c 128,-1,12
 95 178 95 178 95 253 c 2,13,-1
 95 659 l 1,14,-1
 141 659 l 1,15,-1
 141 258 l 2,16,17
 141 192 141 192 155.5 148.5 c 128,-1,18
 170 105 170 105 194 78.5 c 128,-1,19
 218 52 218 52 249.5 41 c 128,-1,20
 281 30 281 30 316 30 c 0,21,22
 352 30 352 30 384.5 41 c 128,-1,23
 417 52 417 52 441.5 78.5 c 128,-1,24
 466 105 466 105 481 148.5 c 128,-1,25
 496 192 496 192 496 258 c 2,26,-1
 496 659 l 1,27,-1
 539 659 l 1,28,-1
 539 253 l 2,29,30
 539 188 539 188 526.5 145 c 128,-1,31
 514 102 514 102 492.5 73 c 128,-1,32
 471 44 471 44 443 25.5 c 128,-1,33
 415 7 415 7 385 -8 c 0,34,35
 345 -28 345 -28 323 -59 c 128,-1,36
 301 -90 301 -90 301 -116 c 256,37,38
 301 -142 301 -142 316.5 -155 c 128,-1,39
 332 -168 332 -168 352 -168 c 0,40,41
 375 -168 375 -168 395 -154 c 1,42,-1
 411 -181 l 1,43,44
 400 -191 400 -191 381 -198 c 128,-1,45
 362 -205 362 -205 346 -205 c 0,0,1
EndSplineSet
Validated: 1
Substitution2: "'c2sc' Capitals to Small Capitals lookup 17 subtable" Uogonek.sc
Ligature2: "'ccmp' Glyph Composition/Decomposition lookup 11 subtable" U uni0328
Substitution2: "'aalt' Access All Alternates lookup 0 subtable" Uogonek.sc
EndChar

StartChar: Uhorn
Encoding: 431 431 220
Width: 645
GlyphClass: 2
Flags: W
AnchorPoint: "Anchor-4" 316 -22 basechar 0
AnchorPoint: "Anchor-1" 318 681 basechar 0
LayerCount: 2
Fore
SplineSet
316 -12 m 0,0,1
 274 -12 274 -12 234 0.5 c 128,-1,2
 194 13 194 13 163 43.5 c 128,-1,3
 132 74 132 74 113.5 125 c 128,-1,4
 95 176 95 176 95 253 c 2,5,-1
 95 659 l 1,6,-1
 141 659 l 1,7,-1
 141 258 l 2,8,9
 141 192 141 192 155.5 148.5 c 128,-1,10
 170 105 170 105 194 78.5 c 128,-1,11
 218 52 218 52 249.5 41 c 128,-1,12
 281 30 281 30 316 30 c 0,13,14
 352 30 352 30 384.5 41 c 128,-1,15
 417 52 417 52 441.5 78.5 c 128,-1,16
 466 105 466 105 481 148.5 c 128,-1,17
 496 192 496 192 496 258 c 2,18,-1
 496 659 l 1,19,-1
 506 659 l 1,20,21
 554 666 554 666 577 686.5 c 128,-1,22
 600 707 600 707 600 747 c 0,23,24
 600 759 600 759 597 773.5 c 128,-1,25
 594 788 594 788 586 801 c 1,26,-1
 626 820 l 1,27,28
 645 785 645 785 645 750 c 0,29,30
 645 723 645 723 636 703 c 128,-1,31
 627 683 627 683 612 669.5 c 128,-1,32
 597 656 597 656 578 647 c 128,-1,33
 559 638 559 638 539 633 c 1,34,-1
 539 253 l 2,35,36
 539 176 539 176 520 125 c 128,-1,37
 501 74 501 74 470 43.5 c 128,-1,38
 439 13 439 13 399 0.5 c 128,-1,39
 359 -12 359 -12 316 -12 c 0,0,1
EndSplineSet
Validated: 1
Substitution2: "'c2sc' Capitals to Small Capitals lookup 17 subtable" Uhorn.sc
Substitution2: "'aalt' Access All Alternates lookup 0 subtable" Uhorn.sc
EndChar

StartChar: Eth
Encoding: 208 208 243
Width: 625
Flags: W
LayerCount: 2
Fore
SplineSet
37 332 m 1,0,-1
 37 363 l 1,1,-1
 118 365 l 1,2,-1
 118 659 l 1,3,-1
 271 659 l 2,4,5
 347 659 347 659 403.5 636 c 128,-1,6
 460 613 460 613 497 570 c 128,-1,7
 534 527 534 527 552 467 c 128,-1,8
 570 407 570 407 570 332 c 256,9,10
 570 257 570 257 552 195.5 c 128,-1,11
 534 134 534 134 497 90.5 c 128,-1,12
 460 47 460 47 404 23.5 c 128,-1,13
 348 0 348 0 272 0 c 2,14,-1
 118 0 l 1,15,-1
 118 332 l 1,16,-1
 37 332 l 1,0,-1
164 39 m 1,17,-1
 266 39 l 2,18,19
 333 39 333 39 381.5 60.5 c 128,-1,20
 430 82 430 82 461 121 c 128,-1,21
 492 160 492 160 507 213.5 c 128,-1,22
 522 267 522 267 522 332 c 0,23,24
 522 396 522 396 507 449 c 128,-1,25
 492 502 492 502 461 540 c 128,-1,26
 430 578 430 578 381.5 599 c 128,-1,27
 333 620 333 620 266 620 c 2,28,-1
 164 620 l 1,29,-1
 164 365 l 1,30,-1
 327 365 l 1,31,-1
 327 332 l 1,32,-1
 164 332 l 1,33,-1
 164 39 l 1,17,-1
EndSplineSet
Validated: 1
Substitution2: "'c2sc' Capitals to Small Capitals lookup 17 subtable" Eth.sc
Substitution2: "'aalt' Access All Alternates lookup 0 subtable" Eth.sc
EndChar

StartChar: Thorn
Encoding: 222 222 244
Width: 563
Flags: W
LayerCount: 2
Fore
SplineSet
97 0 m 1,0,-1
 97 659 l 1,1,-1
 143 659 l 1,2,-1
 143 542 l 1,3,-1
 277 542 l 2,4,5
 332 542 332 542 375.5 532 c 128,-1,6
 419 522 419 522 449.5 500.5 c 128,-1,7
 480 479 480 479 496 444 c 128,-1,8
 512 409 512 409 512 358 c 0,9,10
 512 261 512 261 450 213.5 c 128,-1,11
 388 166 388 166 277 166 c 2,12,-1
 143 166 l 1,13,-1
 143 0 l 1,14,-1
 97 0 l 1,0,-1
143 205 m 1,15,-1
 266 205 l 2,16,17
 367 205 367 205 416 241 c 128,-1,18
 465 277 465 277 465 358 c 0,19,20
 465 440 465 440 415.5 471.5 c 128,-1,21
 366 503 366 503 266 503 c 2,22,-1
 143 503 l 1,23,-1
 143 205 l 1,15,-1
EndSplineSet
Validated: 1
Substitution2: "'c2sc' Capitals to Small Capitals lookup 17 subtable" Thorn.sc
Substitution2: "'aalt' Access All Alternates lookup 0 subtable" Thorn.sc
EndChar

StartChar: uni018F
Encoding: 399 399 245
Width: 648
GlyphClass: 2
Flags: W
AnchorPoint: "Anchor-4" 339 -22 basechar 0
AnchorPoint: "Anchor-1" 339 681 basechar 0
LayerCount: 2
Fore
SplineSet
322 -12 m 256,0,1
 260 -12 260 -12 211.5 13 c 128,-1,2
 163 38 163 38 130 82.5 c 128,-1,3
 97 127 97 127 79.5 189 c 128,-1,4
 62 251 62 251 62 326 c 0,5,6
 62 328 62 328 62.5 331 c 128,-1,7
 63 334 63 334 63 337 c 2,8,-1
 547 337 l 1,9,10
 545 478 545 478 489 555 c 128,-1,11
 433 632 433 632 326 632 c 0,12,13
 275 632 275 632 231 613.5 c 128,-1,14
 187 595 187 595 155 565 c 1,15,-1
 131 596 l 1,16,17
 164 628 164 628 213.5 649.5 c 128,-1,18
 263 671 263 671 326 671 c 0,19,20
 454 671 454 671 523.5 583 c 128,-1,21
 593 495 593 495 593 331 c 0,22,23
 593 250 593 250 574 186.5 c 128,-1,24
 555 123 555 123 519.5 78.5 c 128,-1,25
 484 34 484 34 434 11 c 128,-1,26
 384 -12 384 -12 322 -12 c 256,0,1
322 27 m 0,27,28
 422 27 422 27 480.5 98.5 c 128,-1,29
 539 170 539 170 546 299 c 1,30,-1
 109 299 l 1,31,32
 110 237 110 237 126.5 186.5 c 128,-1,33
 143 136 143 136 170.5 100.5 c 128,-1,34
 198 65 198 65 236.5 46 c 128,-1,35
 275 27 275 27 322 27 c 0,27,28
EndSplineSet
Validated: 1
Substitution2: "'c2sc' Capitals to Small Capitals lookup 17 subtable" uni018F.sc
Substitution2: "'aalt' Access All Alternates lookup 0 subtable" uni018F.sc
EndChar

StartChar: uni014A
Encoding: 330 330 246
Width: 617
GlyphClass: 2
Flags: W
AnchorPoint: "Anchor-1" 335 681 basechar 0
LayerCount: 2
Fore
SplineSet
403 -12 m 0,0,1
 385 -12 385 -12 365 -9 c 128,-1,2
 345 -6 345 -6 331 1 c 1,3,-1
 345 44 l 1,4,5
 357 39 357 39 369.5 36 c 128,-1,6
 382 33 382 33 399 33 c 0,7,8
 422 33 422 33 443 48 c 128,-1,9
 464 63 464 63 479.5 98.5 c 128,-1,10
 495 134 495 134 504.5 192 c 128,-1,11
 514 250 514 250 514 337 c 0,12,13
 514 422 514 422 500 478 c 128,-1,14
 486 534 486 534 461 567.5 c 128,-1,15
 436 601 436 601 401.5 615 c 128,-1,16
 367 629 367 629 326 629 c 0,17,18
 303 629 303 629 278 620.5 c 128,-1,19
 253 612 253 612 228.5 597.5 c 128,-1,20
 204 583 204 583 181.5 563.5 c 128,-1,21
 159 544 159 544 143 523 c 1,22,-1
 143 0 l 1,23,-1
 97 0 l 1,24,-1
 97 659 l 1,25,-1
 143 659 l 1,26,-1
 143 571 l 1,27,28
 160 591 160 591 182 609 c 128,-1,29
 204 627 204 627 228.5 641 c 128,-1,30
 253 655 253 655 279.5 663 c 128,-1,31
 306 671 306 671 333 671 c 0,32,33
 382 671 382 671 424 653.5 c 128,-1,34
 466 636 466 636 496.5 596.5 c 128,-1,35
 527 557 527 557 544.5 493 c 128,-1,36
 562 429 562 429 562 337 c 0,37,38
 562 238 562 238 549.5 171.5 c 128,-1,39
 537 105 537 105 515 64 c 128,-1,40
 493 23 493 23 464.5 5.5 c 128,-1,41
 436 -12 436 -12 403 -12 c 0,0,1
EndSplineSet
Validated: 1
Substitution2: "'c2sc' Capitals to Small Capitals lookup 17 subtable" uni014A.sc
Substitution2: "'salt' Stylistic Alternatives lookup 3 subtable" uni014A.a
AlternateSubs2: "'aalt' Access All Alternates lookup 1 subtable" uni014A.a uni014A.sc
EndChar

StartChar: uni0132
Encoding: 306 306 247
Width: 481
Flags: W
LayerCount: 2
Fore
SplineSet
97 0 m 1,0,-1
 97 659 l 1,1,-1
 143 659 l 1,2,-1
 143 0 l 1,3,-1
 97 0 l 1,0,-1
274 -156 m 0,4,5
 257 -156 257 -156 240.5 -152 c 128,-1,6
 224 -148 224 -148 213 -143 c 1,7,-1
 223 -104 l 1,8,9
 232 -107 232 -107 245.5 -110 c 128,-1,10
 259 -113 259 -113 273 -113 c 0,11,12
 313 -113 313 -113 325.5 -84 c 128,-1,13
 338 -55 338 -55 338 -9 c 2,14,-1
 338 659 l 1,15,-1
 384 659 l 1,16,-1
 384 -15 l 2,17,18
 384 -156 384 -156 274 -156 c 0,4,5
EndSplineSet
Validated: 1
Substitution2: "'c2sc' Capitals to Small Capitals lookup 17 subtable" uni0132.sc
Substitution2: "'aalt' Access All Alternates lookup 0 subtable" uni0132.sc
EndChar

StartChar: aogonek
Encoding: 261 261 269
Width: 491
GlyphClass: 2
Flags: W
AnchorPoint: "Anchor-0" 263 504 basechar 0
LayerCount: 2
Fore
SplineSet
369 -203 m 0,0,1
 334 -203 334 -203 310.5 -183 c 128,-1,2
 287 -163 287 -163 287 -122 c 0,3,4
 287 -84 287 -84 313.5 -49.5 c 128,-1,5
 340 -15 340 -15 375 7 c 1,6,-1
 370 62 l 1,7,-1
 367 62 l 1,8,9
 330 33 330 33 287.5 10.5 c 128,-1,10
 245 -12 245 -12 197 -12 c 0,11,12
 168 -12 168 -12 143 -4 c 128,-1,13
 118 4 118 4 99 20 c 128,-1,14
 80 36 80 36 69 60.5 c 128,-1,15
 58 85 58 85 58 119 c 0,16,17
 58 159 58 159 76.5 189 c 128,-1,18
 95 219 95 219 133 241 c 128,-1,19
 171 263 171 263 229.5 277.5 c 128,-1,20
 288 292 288 292 368 301 c 1,21,22
 368 328 368 328 364 355.5 c 128,-1,23
 360 383 360 383 347 404.5 c 128,-1,24
 334 426 334 426 312 439.5 c 128,-1,25
 290 453 290 453 254 453 c 0,26,27
 206 453 206 453 166 434 c 128,-1,28
 126 415 126 415 101 397 c 1,29,-1
 81 430 l 1,30,31
 94 439 94 439 112.5 450 c 128,-1,32
 131 461 131 461 154 470 c 128,-1,33
 177 479 177 479 204 485.5 c 128,-1,34
 231 492 231 492 260 492 c 0,35,36
 302 492 302 492 331 477.5 c 128,-1,37
 360 463 360 463 378 438 c 128,-1,38
 396 413 396 413 404 379.5 c 128,-1,39
 412 346 412 346 412 307 c 2,40,-1
 412 0 l 1,41,42
 374 -19 374 -19 350 -51.5 c 128,-1,43
 326 -84 326 -84 326 -116 c 0,44,45
 326 -142 326 -142 340.5 -155 c 128,-1,46
 355 -168 355 -168 375 -168 c 0,47,48
 398 -168 398 -168 418 -154 c 1,49,-1
 434 -180 l 1,50,51
 422 -190 422 -190 403.5 -196.5 c 128,-1,52
 385 -203 385 -203 369 -203 c 0,0,1
205 26 m 0,53,54
 247 26 247 26 285 46 c 128,-1,55
 323 66 323 66 368 104 c 1,56,-1
 368 267 l 1,57,58
 294 258 294 258 243 245 c 128,-1,59
 192 232 192 232 161 214 c 128,-1,60
 130 196 130 196 116.5 173 c 128,-1,61
 103 150 103 150 103 122 c 0,62,63
 103 96 103 96 111 78 c 128,-1,64
 119 60 119 60 133 48.5 c 128,-1,65
 147 37 147 37 165.5 31.5 c 128,-1,66
 184 26 184 26 205 26 c 0,53,54
EndSplineSet
Validated: 1
Substitution2: "'ss02' Style Set 2 lookup 39 subtable" aogonek.a
Substitution2: "'smcp' Lowercase to Small Capitals lookup 20 subtable" Aogonek.sc
Ligature2: "'ccmp' Glyph Composition/Decomposition lookup 11 subtable" a uni0328
AlternateSubs2: "'aalt' Access All Alternates lookup 1 subtable" Aogonek.sc aogonek.a
EndChar

StartChar: ae
Encoding: 230 230 270
Width: 784
GlyphClass: 2
Flags: W
AnchorPoint: "Anchor-4" 426 -22 basechar 0
AnchorPoint: "Anchor-0" 414 504 basechar 0
LayerCount: 2
Fore
SplineSet
205 -12 m 0,0,1
 176 -12 176 -12 151 -4 c 128,-1,2
 126 4 126 4 106.5 20 c 128,-1,3
 87 36 87 36 76 60.5 c 128,-1,4
 65 85 65 85 65 119 c 0,5,6
 65 199 65 199 140 241 c 128,-1,7
 215 283 215 283 370 301 c 1,8,9
 370 328 370 328 366 355.5 c 128,-1,10
 362 383 362 383 349.5 404.5 c 128,-1,11
 337 426 337 426 314.5 439.5 c 128,-1,12
 292 453 292 453 257 453 c 0,13,14
 212 453 212 453 172.5 434 c 128,-1,15
 133 415 133 415 109 397 c 1,16,-1
 89 430 l 1,17,18
 102 439 102 439 120 450 c 128,-1,19
 138 461 138 461 160.5 470 c 128,-1,20
 183 479 183 479 208.5 485.5 c 128,-1,21
 234 492 234 492 261 492 c 0,22,23
 320 492 320 492 354.5 459.5 c 128,-1,24
 389 427 389 427 401 372 c 1,25,26
 427 427 427 427 470.5 459.5 c 128,-1,27
 514 492 514 492 568 492 c 0,28,29
 653 492 653 492 699.5 434 c 128,-1,30
 746 376 746 376 746 270 c 0,31,32
 746 261 746 261 746 252 c 128,-1,33
 746 243 746 243 744 234 c 1,34,-1
 412 234 l 1,35,36
 412 189 412 189 425 151 c 128,-1,37
 438 113 438 113 461 85.5 c 128,-1,38
 484 58 484 58 515.5 42.5 c 128,-1,39
 547 27 547 27 583 27 c 0,40,41
 622 27 622 27 651.5 38.5 c 128,-1,42
 681 50 681 50 708 70 c 1,43,-1
 727 35 l 1,44,45
 713 26 713 26 698 18 c 128,-1,46
 683 10 683 10 665 3 c 128,-1,47
 647 -4 647 -4 626 -8 c 128,-1,48
 605 -12 605 -12 579 -12 c 0,49,50
 547 -12 547 -12 521 -3.5 c 128,-1,51
 495 5 495 5 474 19 c 128,-1,52
 453 33 453 33 436.5 51 c 128,-1,53
 420 69 420 69 407 87 c 1,54,55
 359 41 359 41 304.5 14.5 c 128,-1,56
 250 -12 250 -12 205 -12 c 0,0,1
212 26 m 0,57,58
 231 26 231 26 254 32 c 128,-1,59
 277 38 277 38 300.5 50 c 128,-1,60
 324 62 324 62 347 79.5 c 128,-1,61
 370 97 370 97 391 119 c 1,62,63
 380 141 380 141 375 173.5 c 128,-1,64
 370 206 370 206 370 240 c 2,65,-1
 369 267 l 1,66,67
 299 258 299 258 250 245.5 c 128,-1,68
 201 233 201 233 170 215 c 128,-1,69
 139 197 139 197 125 174 c 128,-1,70
 111 151 111 151 111 122 c 0,71,72
 111 70 111 70 141 48 c 128,-1,73
 171 26 171 26 212 26 c 0,57,58
412 268 m 1,74,-1
 705 268 l 1,75,76
 705 361 705 361 668.5 407.5 c 128,-1,77
 632 454 632 454 567 454 c 0,78,79
 537 454 537 454 510.5 440.5 c 128,-1,80
 484 427 484 427 463.5 402.5 c 128,-1,81
 443 378 443 378 429.5 343.5 c 128,-1,82
 416 309 416 309 412 268 c 1,74,-1
EndSplineSet
Validated: 1
Substitution2: "'smcp' Lowercase to Small Capitals lookup 20 subtable" AE.sc
Substitution2: "'aalt' Access All Alternates lookup 0 subtable" AE.sc
EndChar

StartChar: uni0180
Encoding: 384 384 273
Width: 528
Flags: W
LayerCount: 2
Fore
SplineSet
280 -12 m 0,0,1
 245 -12 245 -12 207.5 4.5 c 128,-1,2
 170 21 170 21 136 49 c 1,3,-1
 134 49 l 1,4,-1
 129 0 l 1,5,-1
 92 0 l 1,6,-1
 92 581 l 1,7,-1
 15 581 l 1,8,-1
 15 610 l 1,9,-1
 92 614 l 1,10,-1
 92 719 l 1,11,-1
 136 719 l 1,12,-1
 136 614 l 1,13,-1
 326 614 l 1,14,-1
 326 581 l 1,15,-1
 136 581 l 1,16,-1
 136 477 l 1,17,-1
 134 383 l 1,18,19
 171 414 171 414 213 436 c 128,-1,20
 255 458 255 458 300 458 c 0,21,22
 396 458 396 458 444 396 c 128,-1,23
 492 334 492 334 492 231 c 0,24,25
 492 174 492 174 475 128.5 c 128,-1,26
 458 83 458 83 428.5 52 c 128,-1,27
 399 21 399 21 360.5 4.5 c 128,-1,28
 322 -12 322 -12 280 -12 c 0,0,1
278 27 m 0,29,30
 314 27 314 27 345 42 c 128,-1,31
 376 57 376 57 398 84 c 128,-1,32
 420 111 420 111 432.5 148 c 128,-1,33
 445 185 445 185 445 230 c 0,34,35
 445 270 445 270 436.5 304.5 c 128,-1,36
 428 339 428 339 410 364.5 c 128,-1,37
 392 390 392 390 363 404.5 c 128,-1,38
 334 419 334 419 293 419 c 0,39,40
 257 419 257 419 218 398.5 c 128,-1,41
 179 378 179 378 136 340 c 1,42,-1
 136 89 l 1,43,44
 176 55 176 55 213 41 c 128,-1,45
 250 27 250 27 278 27 c 0,29,30
EndSplineSet
Validated: 1
Substitution2: "'smcp' Lowercase to Small Capitals lookup 20 subtable" uni0243.sc
Substitution2: "'aalt' Access All Alternates lookup 0 subtable" uni0243.sc
EndChar

StartChar: dcroat
Encoding: 273 273 283
Width: 544
Flags: W
LayerCount: 2
Fore
SplineSet
251 -12 m 0,0,1
 160 -12 160 -12 106 48 c 128,-1,2
 52 108 52 108 52 222 c 0,3,4
 52 276 52 276 69 319.5 c 128,-1,5
 86 363 86 363 115.5 394 c 128,-1,6
 145 425 145 425 183.5 441.5 c 128,-1,7
 222 458 222 458 265 458 c 0,8,9
 309 458 309 458 341.5 442.5 c 128,-1,10
 374 427 374 427 410 399 c 1,11,-1
 408 487 l 1,12,-1
 408 581 l 1,13,-1
 238 581 l 1,14,-1
 238 614 l 1,15,-1
 408 614 l 1,16,-1
 408 719 l 1,17,-1
 452 719 l 1,18,-1
 452 614 l 1,19,-1
 527 614 l 1,20,-1
 527 585 l 1,21,-1
 452 581 l 1,22,-1
 452 0 l 1,23,-1
 414 0 l 1,24,-1
 409 62 l 1,25,-1
 407 62 l 1,26,27
 378 32 378 32 338.5 10 c 128,-1,28
 299 -12 299 -12 251 -12 c 0,0,1
257 27 m 0,29,30
 297 27 297 27 333.5 47.5 c 128,-1,31
 370 68 370 68 408 106 c 1,32,-1
 408 357 l 1,33,34
 370 391 370 391 336.5 405 c 128,-1,35
 303 419 303 419 268 419 c 0,36,37
 232 419 232 419 201 403.5 c 128,-1,38
 170 388 170 388 147.5 361.5 c 128,-1,39
 125 335 125 335 112 299.5 c 128,-1,40
 99 264 99 264 99 223 c 0,41,42
 99 135 99 135 139.5 81 c 128,-1,43
 180 27 180 27 257 27 c 0,29,30
EndSplineSet
Validated: 1
Substitution2: "'smcp' Lowercase to Small Capitals lookup 20 subtable" Dcroat.sc
Substitution2: "'aalt' Access All Alternates lookup 0 subtable" Dcroat.sc
EndChar

StartChar: eogonek
Encoding: 281 281 300
Width: 483
GlyphClass: 2
Flags: W
AnchorPoint: "Anchor-0" 261 504 basechar 0
LayerCount: 2
Fore
SplineSet
355 -203 m 0,0,1
 320 -203 320 -203 297 -183 c 128,-1,2
 274 -163 274 -163 274 -122 c 0,3,4
 274 -103 274 -103 280 -85.5 c 128,-1,5
 286 -68 286 -68 295 -52.5 c 128,-1,6
 304 -37 304 -37 315 -24.5 c 128,-1,7
 326 -12 326 -12 337 -3 c 1,8,9
 321 -8 321 -8 306 -10 c 128,-1,10
 291 -12 291 -12 274 -12 c 0,11,12
 228 -12 228 -12 187.5 5 c 128,-1,13
 147 22 147 22 117 54.5 c 128,-1,14
 87 87 87 87 69.5 133.5 c 128,-1,15
 52 180 52 180 52 239 c 256,16,17
 52 298 52 298 69.5 345 c 128,-1,18
 87 392 87 392 116.5 424.5 c 128,-1,19
 146 457 146 457 183.5 474.5 c 128,-1,20
 221 492 221 492 261 492 c 0,21,22
 347 492 347 492 396 434 c 128,-1,23
 445 376 445 376 445 270 c 0,24,25
 445 261 445 261 445 252 c 128,-1,26
 445 243 445 243 443 234 c 1,27,-1
 97 234 l 1,28,29
 98 189 98 189 111 150.5 c 128,-1,30
 124 112 124 112 147.5 84.5 c 128,-1,31
 171 57 171 57 204 41.5 c 128,-1,32
 237 26 237 26 278 26 c 0,33,34
 317 26 317 26 348.5 37.5 c 128,-1,35
 380 49 380 49 407 69 c 1,36,-1
 425 35 l 1,37,38
 393 11 393 11 371 -9 c 128,-1,39
 349 -29 349 -29 336 -47.5 c 128,-1,40
 323 -66 323 -66 317.5 -83 c 128,-1,41
 312 -100 312 -100 312 -116 c 0,42,43
 312 -142 312 -142 326.5 -155 c 128,-1,44
 341 -168 341 -168 361 -168 c 0,45,46
 386 -168 386 -168 404 -154 c 1,47,-1
 420 -180 l 1,48,49
 409 -190 409 -190 390 -196.5 c 128,-1,50
 371 -203 371 -203 355 -203 c 0,0,1
97 270 m 1,51,-1
 403 270 l 1,52,53
 403 363 403 363 365 408.5 c 128,-1,54
 327 454 327 454 262 454 c 0,55,56
 231 454 231 454 203 441.5 c 128,-1,57
 175 429 175 429 152.5 405 c 128,-1,58
 130 381 130 381 115.5 347 c 128,-1,59
 101 313 101 313 97 270 c 1,51,-1
EndSplineSet
Validated: 1
Substitution2: "'smcp' Lowercase to Small Capitals lookup 20 subtable" Eogonek.sc
Ligature2: "'ccmp' Glyph Composition/Decomposition lookup 11 subtable" e uni0328
Substitution2: "'aalt' Access All Alternates lookup 0 subtable" Eogonek.sc
EndChar

StartChar: hbar
Encoding: 295 295 314
Width: 528
Flags: W
LayerCount: 2
Fore
SplineSet
92 0 m 1,0,-1
 92 581 l 1,1,-1
 15 581 l 1,2,-1
 15 610 l 1,3,-1
 92 614 l 1,4,-1
 92 719 l 1,5,-1
 136 719 l 1,6,-1
 136 614 l 1,7,-1
 326 614 l 1,8,-1
 326 581 l 1,9,-1
 136 581 l 1,10,-1
 136 371 l 1,11,12
 174 409 174 409 213 433.5 c 128,-1,13
 252 458 252 458 302 458 c 0,14,15
 377 458 377 458 412 413 c 128,-1,16
 447 368 447 368 447 274 c 2,17,-1
 447 0 l 1,18,-1
 403 0 l 1,19,-1
 403 268 l 2,20,21
 403 345 403 345 377.5 381.5 c 128,-1,22
 352 418 352 418 293 418 c 0,23,24
 250 418 250 418 215 395.5 c 128,-1,25
 180 373 180 373 136 328 c 1,26,-1
 136 0 l 1,27,-1
 92 0 l 1,0,-1
EndSplineSet
Validated: 1
Substitution2: "'smcp' Lowercase to Small Capitals lookup 20 subtable" Hbar.sc
Substitution2: "'aalt' Access All Alternates lookup 0 subtable" Hbar.sc
EndChar

StartChar: iogonek
Encoding: 303 303 324
Width: 229
GlyphClass: 3
Flags: W
LayerCount: 2
Fore
SplineSet
118 -203 m 0,0,1
 83 -203 83 -203 60 -183 c 128,-1,2
 37 -163 37 -163 37 -122 c 0,3,4
 37 -84 37 -84 57 -54 c 128,-1,5
 77 -24 77 -24 99 0 c 1,6,-1
 92 0 l 1,7,-1
 92 480 l 1,8,-1
 136 480 l 1,9,-1
 136 0 l 1,10,11
 112 -26 112 -26 93.5 -55 c 128,-1,12
 75 -84 75 -84 75 -116 c 0,13,14
 75 -142 75 -142 90 -155 c 128,-1,15
 105 -168 105 -168 124 -168 c 0,16,17
 147 -168 147 -168 167 -154 c 1,18,-1
 183 -180 l 1,19,20
 172 -190 172 -190 153 -196.5 c 128,-1,21
 134 -203 134 -203 118 -203 c 0,0,1
113 596 m 0,22,23
 97 596 97 596 85 607 c 128,-1,24
 73 618 73 618 73 635 c 0,25,26
 73 654 73 654 85 664.5 c 128,-1,27
 97 675 97 675 113 675 c 0,28,29
 130 675 130 675 142 664.5 c 128,-1,30
 154 654 154 654 154 635 c 0,31,32
 154 618 154 618 142 607 c 128,-1,33
 130 596 130 596 113 596 c 0,22,23
EndSplineSet
Validated: 1
Substitution2: "Single Substitution lookup 49 subtable" iogonek.d
Substitution2: "'smcp' Lowercase to Small Capitals lookup 20 subtable" Iogonek.sc
Ligature2: "'ccmp' Glyph Composition/Decomposition lookup 11 subtable" i uni0328
Substitution2: "'aalt' Access All Alternates lookup 0 subtable" Iogonek.sc
EndChar

StartChar: iogonek.d
Encoding: 1114115 -1 325
Width: 229
GlyphClass: 2
Flags: W
AnchorPoint: "Anchor-0" 115 504 basechar 0
LayerCount: 2
Fore
SplineSet
118 -203 m 0,0,1
 83 -203 83 -203 60 -183 c 128,-1,2
 37 -163 37 -163 37 -122 c 0,3,4
 37 -84 37 -84 57 -54 c 128,-1,5
 77 -24 77 -24 99 0 c 1,6,-1
 92 0 l 1,7,-1
 92 480 l 1,8,-1
 136 480 l 1,9,-1
 136 0 l 1,10,11
 112 -26 112 -26 93.5 -55 c 128,-1,12
 75 -84 75 -84 75 -116 c 0,13,14
 75 -142 75 -142 90 -155 c 128,-1,15
 105 -168 105 -168 124 -168 c 0,16,17
 147 -168 147 -168 167 -154 c 1,18,-1
 183 -180 l 1,19,20
 172 -190 172 -190 153 -196.5 c 128,-1,21
 134 -203 134 -203 118 -203 c 0,0,1
EndSplineSet
Validated: 1
Ligature2: "Ligature Substitution lookup 48 subtable" i uni0328
Substitution2: "'smcp' Lowercase to Small Capitals lookup 20 subtable" Iogonek.sc
Substitution2: "'aalt' Access All Alternates lookup 0 subtable" Iogonek.sc
EndChar

StartChar: dotlessi
Encoding: 305 305 327
Width: 229
GlyphClass: 2
Flags: W
AnchorPoint: "Anchor-7" 136 0 basechar 0
AnchorPoint: "Anchor-4" 113 -22 basechar 0
AnchorPoint: "Anchor-0" 115 504 basechar 0
LayerCount: 2
Fore
SplineSet
92 0 m 1,0,-1
 92 480 l 1,1,-1
 136 480 l 1,2,-1
 136 0 l 1,3,-1
 92 0 l 1,0,-1
EndSplineSet
Validated: 1
EndChar

StartChar: kgreenlandic
Encoding: 312 312 332
Width: 464
Flags: W
LayerCount: 2
Fore
SplineSet
92 0 m 1,0,-1
 92 480 l 1,1,-1
 136 480 l 1,2,-1
 136 189 l 1,3,-1
 139 189 l 1,4,-1
 375 480 l 1,5,-1
 426 480 l 1,6,-1
 270 290 l 1,7,-1
 452 0 l 1,8,-1
 403 0 l 1,9,-1
 244 257 l 1,10,-1
 136 130 l 1,11,-1
 136 0 l 1,12,-1
 92 0 l 1,0,-1
EndSplineSet
Validated: 1
EndChar

StartChar: lslash
Encoding: 322 322 340
Width: 239
Flags: W
LayerCount: 2
Fore
SplineSet
152 -12 m 0,0,1
 93 -12 93 -12 93 64 c 2,2,-1
 93 364 l 1,3,-1
 28 322 l 1,4,-1
 10 352 l 1,5,-1
 93 406 l 1,6,-1
 93 719 l 1,7,-1
 137 719 l 1,8,-1
 137 431 l 1,9,-1
 194 469 l 1,10,-1
 213 439 l 1,11,-1
 137 388 l 1,12,-1
 137 58 l 2,13,14
 137 42 137 42 143 34.5 c 128,-1,15
 149 27 149 27 158 27 c 0,16,17
 161 27 161 27 164.5 27 c 128,-1,18
 168 27 168 27 176 29 c 1,19,-1
 184 -7 l 1,20,21
 177 -9 177 -9 170 -10.5 c 128,-1,22
 163 -12 163 -12 152 -12 c 0,0,1
EndSplineSet
Validated: 1
Substitution2: "'ss01' Style Set 1 lookup 36 subtable" lslash.a
Substitution2: "'smcp' Lowercase to Small Capitals lookup 20 subtable" Lslash.sc
AlternateSubs2: "'aalt' Access All Alternates lookup 1 subtable" Lslash.sc lslash.a
EndChar

StartChar: oslash
Encoding: 248 248 370
Width: 535
GlyphClass: 2
Flags: W
AnchorPoint: "Anchor-0" 267 504 basechar 0
LayerCount: 2
Fore
SplineSet
267 -12 m 0,0,1
 185 -12 185 -12 126 44 c 1,2,-1
 72 -22 l 1,3,-1
 46 -1 l 1,4,-1
 104 69 l 1,5,6
 80 101 80 101 66 143 c 128,-1,7
 52 185 52 185 52 239 c 0,8,9
 52 299 52 299 69.5 346.5 c 128,-1,10
 87 394 87 394 116.5 426 c 128,-1,11
 146 458 146 458 185 475 c 128,-1,12
 224 492 224 492 267 492 c 0,13,14
 307 492 307 492 343.5 478 c 128,-1,15
 380 464 380 464 409 436 c 1,16,-1
 463 501 l 1,17,-1
 489 480 l 1,18,-1
 431 411 l 1,19,20
 455 379 455 379 469 336 c 128,-1,21
 483 293 483 293 483 239 c 0,22,23
 483 179 483 179 465.5 132.5 c 128,-1,24
 448 86 448 86 418.5 54 c 128,-1,25
 389 22 389 22 349.5 5 c 128,-1,26
 310 -12 310 -12 267 -12 c 0,0,1
97 240 m 0,27,28
 97 159 97 159 133 103 c 1,29,-1
 382 403 l 1,30,31
 336 454 336 454 267 454 c 0,32,33
 231 454 231 454 199.5 438.5 c 128,-1,34
 168 423 168 423 145.5 394.5 c 128,-1,35
 123 366 123 366 110 326.5 c 128,-1,36
 97 287 97 287 97 240 c 0,27,28
267 26 m 0,37,38
 303 26 303 26 334.5 41.5 c 128,-1,39
 366 57 366 57 389 85 c 128,-1,40
 412 113 412 113 425 152 c 128,-1,41
 438 191 438 191 438 238 c 0,42,43
 438 320 438 320 402 376 c 1,44,-1
 153 76 l 1,45,46
 200 26 200 26 267 26 c 0,37,38
EndSplineSet
Validated: 1
Substitution2: "'smcp' Lowercase to Small Capitals lookup 20 subtable" Oslash.sc
Substitution2: "'aalt' Access All Alternates lookup 0 subtable" Oslash.sc
EndChar

StartChar: oe
Encoding: 339 339 371
Width: 848
GlyphClass: 2
Flags: W
AnchorPoint: "Anchor-0" 449 504 basechar 0
LayerCount: 2
Fore
SplineSet
263 -12 m 0,0,1
 221 -12 221 -12 183 5 c 128,-1,2
 145 22 145 22 115.5 54 c 128,-1,3
 86 86 86 86 69 132.5 c 128,-1,4
 52 179 52 179 52 239 c 256,5,6
 52 299 52 299 69 346.5 c 128,-1,7
 86 394 86 394 115.5 426 c 128,-1,8
 145 458 145 458 183 475 c 128,-1,9
 221 492 221 492 263 492 c 0,10,11
 321 492 321 492 372 456.5 c 128,-1,12
 423 421 423 421 449 350 c 1,13,14
 475 416 475 416 522.5 454 c 128,-1,15
 570 492 570 492 628 492 c 0,16,17
 713 492 713 492 762 434 c 128,-1,18
 811 376 811 376 811 270 c 0,19,20
 811 252 811 252 808 234 c 1,21,-1
 471 234 l 1,22,23
 471 189 471 189 484.5 151 c 128,-1,24
 498 113 498 113 521 85.5 c 128,-1,25
 544 58 544 58 576 42.5 c 128,-1,26
 608 27 608 27 644 27 c 0,27,28
 683 27 683 27 714 38.5 c 128,-1,29
 745 50 745 50 772 70 c 1,30,-1
 791 35 l 1,31,32
 762 18 762 18 727.5 3 c 128,-1,33
 693 -12 693 -12 639 -12 c 0,34,35
 576 -12 576 -12 526 26 c 128,-1,36
 476 64 476 64 450 129 c 1,37,38
 422 59 422 59 374 23.5 c 128,-1,39
 326 -12 326 -12 263 -12 c 0,0,1
263 27 m 0,40,41
 299 27 299 27 329.5 42.5 c 128,-1,42
 360 58 360 58 381.5 86 c 128,-1,43
 403 114 403 114 415.5 153 c 128,-1,44
 428 192 428 192 428 239 c 0,45,46
 428 287 428 287 415.5 326 c 128,-1,47
 403 365 403 365 381.5 393.5 c 128,-1,48
 360 422 360 422 329.5 437.5 c 128,-1,49
 299 453 299 453 263 453 c 0,50,51
 228 453 228 453 197.5 437.5 c 128,-1,52
 167 422 167 422 145 393.5 c 128,-1,53
 123 365 123 365 110.5 326 c 128,-1,54
 98 287 98 287 98 239 c 0,55,56
 98 192 98 192 110.5 153 c 128,-1,57
 123 114 123 114 145 86 c 128,-1,58
 167 58 167 58 197.5 42.5 c 128,-1,59
 228 27 228 27 263 27 c 0,40,41
471 268 m 1,60,-1
 769 268 l 1,61,62
 769 361 769 361 730.5 407.5 c 128,-1,63
 692 454 692 454 628 454 c 0,64,65
 598 454 598 454 571 440.5 c 128,-1,66
 544 427 544 427 523 402.5 c 128,-1,67
 502 378 502 378 488.5 343.5 c 128,-1,68
 475 309 475 309 471 268 c 1,60,-1
EndSplineSet
Validated: 1
Substitution2: "'smcp' Lowercase to Small Capitals lookup 20 subtable" OE.sc
Substitution2: "'aalt' Access All Alternates lookup 0 subtable" OE.sc
EndChar

StartChar: ohorn
Encoding: 417 417 372
Width: 535
GlyphClass: 2
Flags: W
AnchorPoint: "Anchor-4" 267 -22 basechar 0
AnchorPoint: "Anchor-0" 267 504 basechar 0
LayerCount: 2
Fore
SplineSet
267 -12 m 256,0,1
 224 -12 224 -12 185 5 c 128,-1,2
 146 22 146 22 116.5 54 c 128,-1,3
 87 86 87 86 69.5 132.5 c 128,-1,4
 52 179 52 179 52 239 c 256,5,6
 52 299 52 299 69.5 346.5 c 128,-1,7
 87 394 87 394 116.5 426 c 128,-1,8
 146 458 146 458 185 475 c 128,-1,9
 224 492 224 492 267 492 c 0,10,11
 317 492 317 492 359 471 c 1,12,13
 458 486 458 486 458 569 c 0,14,15
 458 581 458 581 454.5 595 c 128,-1,16
 451 609 451 609 444 622 c 1,17,-1
 481 642 l 1,18,19
 490 625 490 625 495.5 607.5 c 128,-1,20
 501 590 501 590 501 572 c 0,21,22
 501 544 501 544 492 523 c 128,-1,23
 483 502 483 502 468 487 c 128,-1,24
 453 472 453 472 434 462.5 c 128,-1,25
 415 453 415 453 396 447 c 1,26,27
 435 415 435 415 459 363 c 128,-1,28
 483 311 483 311 483 239 c 0,29,30
 483 179 483 179 465.5 132.5 c 128,-1,31
 448 86 448 86 418.5 54 c 128,-1,32
 389 22 389 22 349.5 5 c 128,-1,33
 310 -12 310 -12 267 -12 c 256,0,1
267 27 m 256,34,35
 303 27 303 27 334.5 42.5 c 128,-1,36
 366 58 366 58 388.5 86 c 128,-1,37
 411 114 411 114 424 153 c 128,-1,38
 437 192 437 192 437 239 c 0,39,40
 437 287 437 287 424 326 c 128,-1,41
 411 365 411 365 388.5 393.5 c 128,-1,42
 366 422 366 422 334.5 437.5 c 128,-1,43
 303 453 303 453 267 453 c 256,44,45
 231 453 231 453 200 437.5 c 128,-1,46
 169 422 169 422 146.5 393.5 c 128,-1,47
 124 365 124 365 111 326 c 128,-1,48
 98 287 98 287 98 239 c 0,49,50
 98 192 98 192 111 153 c 128,-1,51
 124 114 124 114 146.5 86 c 128,-1,52
 169 58 169 58 200 42.5 c 128,-1,53
 231 27 231 27 267 27 c 256,34,35
EndSplineSet
Validated: 1
Substitution2: "'smcp' Lowercase to Small Capitals lookup 20 subtable" Ohorn.sc
Substitution2: "'aalt' Access All Alternates lookup 0 subtable" Ohorn.sc
EndChar

StartChar: uni01EB
Encoding: 491 491 378
Width: 535
GlyphClass: 2
Flags: W
AnchorPoint: "Anchor-0" 267 504 basechar 0
LayerCount: 2
Fore
SplineSet
294 -203 m 0,0,1
 260 -203 260 -203 236.5 -183 c 128,-1,2
 213 -163 213 -163 213 -122 c 0,3,4
 213 -103 213 -103 218.5 -86 c 128,-1,5
 224 -69 224 -69 232.5 -55 c 128,-1,6
 241 -41 241 -41 251 -30 c 128,-1,7
 261 -19 261 -19 269 -12 c 1,8,9
 224 -11 224 -11 184.5 6 c 128,-1,10
 145 23 145 23 115.5 55.5 c 128,-1,11
 86 88 86 88 69 134 c 128,-1,12
 52 180 52 180 52 239 c 0,13,14
 52 299 52 299 69.5 346.5 c 128,-1,15
 87 394 87 394 116.5 426 c 128,-1,16
 146 458 146 458 185 475 c 128,-1,17
 224 492 224 492 267 492 c 256,18,19
 310 492 310 492 349.5 475 c 128,-1,20
 389 458 389 458 418.5 426 c 128,-1,21
 448 394 448 394 465.5 346.5 c 128,-1,22
 483 299 483 299 483 239 c 0,23,24
 483 188 483 188 471.5 149 c 128,-1,25
 460 110 460 110 439.5 80.5 c 128,-1,26
 419 51 419 51 390 30 c 128,-1,27
 361 9 361 9 326 -7 c 0,28,29
 293 -22 293 -22 272 -53 c 128,-1,30
 251 -84 251 -84 251 -116 c 0,31,32
 251 -142 251 -142 266 -155 c 128,-1,33
 281 -168 281 -168 300 -168 c 0,34,35
 325 -168 325 -168 343 -154 c 1,36,-1
 359 -180 l 1,37,38
 348 -190 348 -190 329.5 -196.5 c 128,-1,39
 311 -203 311 -203 294 -203 c 0,0,1
267 27 m 256,40,41
 303 27 303 27 334.5 42.5 c 128,-1,42
 366 58 366 58 388.5 86 c 128,-1,43
 411 114 411 114 424 153 c 128,-1,44
 437 192 437 192 437 239 c 0,45,46
 437 287 437 287 424 326 c 128,-1,47
 411 365 411 365 388.5 393.5 c 128,-1,48
 366 422 366 422 334.5 437.5 c 128,-1,49
 303 453 303 453 267 453 c 256,50,51
 231 453 231 453 200 437.5 c 128,-1,52
 169 422 169 422 146.5 393.5 c 128,-1,53
 124 365 124 365 111 326 c 128,-1,54
 98 287 98 287 98 239 c 0,55,56
 98 192 98 192 111 153 c 128,-1,57
 124 114 124 114 146.5 86 c 128,-1,58
 169 58 169 58 200 42.5 c 128,-1,59
 231 27 231 27 267 27 c 256,40,41
EndSplineSet
Validated: 1
Substitution2: "'smcp' Lowercase to Small Capitals lookup 20 subtable" uni01EA.sc
Ligature2: "'ccmp' Glyph Composition/Decomposition lookup 11 subtable" o uni0328
Substitution2: "'aalt' Access All Alternates lookup 0 subtable" uni01EA.sc
EndChar

StartChar: germandbls
Encoding: 223 223 393
Width: 542
Flags: W
LayerCount: 2
Fore
SplineSet
367 -12 m 0,0,1
 328 -12 328 -12 294 2 c 128,-1,2
 260 16 260 16 231 39 c 1,3,-1
 253 72 l 1,4,5
 282 49 282 49 308.5 37.5 c 128,-1,6
 335 26 335 26 367 26 c 0,7,8
 392 26 392 26 411 34.5 c 128,-1,9
 430 43 430 43 442.5 56.5 c 128,-1,10
 455 70 455 70 461.5 88 c 128,-1,11
 468 106 468 106 468 125 c 0,12,13
 468 160 468 160 452.5 182 c 128,-1,14
 437 204 437 204 414 219.5 c 128,-1,15
 391 235 391 235 363.5 247.5 c 128,-1,16
 336 260 336 260 313 276 c 128,-1,17
 290 292 290 292 274.5 314.5 c 128,-1,18
 259 337 259 337 259 373 c 256,19,20
 259 409 259 409 274.5 435 c 128,-1,21
 290 461 290 461 308 484.5 c 128,-1,22
 326 508 326 508 341.5 532.5 c 128,-1,23
 357 557 357 557 357 591 c 0,24,25
 357 635 357 635 333.5 663 c 128,-1,26
 310 691 310 691 262 691 c 0,27,28
 205 691 205 691 170.5 649 c 128,-1,29
 136 607 136 607 136 517 c 2,30,-1
 136 0 l 1,31,-1
 92 0 l 1,32,-1
 92 532 l 2,33,34
 92 625 92 625 138.5 677 c 128,-1,35
 185 729 185 729 263 729 c 0,36,37
 296 729 296 729 321.5 718.5 c 128,-1,38
 347 708 347 708 365 690 c 128,-1,39
 383 672 383 672 392.5 647.5 c 128,-1,40
 402 623 402 623 402 595 c 0,41,42
 402 556 402 556 386.5 528.5 c 128,-1,43
 371 501 371 501 352.5 477.5 c 128,-1,44
 334 454 334 454 318.5 430.5 c 128,-1,45
 303 407 303 407 303 377 c 0,46,47
 303 348 303 348 318.5 330 c 128,-1,48
 334 312 334 312 357.5 298.5 c 128,-1,49
 381 285 381 285 408 272 c 128,-1,50
 435 259 435 259 458.5 241 c 128,-1,51
 482 223 482 223 497.5 196 c 128,-1,52
 513 169 513 169 513 127 c 0,53,54
 513 97 513 97 502 72 c 128,-1,55
 491 47 491 47 471.5 28 c 128,-1,56
 452 9 452 9 425.5 -1.5 c 128,-1,57
 399 -12 399 -12 367 -12 c 0,0,1
EndSplineSet
Validated: 1
Substitution2: "'smcp' Lowercase to Small Capitals lookup 20 subtable" uni1E9E.sc
Substitution2: "'aalt' Access All Alternates lookup 0 subtable" uni1E9E.sc
EndChar

StartChar: uni0167
Encoding: 359 359 400
Width: 312
Flags: W
LayerCount: 2
Fore
SplineSet
28 236 m 1,0,-1
 28 265 l 1,1,-1
 103 269 l 1,2,-1
 103 442 l 1,3,-1
 28 442 l 1,4,-1
 28 476 l 1,5,-1
 104 480 l 1,6,-1
 110 619 l 1,7,-1
 148 619 l 1,8,-1
 148 480 l 1,9,-1
 287 480 l 1,10,-1
 287 442 l 1,11,-1
 148 442 l 1,12,-1
 148 269 l 1,13,-1
 287 269 l 1,14,-1
 287 236 l 1,15,-1
 148 236 l 1,16,-1
 148 129 l 2,17,18
 148 106 148 106 151.5 87.5 c 128,-1,19
 155 69 155 69 164 55.5 c 128,-1,20
 173 42 173 42 188.5 34.5 c 128,-1,21
 204 27 204 27 229 27 c 0,22,23
 243 27 243 27 259.5 31.5 c 128,-1,24
 276 36 276 36 289 42 c 1,25,-1
 301 6 l 1,26,27
 280 -2 280 -2 259 -7 c 128,-1,28
 238 -12 238 -12 223 -12 c 0,29,30
 188 -12 188 -12 165 -1.5 c 128,-1,31
 142 9 142 9 128 28 c 128,-1,32
 114 47 114 47 108.5 74 c 128,-1,33
 103 101 103 101 103 133 c 2,34,-1
 103 236 l 1,35,-1
 28 236 l 1,0,-1
EndSplineSet
Validated: 1
Substitution2: "'smcp' Lowercase to Small Capitals lookup 20 subtable" uni0166.sc
Substitution2: "'aalt' Access All Alternates lookup 0 subtable" uni0166.sc
EndChar

StartChar: uogonek
Encoding: 371 371 417
Width: 529
GlyphClass: 2
Flags: W
AnchorPoint: "Anchor-0" 265 502 basechar 0
LayerCount: 2
Fore
SplineSet
394 -203 m 0,0,1
 359 -203 359 -203 336 -183 c 128,-1,2
 313 -163 313 -163 313 -122 c 0,3,4
 313 -84 313 -84 337 -53 c 128,-1,5
 361 -22 361 -22 400 7 c 1,6,-1
 395 80 l 1,7,-1
 393 80 l 1,8,9
 358 38 358 38 319 13 c 128,-1,10
 280 -12 280 -12 230 -12 c 0,11,12
 155 -12 155 -12 120 33 c 128,-1,13
 85 78 85 78 85 172 c 2,14,-1
 85 480 l 1,15,-1
 129 480 l 1,16,-1
 129 178 l 2,17,18
 129 101 129 101 154 64.5 c 128,-1,19
 179 28 179 28 238 28 c 0,20,21
 281 28 281 28 316 51.5 c 128,-1,22
 351 75 351 75 393 126 c 1,23,-1
 393 480 l 1,24,-1
 437 480 l 1,25,-1
 437 0 l 1,26,27
 395 -26 395 -26 373 -55 c 128,-1,28
 351 -84 351 -84 351 -116 c 0,29,30
 351 -142 351 -142 366 -155 c 128,-1,31
 381 -168 381 -168 400 -168 c 0,32,33
 425 -168 425 -168 443 -154 c 1,34,-1
 459 -180 l 1,35,36
 448 -190 448 -190 429 -196.5 c 128,-1,37
 410 -203 410 -203 394 -203 c 0,0,1
EndSplineSet
Validated: 1
Substitution2: "'smcp' Lowercase to Small Capitals lookup 20 subtable" Uogonek.sc
Ligature2: "'ccmp' Glyph Composition/Decomposition lookup 11 subtable" u uni0328
Substitution2: "'aalt' Access All Alternates lookup 0 subtable" Uogonek.sc
EndChar

StartChar: uhorn
Encoding: 432 432 418
Width: 529
GlyphClass: 2
Flags: W
AnchorPoint: "Anchor-4" 282 -22 basechar 0
AnchorPoint: "Anchor-0" 264 504 basechar 0
LayerCount: 2
Fore
SplineSet
437 457 m 1,0,-1
 437 0 l 1,1,-1
 400 0 l 1,2,-1
 395 80 l 1,3,-1
 393 80 l 1,4,5
 358 38 358 38 319 13 c 128,-1,6
 280 -12 280 -12 230 -12 c 0,7,8
 155 -12 155 -12 120 33 c 128,-1,9
 85 78 85 78 85 172 c 2,10,-1
 85 480 l 1,11,-1
 129 480 l 1,12,-1
 129 178 l 2,13,14
 129 101 129 101 154.5 64.5 c 128,-1,15
 180 28 180 28 238 28 c 0,16,17
 281 28 281 28 316 51.5 c 128,-1,18
 351 75 351 75 393 126 c 1,19,-1
 393 480 l 1,20,-1
 400 480 l 1,21,22
 439 488 439 488 462.5 511 c 128,-1,23
 486 534 486 534 486 579 c 0,24,25
 486 591 486 591 482.5 605 c 128,-1,26
 479 619 479 619 472 632 c 1,27,-1
 509 652 l 1,28,29
 529 618 529 618 529 582 c 0,30,31
 529 552 529 552 520 530.5 c 128,-1,32
 511 509 511 509 497.5 494.5 c 128,-1,33
 484 480 484 480 468 471 c 128,-1,34
 452 462 452 462 437 457 c 1,0,-1
EndSplineSet
Validated: 1
Substitution2: "'smcp' Lowercase to Small Capitals lookup 20 subtable" Uhorn.sc
Substitution2: "'aalt' Access All Alternates lookup 0 subtable" Uhorn.sc
EndChar

StartChar: eth
Encoding: 240 240 441
Width: 535
Flags: W
LayerCount: 2
Fore
SplineSet
267 -12 m 0,0,1
 227 -12 227 -12 189.5 4 c 128,-1,2
 152 20 152 20 123.5 49.5 c 128,-1,3
 95 79 95 79 77.5 122 c 128,-1,4
 60 165 60 165 60 219 c 0,5,6
 60 268 60 268 75 309.5 c 128,-1,7
 90 351 90 351 117.5 380 c 128,-1,8
 145 409 145 409 183 425.5 c 128,-1,9
 221 442 221 442 267 442 c 0,10,11
 310 442 310 442 348 423 c 128,-1,12
 386 404 386 404 415 366 c 1,13,14
 401 440 401 440 371 493 c 128,-1,15
 341 546 341 546 299 588 c 1,16,-1
 157 515 l 1,17,-1
 142 542 l 1,18,-1
 274 610 l 1,19,20
 246 634 246 634 215 654.5 c 128,-1,21
 184 675 184 675 151 694 c 1,22,-1
 173 724 l 1,23,24
 210 704 210 704 244.5 681 c 128,-1,25
 279 658 279 658 311 629 c 1,26,-1
 453 703 l 1,27,-1
 468 676 l 1,28,-1
 334 607 l 1,29,30
 394 546 394 546 432 460 c 128,-1,31
 470 374 470 374 470 252 c 0,32,33
 470 192 470 192 455 143 c 128,-1,34
 440 94 440 94 413.5 59.5 c 128,-1,35
 387 25 387 25 349.5 6.5 c 128,-1,36
 312 -12 312 -12 267 -12 c 0,0,1
267 27 m 0,37,38
 308 27 308 27 337.5 44.5 c 128,-1,39
 367 62 367 62 386.5 92 c 128,-1,40
 406 122 406 122 415.5 163 c 128,-1,41
 425 204 425 204 425 251 c 0,42,43
 425 283 425 283 422 313 c 1,44,45
 403 341 403 341 383.5 359 c 128,-1,46
 364 377 364 377 345 387 c 128,-1,47
 326 397 326 397 307 400.5 c 128,-1,48
 288 404 288 404 269 404 c 0,49,50
 228 404 228 404 197.5 389 c 128,-1,51
 167 374 167 374 146 349 c 128,-1,52
 125 324 125 324 114.5 290 c 128,-1,53
 104 256 104 256 104 219 c 0,54,55
 104 177 104 177 117 141.5 c 128,-1,56
 130 106 130 106 152 80.5 c 128,-1,57
 174 55 174 55 204 41 c 128,-1,58
 234 27 234 27 267 27 c 0,37,38
EndSplineSet
Validated: 1
Substitution2: "'smcp' Lowercase to Small Capitals lookup 20 subtable" Eth.sc
Substitution2: "'aalt' Access All Alternates lookup 0 subtable" Eth.sc
EndChar

StartChar: thorn
Encoding: 254 254 442
Width: 544
GlyphClass: 2
Flags: W
AnchorPoint: "Anchor-4" 278 -22 basechar 0
AnchorPoint: "Anchor-0" 117 730 basechar 0
LayerCount: 2
Fore
SplineSet
92 -217 m 1,0,-1
 92 719 l 1,1,-1
 136 719 l 1,2,-1
 136 421 l 1,3,4
 172 449 172 449 213 470.5 c 128,-1,5
 254 492 254 492 299 492 c 0,6,7
 347 492 347 492 383.5 474.5 c 128,-1,8
 420 457 420 457 444 425 c 128,-1,9
 468 393 468 393 480 348 c 128,-1,10
 492 303 492 303 492 247 c 0,11,12
 492 186 492 186 475 138 c 128,-1,13
 458 90 458 90 428.5 56.5 c 128,-1,14
 399 23 399 23 360.5 5.5 c 128,-1,15
 322 -12 322 -12 280 -12 c 0,16,17
 245 -12 245 -12 209.5 3 c 128,-1,18
 174 18 174 18 136 46 c 1,19,-1
 136 -217 l 1,20,-1
 92 -217 l 1,0,-1
278 27 m 0,21,22
 314 27 314 27 345 43 c 128,-1,23
 376 59 376 59 398 88 c 128,-1,24
 420 117 420 117 432.5 157.5 c 128,-1,25
 445 198 445 198 445 247 c 0,26,27
 445 291 445 291 436.5 329 c 128,-1,28
 428 367 428 367 410 394.5 c 128,-1,29
 392 422 392 422 363 437.5 c 128,-1,30
 334 453 334 453 293 453 c 0,31,32
 257 453 257 453 218.5 432.5 c 128,-1,33
 180 412 180 412 136 374 c 1,34,-1
 136 89 l 1,35,36
 178 55 178 55 214 41 c 128,-1,37
 250 27 250 27 278 27 c 0,21,22
EndSplineSet
Validated: 1
Substitution2: "'smcp' Lowercase to Small Capitals lookup 20 subtable" Thorn.sc
Substitution2: "'aalt' Access All Alternates lookup 0 subtable" Thorn.sc
EndChar

StartChar: uni014B
Encoding: 331 331 443
Width: 532
GlyphClass: 2
Flags: W
AnchorPoint: "Anchor-0" 282 504 basechar 0
LayerCount: 2
Fore
SplineSet
339 -181 m 0,0,1
 322 -181 322 -181 305.5 -177.5 c 128,-1,2
 289 -174 289 -174 278 -169 c 1,3,-1
 288 -133 l 1,4,5
 297 -136 297 -136 310.5 -139 c 128,-1,6
 324 -142 324 -142 338 -142 c 0,7,8
 378 -142 378 -142 390.5 -113 c 128,-1,9
 403 -84 403 -84 403 -38 c 2,10,-1
 403 302 l 2,11,12
 403 379 403 379 377.5 415.5 c 128,-1,13
 352 452 352 452 293 452 c 0,14,15
 250 452 250 452 215 429.5 c 128,-1,16
 180 407 180 407 136 362 c 1,17,-1
 136 0 l 1,18,-1
 92 0 l 1,19,-1
 92 480 l 1,20,-1
 130 480 l 1,21,-1
 134 406 l 1,22,-1
 137 406 l 1,23,24
 174 443 174 443 213 467.5 c 128,-1,25
 252 492 252 492 302 492 c 0,26,27
 377 492 377 492 412 447 c 128,-1,28
 447 402 447 402 447 308 c 2,29,-1
 447 -41 l 2,30,31
 447 -112 447 -112 421.5 -146.5 c 128,-1,32
 396 -181 396 -181 339 -181 c 0,0,1
EndSplineSet
Validated: 1
Substitution2: "'smcp' Lowercase to Small Capitals lookup 20 subtable" uni014A.sc
Substitution2: "'aalt' Access All Alternates lookup 0 subtable" uni014A.sc
EndChar

StartChar: uni0237
Encoding: 567 567 444
Width: 229
GlyphClass: 2
Flags: W
AnchorPoint: "Anchor-0" 115 504 basechar 0
LayerCount: 2
Fore
SplineSet
29 -229 m 0,0,1
 12 -229 12 -229 -5 -225.5 c 128,-1,2
 -22 -222 -22 -222 -33 -217 c 1,3,-1
 -22 -181 l 1,4,5
 -13 -184 -13 -184 0.5 -187.5 c 128,-1,6
 14 -191 14 -191 28 -191 c 0,7,8
 68 -191 68 -191 80 -161.5 c 128,-1,9
 92 -132 92 -132 92 -86 c 2,10,-1
 92 480 l 1,11,-1
 137 480 l 1,12,-1
 137 -89 l 2,13,14
 137 -160 137 -160 111 -194.5 c 128,-1,15
 85 -229 85 -229 29 -229 c 0,0,1
EndSplineSet
Validated: 1
EndChar

StartChar: uni0133
Encoding: 307 307 445
Width: 457
Flags: W
LayerCount: 2
Fore
SplineSet
92 0 m 1,0,-1
 92 480 l 1,1,-1
 136 480 l 1,2,-1
 136 0 l 1,3,-1
 92 0 l 1,0,-1
115 596 m 256,4,5
 98 596 98 596 86.5 607 c 128,-1,6
 75 618 75 618 75 635 c 0,7,8
 75 654 75 654 86.5 664.5 c 128,-1,9
 98 675 98 675 115 675 c 256,10,11
 132 675 132 675 143.5 664.5 c 128,-1,12
 155 654 155 654 155 635 c 0,13,14
 155 618 155 618 143.5 607 c 128,-1,15
 132 596 132 596 115 596 c 256,4,5
258 -229 m 0,16,17
 241 -229 241 -229 224 -225.5 c 128,-1,18
 207 -222 207 -222 196 -217 c 1,19,-1
 207 -181 l 1,20,21
 216 -184 216 -184 229.5 -187.5 c 128,-1,22
 243 -191 243 -191 257 -191 c 0,23,24
 297 -191 297 -191 309 -161.5 c 128,-1,25
 321 -132 321 -132 321 -86 c 2,26,-1
 321 480 l 1,27,-1
 366 480 l 1,28,-1
 366 -89 l 2,29,30
 366 -160 366 -160 340 -194.5 c 128,-1,31
 314 -229 314 -229 258 -229 c 0,16,17
344 596 m 0,32,33
 328 596 328 596 316 607 c 128,-1,34
 304 618 304 618 304 635 c 0,35,36
 304 654 304 654 316 664.5 c 128,-1,37
 328 675 328 675 344 675 c 0,38,39
 361 675 361 675 373 664.5 c 128,-1,40
 385 654 385 654 385 635 c 0,41,42
 385 618 385 618 373 607 c 128,-1,43
 361 596 361 596 344 596 c 0,32,33
EndSplineSet
Validated: 1
Substitution2: "'smcp' Lowercase to Small Capitals lookup 20 subtable" uni0132.sc
Substitution2: "'aalt' Access All Alternates lookup 0 subtable" uni0132.sc
EndChar

StartChar: uni0250
Encoding: 592 592 446
Width: 499
GlyphClass: 2
Flags: W
AnchorPoint: "Anchor-7" 328 0 basechar 0
AnchorPoint: "Anchor-4" 274 -22 basechar 0
AnchorPoint: "Anchor-0" 272 504 basechar 0
LayerCount: 2
Fore
SplineSet
266 -12 m 0,0,1
 215 -12 215 -12 180 3.5 c 128,-1,2
 145 19 145 19 123.5 45.5 c 128,-1,3
 102 72 102 72 93 107.5 c 128,-1,4
 84 143 84 143 84 183 c 2,5,-1
 84 480 l 1,6,-1
 122 480 l 1,7,-1
 127 408 l 1,8,-1
 129 408 l 1,9,10
 167 446 167 446 214 469 c 128,-1,11
 261 492 261 492 310 492 c 0,12,13
 337 492 337 492 360 485 c 128,-1,14
 383 478 383 478 400.5 463 c 128,-1,15
 418 448 418 448 428 425 c 128,-1,16
 438 402 438 402 438 371 c 0,17,18
 438 287 438 287 363.5 242.5 c 128,-1,19
 289 198 289 198 129 179 c 1,20,21
 128 153 128 153 133.5 126.5 c 128,-1,22
 139 100 139 100 155 77.5 c 128,-1,23
 171 55 171 55 198.5 41 c 128,-1,24
 226 27 226 27 270 27 c 0,25,26
 316 27 316 27 353.5 46 c 128,-1,27
 391 65 391 65 414 83 c 1,28,-1
 434 50 l 1,29,30
 422 41 422 41 404.5 30 c 128,-1,31
 387 19 387 19 365.5 10 c 128,-1,32
 344 1 344 1 318.5 -5.5 c 128,-1,33
 293 -12 293 -12 266 -12 c 0,0,1
129 213 m 1,34,35
 203 222 203 222 253.5 236 c 128,-1,36
 304 250 304 250 335 269 c 128,-1,37
 366 288 366 288 379.5 312.5 c 128,-1,38
 393 337 393 337 393 367 c 0,39,40
 393 391 393 391 385.5 407.5 c 128,-1,41
 378 424 378 424 365.5 434.5 c 128,-1,42
 353 445 353 445 336.5 449.5 c 128,-1,43
 320 454 320 454 301 454 c 0,44,45
 261 454 261 454 219 433.5 c 128,-1,46
 177 413 177 413 129 365 c 1,47,-1
 129 213 l 1,34,35
EndSplineSet
Validated: 33
EndChar

StartChar: uni0252
Encoding: 594 594 447
Width: 544
GlyphClass: 2
Flags: W
AnchorPoint: "Anchor-4" 282 -22 basechar 0
AnchorPoint: "Anchor-0" 288 504 basechar 0
LayerCount: 2
Fore
SplineSet
280 -12 m 0,0,1
 246 -12 246 -12 209.5 3.5 c 128,-1,2
 173 19 173 19 136 46 c 1,3,-1
 134 46 l 1,4,-1
 131 0 l 1,5,-1
 92 0 l 1,6,-1
 92 480 l 1,7,-1
 130 480 l 1,8,-1
 134 418 l 1,9,-1
 137 418 l 1,10,11
 172 447 172 447 213.5 469.5 c 128,-1,12
 255 492 255 492 300 492 c 0,13,14
 396 492 396 492 444 425.5 c 128,-1,15
 492 359 492 359 492 247 c 0,16,17
 492 186 492 186 475 138 c 128,-1,18
 458 90 458 90 428.5 56.5 c 128,-1,19
 399 23 399 23 360.5 5.5 c 128,-1,20
 322 -12 322 -12 280 -12 c 0,0,1
278 27 m 0,21,22
 314 27 314 27 345 43 c 128,-1,23
 376 59 376 59 398 88 c 128,-1,24
 420 117 420 117 432.5 157.5 c 128,-1,25
 445 198 445 198 445 247 c 0,26,27
 445 291 445 291 436.5 329 c 128,-1,28
 428 367 428 367 410 394.5 c 128,-1,29
 392 422 392 422 363 437.5 c 128,-1,30
 334 453 334 453 293 453 c 0,31,32
 257 453 257 453 218.5 432.5 c 128,-1,33
 180 412 180 412 136 374 c 1,34,-1
 136 89 l 1,35,36
 178 55 178 55 214 41 c 128,-1,37
 250 27 250 27 278 27 c 0,21,22
EndSplineSet
Validated: 1
EndChar

StartChar: uni0253
Encoding: 595 595 448
Width: 544
GlyphClass: 2
Flags: W
AnchorPoint: "Anchor-4" 278 -22 basechar 0
LayerCount: 2
Fore
SplineSet
280 -12 m 0,0,1
 245 -12 245 -12 207.5 3.5 c 128,-1,2
 170 19 170 19 136 45 c 1,3,-1
 134 45 l 1,4,-1
 129 0 l 1,5,-1
 92 0 l 1,6,-1
 92 558 l 2,7,8
 92 640 92 640 130.5 685.5 c 128,-1,9
 169 731 169 731 240 731 c 0,10,11
 277 731 277 731 312 715 c 1,12,-1
 298 679 l 1,13,14
 270 693 270 693 241 693 c 0,15,16
 186 693 186 693 161.5 655 c 128,-1,17
 137 617 137 617 136 555 c 2,18,-1
 134 415 l 1,19,20
 171 446 171 446 213 468 c 128,-1,21
 255 490 255 490 300 490 c 0,22,23
 396 490 396 490 444 423.5 c 128,-1,24
 492 357 492 357 492 246 c 0,25,26
 492 185 492 185 475 137 c 128,-1,27
 458 89 458 89 428.5 56 c 128,-1,28
 399 23 399 23 360.5 5.5 c 128,-1,29
 322 -12 322 -12 280 -12 c 0,0,1
278 27 m 0,30,31
 314 27 314 27 345 43 c 128,-1,32
 376 59 376 59 398 88 c 128,-1,33
 420 117 420 117 432.5 157.5 c 128,-1,34
 445 198 445 198 445 246 c 0,35,36
 445 290 445 290 436.5 327.5 c 128,-1,37
 428 365 428 365 410 392.5 c 128,-1,38
 392 420 392 420 363 435.5 c 128,-1,39
 334 451 334 451 293 451 c 0,40,41
 257 451 257 451 218 430.5 c 128,-1,42
 179 410 179 410 136 372 c 1,43,-1
 136 89 l 1,44,45
 176 55 176 55 213 41 c 128,-1,46
 250 27 250 27 278 27 c 0,30,31
EndSplineSet
Validated: 1
EndChar

StartChar: uni0254
Encoding: 596 596 449
Width: 449
Flags: W
LayerCount: 2
Fore
SplineSet
179 -12 m 256,0,1
 133 -12 133 -12 95 6 c 128,-1,2
 57 24 57 24 26 51 c 1,3,-1
 48 82 l 1,4,5
 73 59 73 59 106 43 c 128,-1,6
 139 27 139 27 177 27 c 0,7,8
 216 27 216 27 247.5 42.5 c 128,-1,9
 279 58 279 58 302 86 c 128,-1,10
 325 114 325 114 337.5 153 c 128,-1,11
 350 192 350 192 350 239 c 0,12,13
 350 287 350 287 337.5 326.5 c 128,-1,14
 325 366 325 366 302.5 394 c 128,-1,15
 280 422 280 422 250 437.5 c 128,-1,16
 220 453 220 453 186 453 c 0,17,18
 144 453 144 453 116 439 c 128,-1,19
 88 425 88 425 63 402 c 1,20,-1
 37 433 l 1,21,22
 64 457 64 457 99 474.5 c 128,-1,23
 134 492 134 492 190 492 c 0,24,25
 231 492 231 492 268.5 475.5 c 128,-1,26
 306 459 306 459 334.5 426.5 c 128,-1,27
 363 394 363 394 380 347 c 128,-1,28
 397 300 397 300 397 239 c 0,29,30
 397 179 397 179 380 132.5 c 128,-1,31
 363 86 363 86 333.5 54 c 128,-1,32
 304 22 304 22 264.5 5 c 128,-1,33
 225 -12 225 -12 179 -12 c 256,0,1
EndSplineSet
Validated: 1
EndChar

StartChar: uni0255
Encoding: 597 597 450
Width: 449
GlyphClass: 2
Flags: W
AnchorPoint: "Anchor-0" 270 504 basechar 0
LayerCount: 2
Fore
SplineSet
278 26 m 0,0,1
 321 26 321 26 349.5 43 c 128,-1,2
 378 60 378 60 378 87 c 0,3,4
 378 106 378 106 363.5 122.5 c 128,-1,5
 349 139 349 139 317 139 c 0,6,7
 284 139 284 139 248.5 116.5 c 128,-1,8
 213 94 213 94 181 56 c 1,9,10
 225 26 225 26 278 26 c 0,0,1
115 -67 m 1,11,-1
 77 -52 l 1,12,13
 88 -25 88 -25 100.5 0 c 128,-1,14
 113 25 113 25 127 46 c 1,15,16
 92 78 92 78 72 127 c 128,-1,17
 52 176 52 176 52 239 c 0,18,19
 52 299 52 299 70 346.5 c 128,-1,20
 88 394 88 394 118 426 c 128,-1,21
 148 458 148 458 187.5 475 c 128,-1,22
 227 492 227 492 271 492 c 0,23,24
 321 492 321 492 354 474 c 128,-1,25
 387 456 387 456 412 433 c 1,26,-1
 386 403 l 1,27,28
 363 425 363 425 335 439.5 c 128,-1,29
 307 454 307 454 272 454 c 0,30,31
 235 454 235 454 203 438.5 c 128,-1,32
 171 423 171 423 147.5 394.5 c 128,-1,33
 124 366 124 366 110.5 326.5 c 128,-1,34
 97 287 97 287 97 239 c 0,35,36
 97 189 97 189 112 149.5 c 128,-1,37
 127 110 127 110 153 81 c 1,38,39
 189 126 189 126 231.5 150.5 c 128,-1,40
 274 175 274 175 319 175 c 0,41,42
 367 175 367 175 393 150.5 c 128,-1,43
 419 126 419 126 419 89 c 0,44,45
 419 47 419 47 381.5 17.5 c 128,-1,46
 344 -12 344 -12 278 -12 c 256,47,48
 212 -12 212 -12 157 23 c 1,49,50
 131 -18 131 -18 115 -67 c 1,11,-1
EndSplineSet
Validated: 1
EndChar

StartChar: uni0256
Encoding: 598 598 451
Width: 544
Flags: W
LayerCount: 2
Fore
SplineSet
505 -181 m 0,0,1
 455 -181 455 -181 431.5 -150 c 128,-1,2
 408 -119 408 -119 408 -52 c 2,3,-1
 410 63 l 1,4,5
 378 32 378 32 338.5 10 c 128,-1,6
 299 -12 299 -12 251 -12 c 0,7,8
 160 -12 160 -12 106 52.5 c 128,-1,9
 52 117 52 117 52 239 c 0,10,11
 52 297 52 297 69 344 c 128,-1,12
 86 391 86 391 115.5 424 c 128,-1,13
 145 457 145 457 183.5 474.5 c 128,-1,14
 222 492 222 492 265 492 c 0,15,16
 309 492 309 492 341.5 476.5 c 128,-1,17
 374 461 374 461 410 433 c 1,18,-1
 408 521 l 1,19,-1
 408 731 l 1,20,-1
 452 731 l 1,21,-1
 452 -44 l 2,22,23
 452 -89 452 -89 463 -115.5 c 128,-1,24
 474 -142 474 -142 506 -142 c 0,25,26
 518 -142 518 -142 528.5 -139 c 128,-1,27
 539 -136 539 -136 547 -133 c 1,28,-1
 557 -169 l 1,29,30
 549 -174 549 -174 534 -177.5 c 128,-1,31
 519 -181 519 -181 505 -181 c 0,0,1
257 27 m 0,32,33
 297 27 297 27 333.5 47.5 c 128,-1,34
 370 68 370 68 408 106 c 1,35,-1
 408 391 l 1,36,37
 370 425 370 425 336.5 439 c 128,-1,38
 303 453 303 453 268 453 c 0,39,40
 232 453 232 453 201 436.5 c 128,-1,41
 170 420 170 420 147.5 391.5 c 128,-1,42
 125 363 125 363 112 323.5 c 128,-1,43
 99 284 99 284 99 239 c 0,44,45
 99 191 99 191 109.5 152 c 128,-1,46
 120 113 120 113 140 85.5 c 128,-1,47
 160 58 160 58 189.5 42.5 c 128,-1,48
 219 27 219 27 257 27 c 0,32,33
EndSplineSet
Validated: 1
EndChar

StartChar: uni0257
Encoding: 599 599 452
Width: 544
GlyphClass: 2
Flags: W
AnchorPoint: "Anchor-4" 294 -22 basechar 0
LayerCount: 2
Fore
SplineSet
251 -12 m 0,0,1
 160 -12 160 -12 106 52.5 c 128,-1,2
 52 117 52 117 52 239 c 0,3,4
 52 297 52 297 69 344 c 128,-1,5
 86 391 86 391 115.5 424 c 128,-1,6
 145 457 145 457 183.5 474.5 c 128,-1,7
 222 492 222 492 265 492 c 0,8,9
 309 492 309 492 341.5 476.5 c 128,-1,10
 374 461 374 461 410 433 c 1,11,-1
 408 596 l 2,12,13
 408 666 408 666 435.5 699.5 c 128,-1,14
 463 733 463 733 513 733 c 0,15,16
 540 733 540 733 562 723 c 1,17,-1
 552 687 l 1,18,19
 544 690 544 690 534.5 692.5 c 128,-1,20
 525 695 525 695 514 695 c 0,21,22
 479 695 479 695 465.5 666 c 128,-1,23
 452 637 452 637 452 591 c 2,24,-1
 452 0 l 1,25,-1
 414 0 l 1,26,-1
 410 62 l 1,27,-1
 407 62 l 1,28,29
 378 33 378 33 338.5 10.5 c 128,-1,30
 299 -12 299 -12 251 -12 c 0,0,1
257 27 m 0,31,32
 297 27 297 27 333.5 47.5 c 128,-1,33
 370 68 370 68 408 106 c 1,34,-1
 408 391 l 1,35,36
 370 425 370 425 336.5 439 c 128,-1,37
 303 453 303 453 268 453 c 0,38,39
 232 453 232 453 201 436.5 c 128,-1,40
 170 420 170 420 147.5 391.5 c 128,-1,41
 125 363 125 363 112 323.5 c 128,-1,42
 99 284 99 284 99 239 c 0,43,44
 99 191 99 191 109.5 152 c 128,-1,45
 120 113 120 113 140 85.5 c 128,-1,46
 160 58 160 58 189.5 42.5 c 128,-1,47
 219 27 219 27 257 27 c 0,31,32
EndSplineSet
Validated: 1
EndChar

StartChar: uni0258
Encoding: 600 600 453
Width: 483
GlyphClass: 2
Flags: W
AnchorPoint: "Anchor-7" 230 0 basechar 0
AnchorPoint: "Anchor-4" 246 -22 basechar 0
AnchorPoint: "Anchor-0" 234 504 basechar 0
LayerCount: 2
Fore
SplineSet
213 -12 m 0,0,1
 160 -12 160 -12 123 3 c 128,-1,2
 86 18 86 18 58 35 c 1,3,-1
 76 69 l 1,4,5
 103 49 103 49 136.5 37.5 c 128,-1,6
 170 26 170 26 209 26 c 0,7,8
 251 26 251 26 283.5 41.5 c 128,-1,9
 316 57 316 57 338.5 84.5 c 128,-1,10
 361 112 361 112 373 150.5 c 128,-1,11
 385 189 385 189 386 234 c 1,12,-1
 40 234 l 1,13,14
 38 243 38 243 38 252 c 128,-1,15
 38 261 38 261 38 270 c 0,16,17
 38 323 38 323 52.5 364 c 128,-1,18
 67 405 67 405 92.5 433.5 c 128,-1,19
 118 462 118 462 153.5 477 c 128,-1,20
 189 492 189 492 232 492 c 256,21,22
 275 492 275 492 311.5 474.5 c 128,-1,23
 348 457 348 457 374.5 424.5 c 128,-1,24
 401 392 401 392 416 345 c 128,-1,25
 431 298 431 298 431 239 c 256,26,27
 431 180 431 180 414.5 133.5 c 128,-1,28
 398 87 398 87 369 54.5 c 128,-1,29
 340 22 340 22 300 5 c 128,-1,30
 260 -12 260 -12 213 -12 c 0,0,1
79 270 m 1,31,-1
 386 270 l 1,32,33
 378 357 378 357 337.5 405.5 c 128,-1,34
 297 454 297 454 231 454 c 0,35,36
 199 454 199 454 171 442.5 c 128,-1,37
 143 431 143 431 122.5 408 c 128,-1,38
 102 385 102 385 90.5 350.5 c 128,-1,39
 79 316 79 316 79 270 c 1,31,-1
EndSplineSet
Validated: 1
EndChar

StartChar: uni0251
Encoding: 593 593 454
Width: 491
GlyphClass: 2
Flags: W
LayerCount: 2
Fore
SplineSet
205 26 m 0,0,1
 247 26 247 26 285 46 c 128,-1,2
 323 66 323 66 368 104 c 1,3,-1
 368 267 l 1,4,5
 294 258 294 258 243 245 c 128,-1,6
 192 232 192 232 161 214 c 128,-1,7
 130 196 130 196 116.5 173 c 128,-1,8
 103 150 103 150 103 122 c 0,9,10
 103 96 103 96 111 78 c 128,-1,11
 119 60 119 60 133 48.5 c 128,-1,12
 147 37 147 37 165.5 31.5 c 128,-1,13
 184 26 184 26 205 26 c 0,0,1
197 -12 m 0,14,15
 168 -12 168 -12 143 -4 c 128,-1,16
 118 4 118 4 99 20 c 128,-1,17
 80 36 80 36 69 61 c 128,-1,18
 58 86 58 86 58 120 c 0,19,20
 58 200 58 200 132.5 241.5 c 128,-1,21
 207 283 207 283 368 301 c 1,22,23
 368 328 368 328 364 355.5 c 128,-1,24
 360 383 360 383 347 404.5 c 128,-1,25
 334 426 334 426 312 439.5 c 128,-1,26
 290 453 290 453 254 453 c 0,27,28
 206 453 206 453 166 434 c 128,-1,29
 126 415 126 415 101 397 c 1,30,-1
 81 430 l 1,31,32
 94 439 94 439 112.5 450 c 128,-1,33
 131 461 131 461 154 470 c 128,-1,34
 177 479 177 479 204 485.5 c 128,-1,35
 231 492 231 492 260 492 c 0,36,37
 302 492 302 492 331 477.5 c 128,-1,38
 360 463 360 463 378 438 c 128,-1,39
 396 413 396 413 404 379.5 c 128,-1,40
 412 346 412 346 412 307 c 2,41,-1
 412 189 l 1,42,-1
 412 58 l 2,43,44
 412 42 412 42 418 34.5 c 128,-1,45
 424 27 424 27 433 27 c 0,46,47
 436 27 436 27 439.5 27 c 128,-1,48
 443 27 443 27 451 29 c 1,49,-1
 459 -7 l 1,50,51
 452 -9 452 -9 445 -10.5 c 128,-1,52
 438 -12 438 -12 427 -12 c 0,53,54
 369.76824584 -12 369.76824584 -12 369.010175891 62 c 1,55,-1
 367 62 l 1,56,57
 330 33 330 33 287.5 10.5 c 128,-1,58
 245 -12 245 -12 197 -12 c 0,14,15
EndSplineSet
Validated: 1
EndChar

StartChar: uni0259
Encoding: 601 601 456
Width: 483
GlyphClass: 2
Flags: W
AnchorPoint: "Anchor-7" 233 0 basechar 0
AnchorPoint: "Anchor-4" 233 -22 basechar 0
AnchorPoint: "Anchor-0" 235 504 basechar 0
LayerCount: 2
Fore
SplineSet
231 -12 m 0,0,1
 189 -12 189 -12 153.5 3 c 128,-1,2
 118 18 118 18 92.5 47 c 128,-1,3
 67 76 67 76 52.5 119.5 c 128,-1,4
 38 163 38 163 38 219 c 0,5,6
 38 228 38 228 38 238 c 128,-1,7
 38 248 38 248 40 257 c 1,8,-1
 386 257 l 1,9,10
 385 299 385 299 374 335 c 128,-1,11
 363 371 363 371 342 397.5 c 128,-1,12
 321 424 321 424 291 439 c 128,-1,13
 261 454 261 454 222 454 c 0,14,15
 180 454 180 454 147.5 441 c 128,-1,16
 115 428 115 428 86 408 c 1,17,-1
 68 442 l 1,18,19
 98 462 98 462 135.5 477 c 128,-1,20
 173 492 173 492 227 492 c 0,21,22
 271 492 271 492 308.5 475.5 c 128,-1,23
 346 459 346 459 373 426.5 c 128,-1,24
 400 394 400 394 415.5 347.5 c 128,-1,25
 431 301 431 301 431 241 c 0,26,27
 431 182 431 182 416 135 c 128,-1,28
 401 88 401 88 374 55.5 c 128,-1,29
 347 23 347 23 310.5 5.5 c 128,-1,30
 274 -12 274 -12 231 -12 c 0,0,1
230 26 m 0,31,32
 298 26 298 26 338.5 78 c 128,-1,33
 379 130 379 130 386 221 c 1,34,-1
 79 221 l 1,35,36
 79 120 79 120 121.5 73 c 128,-1,37
 164 26 164 26 230 26 c 0,31,32
EndSplineSet
Validated: 1
Substitution2: "'sups' Superscript lookup 26 subtable" uni0259.sups
Substitution2: "'smcp' Lowercase to Small Capitals lookup 20 subtable" uni018F.sc
AlternateSubs2: "'aalt' Access All Alternates lookup 1 subtable" uni018F.sc uni0259.sups
EndChar

StartChar: uni025A
Encoding: 602 602 457
Width: 613
GlyphClass: 2
Flags: W
AnchorPoint: "Anchor-0" 225 504 basechar 0
LayerCount: 2
Fore
SplineSet
242 -12 m 0,0,1
 197 -12 197 -12 161 3.5 c 128,-1,2
 125 19 125 19 99 46 c 128,-1,3
 73 73 73 73 57.5 109 c 128,-1,4
 42 145 42 145 38 186 c 1,5,-1
 378 321 l 1,6,7
 361 388 361 388 318.5 421 c 128,-1,8
 276 454 276 454 222 454 c 0,9,10
 178 454 178 454 147.5 441 c 128,-1,11
 117 428 117 428 88 408 c 1,12,-1
 70 442 l 1,13,14
 99 462 99 462 135 477 c 128,-1,15
 171 492 171 492 225 492 c 0,16,17
 294 492 294 492 346 452.5 c 128,-1,18
 398 413 398 413 420 338 c 1,19,-1
 494 367 l 1,20,-1
 524 355 l 1,21,22
 527 326 527 326 532 309 c 128,-1,23
 537 292 537 292 543.5 283 c 128,-1,24
 550 274 550 274 558.5 271 c 128,-1,25
 567 268 567 268 577 268 c 0,26,27
 588 268 588 268 598 273 c 128,-1,28
 608 278 608 278 615 285 c 1,29,-1
 633 257 l 1,30,31
 622 249 622 249 607.5 241 c 128,-1,32
 593 233 593 233 573 233 c 0,33,34
 547 233 547 233 523 254 c 128,-1,35
 499 275 499 275 491 327 c 1,36,-1
 428 302 l 1,37,38
 430 288 430 288 431.5 272 c 128,-1,39
 433 256 433 256 433 239 c 0,40,41
 433 188 433 188 419.5 142 c 128,-1,42
 406 96 406 96 381.5 62 c 128,-1,43
 357 28 357 28 321.5 8 c 128,-1,44
 286 -12 286 -12 242 -12 c 0,0,1
242 26 m 0,45,46
 276 26 276 26 303.5 43 c 128,-1,47
 331 60 331 60 349.5 89 c 128,-1,48
 368 118 368 118 378 156 c 128,-1,49
 388 194 388 194 388 237 c 0,50,51
 388 262 388 262 385 285 c 1,52,-1
 82 166 l 1,53,54
 93 100 93 100 136 63 c 128,-1,55
 179 26 179 26 242 26 c 0,45,46
EndSplineSet
Validated: 1
EndChar

StartChar: uni025B
Encoding: 603 603 458
Width: 427
GlyphClass: 2
Flags: W
AnchorPoint: "Anchor-4" 247 -22 basechar 0
AnchorPoint: "Anchor-0" 234 504 basechar 0
LayerCount: 2
Fore
SplineSet
238 -12 m 0,0,1
 197 -12 197 -12 163.5 -2 c 128,-1,2
 130 8 130 8 105 27 c 128,-1,3
 80 46 80 46 66.5 72 c 128,-1,4
 53 98 53 98 53 130 c 0,5,6
 53 157 53 157 62.5 177.5 c 128,-1,7
 72 198 72 198 87.5 213 c 128,-1,8
 103 228 103 228 122.5 238 c 128,-1,9
 142 248 142 248 162 253 c 1,10,-1
 162 257 l 1,11,12
 124 272 124 272 102 301.5 c 128,-1,13
 80 331 80 331 80 368 c 0,14,15
 80 399 80 399 93 422 c 128,-1,16
 106 445 106 445 128.5 460.5 c 128,-1,17
 151 476 151 476 180 484 c 128,-1,18
 209 492 209 492 242 492 c 0,19,20
 286 492 286 492 320 478.5 c 128,-1,21
 354 465 354 465 383 442 c 1,22,-1
 362 410 l 1,23,24
 333 430 333 430 304.5 442 c 128,-1,25
 276 454 276 454 241 454 c 0,26,27
 218 454 218 454 197 448.5 c 128,-1,28
 176 443 176 443 160 432 c 128,-1,29
 144 421 144 421 135 404 c 128,-1,30
 126 387 126 387 126 364 c 0,31,32
 126 324 126 324 159 297 c 128,-1,33
 192 270 192 270 264 270 c 2,34,-1
 311 270 l 1,35,-1
 311 234 l 1,36,-1
 250 234 l 2,37,38
 178 234 178 234 138.5 207 c 128,-1,39
 99 180 99 180 99 132 c 0,40,41
 99 83 99 83 139 54.5 c 128,-1,42
 179 26 179 26 244 26 c 0,43,44
 283 26 283 26 315.5 38 c 128,-1,45
 348 50 348 50 383 78 c 1,46,-1
 405 46 l 1,47,48
 365 15 365 15 327 1.5 c 128,-1,49
 289 -12 289 -12 238 -12 c 0,0,1
EndSplineSet
Validated: 1
EndChar

StartChar: uni025C
Encoding: 604 604 459
Width: 444
GlyphClass: 2
Flags: W
AnchorPoint: "Anchor-4" 218 -22 basechar 0
AnchorPoint: "Anchor-0" 214 504 basechar 0
LayerCount: 2
Fore
SplineSet
207 -12 m 0,0,1
 156 -12 156 -12 118 1.5 c 128,-1,2
 80 15 80 15 39 46 c 1,3,-1
 61 78 l 1,4,5
 97 50 97 50 129 38 c 128,-1,6
 161 26 161 26 201 26 c 0,7,8
 266 26 266 26 306 54.5 c 128,-1,9
 346 83 346 83 346 132 c 0,10,11
 346 180 346 180 306 207 c 128,-1,12
 266 234 266 234 194 234 c 2,13,-1
 133 234 l 1,14,-1
 133 270 l 1,15,-1
 180 270 l 2,16,17
 252 270 252 270 285 297 c 128,-1,18
 318 324 318 324 318 364 c 0,19,20
 318 410 318 410 287 432 c 128,-1,21
 256 454 256 454 209 454 c 0,22,23
 174 454 174 454 142.5 442 c 128,-1,24
 111 430 111 430 82 410 c 1,25,-1
 62 442 l 1,26,27
 91 465 91 465 127.5 478.5 c 128,-1,28
 164 492 164 492 209 492 c 0,29,30
 241 492 241 492 269.5 484 c 128,-1,31
 298 476 298 476 319 460.5 c 128,-1,32
 340 445 340 445 352 422 c 128,-1,33
 364 399 364 399 364 368 c 0,34,35
 364 331 364 331 342 301.5 c 128,-1,36
 320 272 320 272 282 257 c 1,37,-1
 282 253 l 1,38,39
 302 248 302 248 321.5 238 c 128,-1,40
 341 228 341 228 356.5 213 c 128,-1,41
 372 198 372 198 381.5 177.5 c 128,-1,42
 391 157 391 157 391 130 c 0,43,44
 391 98 391 98 377.5 72 c 128,-1,45
 364 46 364 46 339.5 27 c 128,-1,46
 315 8 315 8 281 -2 c 128,-1,47
 247 -12 247 -12 207 -12 c 0,0,1
EndSplineSet
Validated: 1
EndChar

StartChar: uni025E
Encoding: 606 606 460
Width: 534
GlyphClass: 2
Flags: W
AnchorPoint: "Anchor-4" 272 -22 basechar 0
AnchorPoint: "Anchor-0" 253 504 basechar 0
LayerCount: 2
Fore
SplineSet
252 -12 m 0,0,1
 207 -12 207 -12 170.5 -2 c 128,-1,2
 134 8 134 8 108 27 c 128,-1,3
 82 46 82 46 67.5 72 c 128,-1,4
 53 98 53 98 53 130 c 0,5,6
 53 157 53 157 62.5 177.5 c 128,-1,7
 72 198 72 198 87.5 213 c 128,-1,8
 103 228 103 228 122.5 238 c 128,-1,9
 142 248 142 248 162 253 c 1,10,-1
 162 257 l 1,11,12
 124 272 124 272 102 301.5 c 128,-1,13
 80 331 80 331 80 368 c 0,14,15
 80 399 80 399 93 422 c 128,-1,16
 106 445 106 445 128.5 460.5 c 128,-1,17
 151 476 151 476 181.5 484 c 128,-1,18
 212 492 212 492 247 492 c 0,19,20
 297 492 297 492 340 476 c 128,-1,21
 383 460 383 460 415 428 c 128,-1,22
 447 396 447 396 465 349 c 128,-1,23
 483 302 483 302 483 239 c 0,24,25
 483 177 483 177 465 130 c 128,-1,26
 447 83 447 83 416 51.5 c 128,-1,27
 385 20 385 20 343 4 c 128,-1,28
 301 -12 301 -12 252 -12 c 0,0,1
254 26 m 0,29,30
 338 26 338 26 387 82 c 128,-1,31
 436 138 436 138 436 239 c 256,32,33
 436 340 436 340 384.5 397 c 128,-1,34
 333 454 333 454 248 454 c 0,35,36
 195 454 195 454 160.5 432 c 128,-1,37
 126 410 126 410 126 364 c 0,38,39
 126 324 126 324 158.5 297 c 128,-1,40
 191 270 191 270 263 270 c 2,41,-1
 288 270 l 1,42,-1
 288 234 l 1,43,-1
 249 234 l 2,44,45
 177 234 177 234 138 207 c 128,-1,46
 99 180 99 180 99 132 c 0,47,48
 99 83 99 83 140.5 54.5 c 128,-1,49
 182 26 182 26 254 26 c 0,29,30
EndSplineSet
Validated: 1
EndChar

StartChar: uni025F
Encoding: 607 607 461
Width: 241
GlyphClass: 2
Flags: W
AnchorPoint: "Anchor-0" 121 504 basechar 0
LayerCount: 2
Fore
SplineSet
35 -229 m 0,0,1
 18 -229 18 -229 1 -225.5 c 128,-1,2
 -16 -222 -16 -222 -27 -217 c 1,3,-1
 -16 -181 l 1,4,5
 -7 -184 -7 -184 6.5 -187.5 c 128,-1,6
 20 -191 20 -191 34 -191 c 0,7,8
 74 -191 74 -191 86 -161.5 c 128,-1,9
 98 -132 98 -132 98 -86 c 2,10,-1
 98 236 l 1,11,-1
 5 236 l 1,12,-1
 5 265 l 1,13,-1
 98 269 l 1,14,-1
 98 480 l 1,15,-1
 143 480 l 1,16,-1
 143 269 l 1,17,-1
 232 269 l 1,18,-1
 232 236 l 1,19,-1
 143 236 l 1,20,-1
 143 -89 l 2,21,22
 143 -160 143 -160 117 -194.5 c 128,-1,23
 91 -229 91 -229 35 -229 c 0,0,1
EndSplineSet
Validated: 1
EndChar

StartChar: uni0260
Encoding: 608 608 462
Width: 545
GlyphClass: 2
Flags: W
AnchorPoint: "Anchor-0" 277 504 basechar 0
LayerCount: 2
Fore
SplineSet
258 -229 m 0,0,1
 210 -229 210 -229 167.5 -215 c 128,-1,2
 125 -201 125 -201 90 -177 c 1,3,-1
 110 -142 l 1,4,5
 146 -168 146 -168 183 -180 c 128,-1,6
 220 -192 220 -192 258 -192 c 0,7,8
 333 -192 333 -192 370.5 -150 c 128,-1,9
 408 -108 408 -108 408 -35 c 2,10,-1
 409 74 l 1,11,12
 380 45 380 45 339.5 22.5 c 128,-1,13
 299 0 299 0 251 0 c 0,14,15
 160 0 160 0 106.5 63.5 c 128,-1,16
 53 127 53 127 53 246 c 0,17,18
 53 303 53 303 70 348.5 c 128,-1,19
 87 394 87 394 116.5 426 c 128,-1,20
 146 458 146 458 184.5 475 c 128,-1,21
 223 492 223 492 266 492 c 256,22,23
 309 492 309 492 341.5 476.5 c 128,-1,24
 374 461 374 461 410 433 c 1,25,-1
 409 479 l 2,26,27
 409 548 409 548 436.5 581.5 c 128,-1,28
 464 615 464 615 514 615 c 0,29,30
 540 615 540 615 563 605 c 1,31,-1
 553 569 l 1,32,33
 545 572 545 572 535.5 574.5 c 128,-1,34
 526 577 526 577 515 577 c 0,35,36
 480 577 480 577 466 547.5 c 128,-1,37
 452 518 452 518 452 473 c 2,38,-1
 452 -42 l 2,39,40
 452 -128 452 -128 402 -178.5 c 128,-1,41
 352 -229 352 -229 258 -229 c 0,0,1
258 39 m 0,42,43
 298 39 298 39 334 59.5 c 128,-1,44
 370 80 370 80 408 118 c 1,45,-1
 408 391 l 1,46,47
 370 425 370 425 336.5 439 c 128,-1,48
 303 453 303 453 268 453 c 0,49,50
 232 453 232 453 201.5 437 c 128,-1,51
 171 421 171 421 148 393.5 c 128,-1,52
 125 366 125 366 112 328 c 128,-1,53
 99 290 99 290 99 246 c 0,54,55
 99 153 99 153 140 96 c 128,-1,56
 181 39 181 39 258 39 c 0,42,43
EndSplineSet
Validated: 1
Substitution2: "'smcp' Lowercase to Small Capitals lookup 20 subtable" uni0193.sc
Substitution2: "'aalt' Access All Alternates lookup 0 subtable" uni0193.sc
EndChar

StartChar: uni0261
Encoding: 609 609 463
Width: 487
GlyphClass: 2
Flags: W
LayerCount: 2
Fore
SplineSet
249 -231 m 0,0,1
 158 -231 158 -231 105 -195 c 128,-1,2
 52 -159 52 -159 52 -98 c 0,3,4
 52 -66 52 -66 71 -36 c 128,-1,5
 90 -6 90 -6 123 18 c 1,6,-1
 123 22 l 1,7,8
 105 33 105 33 93 52 c 128,-1,9
 81 71 81 71 81 99 c 0,10,11
 81 131 81 131 99 153.5 c 128,-1,12
 117 176 117 176 133 187 c 1,13,-1
 133 191 l 1,14,15
 110 211 110 211 91.5 245 c 128,-1,16
 73 279 73 279 73 323 c 0,17,18
 73 360 73 360 86 391 c 128,-1,19
 99 422 99 422 122 444.5 c 128,-1,20
 145 467 145 467 176 479.5 c 128,-1,21
 207 492 207 492 242 492 c 0,22,23
 262 492 262 492 278 488.5 c 128,-1,24
 294 485 294 485 305 480 c 1,25,-1
 468 480 l 1,26,-1
 468 443 l 1,27,-1
 356 443 l 1,28,29
 379 423 379 423 394 391.5 c 128,-1,30
 409 360 409 360 409 322 c 0,31,32
 409 285 409 285 396 254 c 128,-1,33
 383 223 383 223 360.5 200.5 c 128,-1,34
 338 178 338 178 307.5 165.5 c 128,-1,35
 277 153 277 153 242 153 c 0,36,37
 222 153 222 153 200.5 158 c 128,-1,38
 179 163 179 163 162 173 c 1,39,40
 146 160 146 160 134.5 144 c 128,-1,41
 123 128 123 128 123 104 c 0,42,43
 123 78 123 78 142 59.5 c 128,-1,44
 161 41 161 41 215 41 c 2,45,-1
 318 41 l 2,46,47
 399 41 399 41 437.5 14.5 c 128,-1,48
 476 -12 476 -12 476 -69 c 0,49,50
 476 -100 476 -100 460 -129.5 c 128,-1,51
 444 -159 444 -159 414.5 -181.5 c 128,-1,52
 385 -204 385 -204 343 -217.5 c 128,-1,53
 301 -231 301 -231 249 -231 c 0,0,1
242 188 m 256,54,55
 267 188 267 188 289.5 197.5 c 128,-1,56
 312 207 312 207 329 225 c 128,-1,57
 346 243 346 243 356 268 c 128,-1,58
 366 293 366 293 366 323 c 256,59,60
 366 353 366 353 356 378 c 128,-1,61
 346 403 346 403 329.5 420 c 128,-1,62
 313 437 313 437 290 446.5 c 128,-1,63
 267 456 267 456 242 456 c 0,64,65
 216 456 216 456 193.5 446.5 c 128,-1,66
 171 437 171 437 154 420 c 128,-1,67
 137 403 137 403 127 378.5 c 128,-1,68
 117 354 117 354 117 323 c 0,69,70
 117 293 117 293 127 268 c 128,-1,71
 137 243 137 243 154.5 225 c 128,-1,72
 172 207 172 207 194.5 197.5 c 128,-1,73
 217 188 217 188 242 188 c 256,54,55
254 -195 m 0,74,75
 294 -195 294 -195 327 -184.5 c 128,-1,76
 360 -174 360 -174 383 -157 c 128,-1,77
 406 -140 406 -140 418.5 -118.5 c 128,-1,78
 431 -97 431 -97 431 -74 c 0,79,80
 431 -34 431 -34 402.5 -17.5 c 128,-1,81
 374 -1 374 -1 320 -1 c 2,82,-1
 217 -1 l 2,83,84
 209 -1 209 -1 192.5 0.5 c 128,-1,85
 176 2 176 2 157 7 c 1,86,87
 124 -16 124 -16 109 -42 c 128,-1,88
 94 -68 94 -68 94 -94 c 0,89,90
 94 -139 94 -139 135.5 -167 c 128,-1,91
 177 -195 177 -195 254 -195 c 0,74,75
EndSplineSet
Validated: 1
EndChar

StartChar: uni0262
Encoding: 610 610 464
Width: 486
GlyphClass: 2
Flags: W
AnchorPoint: "Anchor-4" 294 -22 basechar 0
AnchorPoint: "Anchor-1" 301 504 basechar 0
LayerCount: 2
Fore
SplineSet
276 -12 m 0,0,1
 227 -12 227 -12 186 5 c 128,-1,2
 145 22 145 22 115 55 c 128,-1,3
 85 88 85 88 68.5 135.5 c 128,-1,4
 52 183 52 183 52 243 c 0,5,6
 52 300 52 300 69 346.5 c 128,-1,7
 86 393 86 393 116.5 425 c 128,-1,8
 147 457 147 457 189 474.5 c 128,-1,9
 231 492 231 492 281 492 c 0,10,11
 335 492 335 492 369.5 473 c 128,-1,12
 404 454 404 454 427 432 c 1,13,-1
 401 402 l 1,14,15
 381 422 381 422 353 438 c 128,-1,16
 325 454 325 454 283 454 c 0,17,18
 242 454 242 454 208 439.5 c 128,-1,19
 174 425 174 425 149 397.5 c 128,-1,20
 124 370 124 370 110 331 c 128,-1,21
 96 292 96 292 96 243 c 0,22,23
 96 141 96 141 146 83.5 c 128,-1,24
 196 26 196 26 280 26 c 0,25,26
 314 26 314 26 343 37.5 c 128,-1,27
 372 49 372 49 390 66 c 1,28,-1
 390 205 l 1,29,-1
 268 205 l 1,30,-1
 268 242 l 1,31,-1
 432 242 l 1,32,-1
 432 47 l 1,33,34
 407 23 407 23 367.5 5.5 c 128,-1,35
 328 -12 328 -12 276 -12 c 0,0,1
EndSplineSet
Validated: 1
EndChar

StartChar: uni0263
Encoding: 611 611 465
Width: 434
GlyphClass: 2
Flags: W
AnchorPoint: "Anchor-4" 218 -22 basechar 0
AnchorPoint: "Anchor-0" 218 504 basechar 0
LayerCount: 2
Fore
SplineSet
218 -231 m 256,0,1
 175 -231 175 -231 154 -204 c 128,-1,2
 133 -177 133 -177 133 -133 c 0,3,4
 133 -99 133 -99 148.5 -60.5 c 128,-1,5
 164 -22 164 -22 189 34 c 1,6,-1
 12 480 l 1,7,-1
 60 480 l 1,8,-1
 168 191 l 2,9,10
 179 157 179 157 192 127.5 c 128,-1,11
 205 98 205 98 216 66 c 1,12,-1
 220 66 l 1,13,14
 232 98 232 98 244.5 127.5 c 128,-1,15
 257 157 257 157 269 191 c 2,16,-1
 377 480 l 1,17,-1
 422 480 l 1,18,-1
 248 34 l 1,19,20
 273 -22 273 -22 288.5 -60.5 c 128,-1,21
 304 -99 304 -99 304 -133 c 0,22,23
 304 -177 304 -177 282.5 -204 c 128,-1,24
 261 -231 261 -231 218 -231 c 256,0,1
218 -195 m 256,25,26
 241 -195 241 -195 251 -178 c 128,-1,27
 261 -161 261 -161 261 -136 c 0,28,29
 261 -106 261 -106 249.5 -69 c 128,-1,30
 238 -32 238 -32 220 3 c 1,31,-1
 216 3 l 1,32,33
 199 -32 199 -32 187.5 -70 c 128,-1,34
 176 -108 176 -108 176 -136 c 0,35,36
 176 -161 176 -161 185.5 -178 c 128,-1,37
 195 -195 195 -195 218 -195 c 256,25,26
EndSplineSet
Validated: 1
EndChar

StartChar: uni0264
Encoding: 612 612 466
Width: 477
Flags: W
LayerCount: 2
Fore
SplineSet
238 -12 m 0,0,1
 157 -12 157 -12 118 31 c 128,-1,2
 79 74 79 74 79 147 c 0,3,4
 79 177 79 177 89 207 c 128,-1,5
 99 237 99 237 116.5 265.5 c 128,-1,6
 134 294 134 294 157.5 321 c 128,-1,7
 181 348 181 348 207 373 c 1,8,9
 175 410 175 410 143.5 431.5 c 128,-1,10
 112 453 112 453 80 453 c 0,11,12
 51 453 51 453 33 439 c 1,13,-1
 16 472 l 1,14,15
 45 492 45 492 85 492 c 0,16,17
 126 492 126 492 164.5 465.5 c 128,-1,18
 203 439 203 439 238 400 c 1,19,20
 273 439 273 439 311.5 465.5 c 128,-1,21
 350 492 350 492 391 492 c 256,22,23
 432 492 432 492 461 472 c 1,24,-1
 444 439 l 1,25,26
 434 447 434 447 422 450 c 128,-1,27
 410 453 410 453 397 453 c 0,28,29
 364 453 364 453 332.5 431.5 c 128,-1,30
 301 410 301 410 270 373 c 1,31,32
 295 348 295 348 318.5 321 c 128,-1,33
 342 294 342 294 359.5 265.5 c 128,-1,34
 377 237 377 237 387.5 207 c 128,-1,35
 398 177 398 177 398 147 c 0,36,37
 398 74 398 74 359 31 c 128,-1,38
 320 -12 320 -12 238 -12 c 0,0,1
238 27 m 0,39,40
 268 27 268 27 289.5 36.5 c 128,-1,41
 311 46 311 46 325 62.5 c 128,-1,42
 339 79 339 79 346 101 c 128,-1,43
 353 123 353 123 353 148 c 0,44,45
 353 175 353 175 344 201 c 128,-1,46
 335 227 335 227 319 252.5 c 128,-1,47
 303 278 303 278 282.5 302.5 c 128,-1,48
 262 327 262 327 238 349 c 1,49,50
 215 327 215 327 194 302.5 c 128,-1,51
 173 278 173 278 157.5 252.5 c 128,-1,52
 142 227 142 227 133 201 c 128,-1,53
 124 175 124 175 124 148 c 0,54,55
 124 123 124 123 131 101 c 128,-1,56
 138 79 138 79 152 62.5 c 128,-1,57
 166 46 166 46 187.5 36.5 c 128,-1,58
 209 27 209 27 238 27 c 0,39,40
EndSplineSet
Validated: 1
EndChar

StartChar: uni0265
Encoding: 613 613 467
Width: 532
GlyphClass: 2
Flags: W
AnchorPoint: "Anchor-4" 283 -22 basechar 0
AnchorPoint: "Anchor-0" 265 504 basechar 0
LayerCount: 2
Fore
SplineSet
395 -217 m 1,0,-1
 395 -30 l 1,1,-1
 398 83 l 1,2,3
 359 38 359 38 319.5 13 c 128,-1,4
 280 -12 280 -12 230 -12 c 0,5,6
 155 -12 155 -12 120 33 c 128,-1,7
 85 78 85 78 85 172 c 2,8,-1
 85 480 l 1,9,-1
 129 480 l 1,10,-1
 129 178 l 2,11,12
 129 101 129 101 154.5 64.5 c 128,-1,13
 180 28 180 28 238 28 c 0,14,15
 259 28 259 28 278 33.5 c 128,-1,16
 297 39 297 39 316 51 c 128,-1,17
 335 63 335 63 354 81.5 c 128,-1,18
 373 100 373 100 395 126 c 1,19,-1
 395 480 l 1,20,-1
 439 480 l 1,21,-1
 439 -217 l 1,22,-1
 395 -217 l 1,0,-1
EndSplineSet
Validated: 1
EndChar

StartChar: uni0266
Encoding: 614 614 468
Width: 528
GlyphClass: 2
Flags: W
AnchorPoint: "Anchor-4" 282 -22 basechar 0
LayerCount: 2
Fore
SplineSet
92 0 m 1,0,-1
 92 558 l 2,1,2
 92 640 92 640 130.5 685.5 c 128,-1,3
 169 731 169 731 240 731 c 0,4,5
 277 731 277 731 312 715 c 1,6,-1
 298 679 l 1,7,8
 270 693 270 693 241 693 c 0,9,10
 186 693 186 693 161.5 655 c 128,-1,11
 137 617 137 617 136 555 c 2,12,-1
 136 403 l 1,13,14
 174 441 174 441 213 465.5 c 128,-1,15
 252 490 252 490 302 490 c 0,16,17
 377 490 377 490 412 445 c 128,-1,18
 447 400 447 400 447 306 c 2,19,-1
 447 0 l 1,20,-1
 403 0 l 1,21,-1
 403 300 l 2,22,23
 403 377 403 377 377.5 413.5 c 128,-1,24
 352 450 352 450 293 450 c 0,25,26
 250 450 250 450 215 427.5 c 128,-1,27
 180 405 180 405 136 360 c 1,28,-1
 136 0 l 1,29,-1
 92 0 l 1,0,-1
EndSplineSet
Validated: 1
EndChar

StartChar: uni0267
Encoding: 615 615 469
Width: 528
Flags: W
LayerCount: 2
Fore
SplineSet
339 -181 m 0,0,1
 322 -181 322 -181 305.5 -177.5 c 128,-1,2
 289 -174 289 -174 278 -169 c 1,3,-1
 288 -133 l 1,4,5
 297 -136 297 -136 310.5 -139 c 128,-1,6
 324 -142 324 -142 338 -142 c 0,7,8
 378 -142 378 -142 390.5 -113 c 128,-1,9
 403 -84 403 -84 403 -38 c 2,10,-1
 403 300 l 2,11,12
 403 377 403 377 377.5 413.5 c 128,-1,13
 352 450 352 450 293 450 c 0,14,15
 250 450 250 450 215 427.5 c 128,-1,16
 180 405 180 405 136 360 c 1,17,-1
 136 0 l 1,18,-1
 92 0 l 1,19,-1
 92 558 l 2,20,21
 92 640 92 640 130.5 685.5 c 128,-1,22
 169 731 169 731 240 731 c 0,23,24
 277 731 277 731 312 715 c 1,25,-1
 298 679 l 1,26,27
 270 693 270 693 241 693 c 0,28,29
 186 693 186 693 161.5 655 c 128,-1,30
 137 617 137 617 136 555 c 2,31,-1
 136 403 l 1,32,33
 174 441 174 441 213 465.5 c 128,-1,34
 252 490 252 490 302 490 c 0,35,36
 377 490 377 490 412 445 c 128,-1,37
 447 400 447 400 447 306 c 2,38,-1
 447 -41 l 2,39,40
 447 -112 447 -112 421.5 -146.5 c 128,-1,41
 396 -181 396 -181 339 -181 c 0,0,1
EndSplineSet
Validated: 1
EndChar

StartChar: uni029C
Encoding: 668 668 470
Width: 550
Flags: W
LayerCount: 2
Fore
SplineSet
92 0 m 1,0,-1
 92 480 l 1,1,-1
 136 480 l 1,2,-1
 136 272 l 1,3,-1
 414 272 l 1,4,-1
 414 480 l 1,5,-1
 458 480 l 1,6,-1
 458 0 l 1,7,-1
 414 0 l 1,8,-1
 414 232 l 1,9,-1
 136 232 l 1,10,-1
 136 0 l 1,11,-1
 92 0 l 1,0,-1
EndSplineSet
Validated: 1
EndChar

StartChar: uni0268
Encoding: 616 616 471
Width: 241
Flags: W
LayerCount: 2
Fore
SplineSet
5 236 m 1,0,-1
 5 265 l 1,1,-1
 98 269 l 1,2,-1
 98 480 l 1,3,-1
 142 480 l 1,4,-1
 142 269 l 1,5,-1
 232 269 l 1,6,-1
 232 236 l 1,7,-1
 142 236 l 1,8,-1
 142 0 l 1,9,-1
 98 0 l 1,10,-1
 98 236 l 1,11,-1
 5 236 l 1,0,-1
121 596 m 256,12,13
 104 596 104 596 92.5 607 c 128,-1,14
 81 618 81 618 81 635 c 0,15,16
 81 654 81 654 92.5 664.5 c 128,-1,17
 104 675 104 675 121 675 c 256,18,19
 138 675 138 675 149.5 664.5 c 128,-1,20
 161 654 161 654 161 635 c 0,21,22
 161 618 161 618 149.5 607 c 128,-1,23
 138 596 138 596 121 596 c 256,12,13
EndSplineSet
Validated: 1
EndChar

StartChar: uni026A
Encoding: 618 618 472
Width: 310
GlyphClass: 2
Flags: W
AnchorPoint: "Anchor-8" 131 0 basechar 0
AnchorPoint: "Anchor-4" 156 -22 basechar 0
AnchorPoint: "Anchor-0" 156 504 basechar 0
LayerCount: 2
Fore
SplineSet
43 0 m 1,0,-1
 43 39 l 1,1,-1
 133 39 l 1,2,-1
 133 442 l 1,3,-1
 43 442 l 1,4,-1
 43 480 l 1,5,-1
 267 480 l 1,6,-1
 267 442 l 1,7,-1
 177 442 l 1,8,-1
 177 39 l 1,9,-1
 267 39 l 1,10,-1
 267 0 l 1,11,-1
 43 0 l 1,0,-1
EndSplineSet
Validated: 1
EndChar

StartChar: uni029D
Encoding: 669 669 473
Width: 239
Flags: W
LayerCount: 2
Fore
SplineSet
206 -284 m 1,0,1
 183 -248 183 -248 162 -218 c 128,-1,2
 141 -188 141 -188 121 -165 c 1,3,4
 104 -196 104 -196 74.5 -212.5 c 128,-1,5
 45 -229 45 -229 2 -229 c 0,6,7
 -22 -229 -22 -229 -41.5 -221.5 c 128,-1,8
 -61 -214 -61 -214 -74.5 -201.5 c 128,-1,9
 -88 -189 -88 -189 -95.5 -173 c 128,-1,10
 -103 -157 -103 -157 -103 -139 c 0,11,12
 -103 -104 -103 -104 -77 -82 c 128,-1,13
 -51 -60 -51 -60 0 -60 c 0,14,15
 50 -60 50 -60 99 -95 c 1,16,17
 102 -74 102 -74 102 -52 c 2,18,-1
 102 480 l 1,19,-1
 147 480 l 1,20,-1
 147 -44 l 2,21,22
 147 -92 147 -92 137 -126 c 1,23,24
 163 -152 163 -152 188.5 -187.5 c 128,-1,25
 214 -223 214 -223 240 -266 c 1,26,-1
 206 -284 l 1,0,1
3 -191 m 0,27,28
 38 -191 38 -191 58 -175 c 128,-1,29
 78 -159 78 -159 89 -134 c 1,30,31
 45 -96 45 -96 0 -96 c 0,32,33
 -32 -96 -32 -96 -46.5 -109 c 128,-1,34
 -61 -122 -61 -122 -61 -141 c 0,35,36
 -61 -163 -61 -163 -42.5 -177 c 128,-1,37
 -24 -191 -24 -191 3 -191 c 0,27,28
125 596 m 0,38,39
 109 596 109 596 97 607 c 128,-1,40
 85 618 85 618 85 635 c 0,41,42
 85 654 85 654 97 664.5 c 128,-1,43
 109 675 109 675 125 675 c 0,44,45
 142 675 142 675 154 664.5 c 128,-1,46
 166 654 166 654 166 635 c 0,47,48
 166 618 166 618 154 607 c 128,-1,49
 142 596 142 596 125 596 c 0,38,39
EndSplineSet
Validated: 1
EndChar

StartChar: uni026C
Encoding: 620 620 474
Width: 258
Flags: W
LayerCount: 2
Fore
SplineSet
112 334 m 2,0,1
 53 334 53 334 25 356 c 128,-1,2
 -3 378 -3 378 -3 412 c 0,3,4
 -3 441 -3 441 16 460.5 c 128,-1,5
 35 480 35 480 67 480 c 0,6,7
 87 480 87 480 100.5 473 c 128,-1,8
 114 466 114 466 123 455 c 1,9,-1
 123 719 l 1,10,-1
 167 719 l 1,11,-1
 167 367 l 1,12,-1
 257 367 l 1,13,-1
 257 334 l 1,14,-1
 167 334 l 1,15,-1
 167 58 l 2,16,17
 167 42 167 42 173 34.5 c 128,-1,18
 179 27 179 27 188 27 c 0,19,20
 191 27 191 27 194.5 27 c 128,-1,21
 198 27 198 27 206 29 c 1,22,-1
 214 -7 l 1,23,24
 207 -9 207 -9 200 -10.5 c 128,-1,25
 193 -12 193 -12 182 -12 c 0,26,27
 123 -12 123 -12 123 64 c 2,28,-1
 123 334 l 1,29,-1
 112 334 l 2,0,1
105 367 m 2,30,-1
 123 367 l 1,31,-1
 123 376 l 2,32,33
 123 389 123 389 120.5 402 c 128,-1,34
 118 415 118 415 112 425 c 128,-1,35
 106 435 106 435 96.5 441 c 128,-1,36
 87 447 87 447 72 447 c 0,37,38
 52 447 52 447 43.5 436 c 128,-1,39
 35 425 35 425 35 410 c 0,40,41
 35 393 35 393 51.5 380 c 128,-1,42
 68 367 68 367 105 367 c 2,30,-1
EndSplineSet
Validated: 1
EndChar

StartChar: uni026D
Encoding: 621 621 475
Width: 237
Flags: W
LayerCount: 2
Fore
SplineSet
190 -181 m 0,0,1
 139 -181 139 -181 115.5 -148.5 c 128,-1,2
 92 -116 92 -116 92 -47 c 2,3,-1
 92 719 l 1,4,-1
 136 719 l 1,5,-1
 136 -44 l 2,6,7
 136 -89 136 -89 147.5 -115.5 c 128,-1,8
 159 -142 159 -142 191 -142 c 0,9,10
 202 -142 202 -142 212.5 -139 c 128,-1,11
 223 -136 223 -136 231 -133 c 1,12,-1
 241 -169 l 1,13,14
 233 -174 233 -174 218.5 -177.5 c 128,-1,15
 204 -181 204 -181 190 -181 c 0,0,1
EndSplineSet
Validated: 1
EndChar

StartChar: uni026E
Encoding: 622 622 476
Width: 540
Flags: W
LayerCount: 2
Fore
SplineSet
329 -229 m 0,0,1
 293 -229 293 -229 264 -222.5 c 128,-1,2
 235 -216 235 -216 212 -205 c 128,-1,3
 189 -194 189 -194 171 -181 c 128,-1,4
 153 -168 153 -168 138 -154 c 1,5,-1
 164 -123 l 1,6,7
 177 -136 177 -136 193 -148 c 128,-1,8
 209 -160 209 -160 228.5 -169.5 c 128,-1,9
 248 -179 248 -179 272.5 -184.5 c 128,-1,10
 297 -190 297 -190 328 -190 c 0,11,12
 358 -190 358 -190 385 -177.5 c 128,-1,13
 412 -165 412 -165 432.5 -142.5 c 128,-1,14
 453 -120 453 -120 465 -88.5 c 128,-1,15
 477 -57 477 -57 477 -18 c 0,16,17
 477 54 477 54 437.5 96 c 128,-1,18
 398 138 398 138 321 138 c 0,19,20
 299 138 299 138 285.5 132.5 c 128,-1,21
 272 127 272 127 255 119 c 1,22,-1
 231 150 l 1,23,-1
 446 442 l 1,24,-1
 136 442 l 1,25,-1
 136 0 l 1,26,-1
 92 0 l 1,27,-1
 92 719 l 1,28,-1
 136 719 l 1,29,-1
 136 480 l 1,30,-1
 503 480 l 1,31,-1
 503 457 l 1,32,-1
 291 169 l 1,33,34
 344 179 344 179 387 169 c 128,-1,35
 430 159 430 159 460 134 c 128,-1,36
 490 109 490 109 506.5 70.5 c 128,-1,37
 523 32 523 32 523 -15 c 0,38,39
 523 -67 523 -67 506.5 -107 c 128,-1,40
 490 -147 490 -147 463 -174 c 128,-1,41
 436 -201 436 -201 401 -215 c 128,-1,42
 366 -229 366 -229 329 -229 c 0,0,1
EndSplineSet
Validated: 33
EndChar

StartChar: uni029F
Encoding: 671 671 477
Width: 399
GlyphClass: 2
Flags: W
AnchorPoint: "Anchor-4" 252 -22 basechar 0
AnchorPoint: "Anchor-1" 121 562 basechar 0
LayerCount: 2
Fore
SplineSet
92 0 m 1,0,-1
 92 480 l 1,1,-1
 136 480 l 1,2,-1
 136 39 l 1,3,-1
 373 39 l 1,4,-1
 373 0 l 1,5,-1
 92 0 l 1,0,-1
EndSplineSet
Validated: 1
EndChar

StartChar: uni026F
Encoding: 623 623 478
Width: 812
GlyphClass: 2
Flags: W
AnchorPoint: "Anchor-4" 417 -22 basechar 0
AnchorPoint: "Anchor-0" 408 504 basechar 0
LayerCount: 2
Fore
SplineSet
229 -12 m 0,0,1
 85 -12 85 -12 85 172 c 2,2,-1
 85 480 l 1,3,-1
 129 480 l 1,4,-1
 129 178 l 2,5,6
 129 101 129 101 155 64.5 c 128,-1,7
 181 28 181 28 237 28 c 0,8,9
 271 28 271 28 306 50.5 c 128,-1,10
 341 73 341 73 381 118 c 1,11,-1
 381 480 l 1,12,-1
 425 480 l 1,13,-1
 425 178 l 2,14,15
 425 101 425 101 451 64.5 c 128,-1,16
 477 28 477 28 532 28 c 0,17,18
 596 28 596 28 676 118 c 1,19,-1
 676 480 l 1,20,-1
 720 480 l 1,21,-1
 720 0 l 1,22,-1
 683 0 l 1,23,-1
 678 75 l 1,24,-1
 676 75 l 1,25,26
 643 38 643 38 604 13 c 128,-1,27
 565 -12 565 -12 524 -12 c 0,28,29
 466 -12 466 -12 435.5 14.5 c 128,-1,30
 405 41 405 41 392 86 c 1,31,32
 350 41 350 41 310.5 14.5 c 128,-1,33
 271 -12 271 -12 229 -12 c 0,0,1
EndSplineSet
Validated: 1
EndChar

StartChar: uni0270
Encoding: 624 624 479
Width: 812
GlyphClass: 2
Flags: W
AnchorPoint: "Anchor-4" 417 -22 basechar 0
AnchorPoint: "Anchor-0" 408 504 basechar 0
LayerCount: 2
Fore
SplineSet
676 -217 m 1,0,-1
 676 -32 l 1,1,-1
 679 78 l 1,2,3
 643 36 643 36 603.5 12 c 128,-1,4
 564 -12 564 -12 524 -12 c 0,5,6
 466 -12 466 -12 435.5 14.5 c 128,-1,7
 405 41 405 41 392 86 c 1,8,9
 350 41 350 41 310.5 14.5 c 128,-1,10
 271 -12 271 -12 229 -12 c 0,11,12
 85 -12 85 -12 85 172 c 2,13,-1
 85 480 l 1,14,-1
 129 480 l 1,15,-1
 129 178 l 2,16,17
 129 101 129 101 155 64.5 c 128,-1,18
 181 28 181 28 237 28 c 0,19,20
 271 28 271 28 306 50.5 c 128,-1,21
 341 73 341 73 381 118 c 1,22,-1
 381 480 l 1,23,-1
 425 480 l 1,24,-1
 425 178 l 2,25,26
 425 101 425 101 451 64.5 c 128,-1,27
 477 28 477 28 532 28 c 0,28,29
 596 28 596 28 676 118 c 1,30,-1
 676 480 l 1,31,-1
 720 480 l 1,32,-1
 720 -217 l 1,33,-1
 676 -217 l 1,0,-1
EndSplineSet
Validated: 1
EndChar

StartChar: uni0271
Encoding: 625 625 480
Width: 812
GlyphClass: 2
Flags: W
AnchorPoint: "Anchor-0" 408 504 basechar 0
LayerCount: 2
Fore
SplineSet
621 -181 m 0,0,1
 604 -181 604 -181 587.5 -177.5 c 128,-1,2
 571 -174 571 -174 560 -169 c 1,3,-1
 571 -133 l 1,4,5
 579 -136 579 -136 592.5 -139 c 128,-1,6
 606 -142 606 -142 620 -142 c 0,7,8
 640 -142 640 -142 652.5 -134.5 c 128,-1,9
 665 -127 665 -127 671.5 -113 c 128,-1,10
 678 -99 678 -99 680.5 -80 c 128,-1,11
 683 -61 683 -61 683 -38 c 2,12,-1
 683 302 l 2,13,14
 683 379 683 379 657 415.5 c 128,-1,15
 631 452 631 452 576 452 c 0,16,17
 511 452 511 452 432 362 c 1,18,-1
 432 0 l 1,19,-1
 388 0 l 1,20,-1
 388 302 l 2,21,22
 388 379 388 379 362 415.5 c 128,-1,23
 336 452 336 452 280 452 c 0,24,25
 215 452 215 452 136 362 c 1,26,-1
 136 0 l 1,27,-1
 92 0 l 1,28,-1
 92 480 l 1,29,-1
 130 480 l 1,30,-1
 134 406 l 1,31,-1
 137 406 l 1,32,33
 169 443 169 443 208.5 467.5 c 128,-1,34
 248 492 248 492 288 492 c 0,35,36
 346 492 346 492 377 465.5 c 128,-1,37
 408 439 408 439 421 394 c 1,38,39
 463 439 463 439 502.5 465.5 c 128,-1,40
 542 492 542 492 584 492 c 0,41,42
 728 492 728 492 728 308 c 2,43,-1
 728 -41 l 2,44,45
 728 -112 728 -112 702.5 -146.5 c 128,-1,46
 677 -181 677 -181 621 -181 c 0,0,1
EndSplineSet
Validated: 1
EndChar

StartChar: uni0272
Encoding: 626 626 481
Width: 532
GlyphClass: 2
Flags: W
AnchorPoint: "Anchor-0" 282 504 basechar 0
LayerCount: 2
Fore
SplineSet
39 -181 m 0,0,1
 25 -181 25 -181 10 -177.5 c 128,-1,2
 -5 -174 -5 -174 -13 -169 c 1,3,-1
 -3 -133 l 1,4,5
 5 -136 5 -136 16 -139 c 128,-1,6
 27 -142 27 -142 38 -142 c 0,7,8
 70 -142 70 -142 81 -115.5 c 128,-1,9
 92 -89 92 -89 92 -44 c 2,10,-1
 92 480 l 1,11,-1
 133 480 l 1,12,-1
 134 406 l 1,13,-1
 137 406 l 1,14,15
 174 443 174 443 213 467.5 c 128,-1,16
 252 492 252 492 302 492 c 0,17,18
 377 492 377 492 412 447 c 128,-1,19
 447 402 447 402 447 308 c 2,20,-1
 447 0 l 1,21,-1
 403 0 l 1,22,-1
 403 302 l 2,23,24
 403 379 403 379 377.5 415.5 c 128,-1,25
 352 452 352 452 293 452 c 0,26,27
 250 452 250 452 215 429.5 c 128,-1,28
 180 407 180 407 136 362 c 1,29,-1
 136 -47 l 2,30,31
 136 -116 136 -116 113 -148.5 c 128,-1,32
 90 -181 90 -181 39 -181 c 0,0,1
EndSplineSet
Validated: 1
EndChar

StartChar: uni0273
Encoding: 627 627 482
Width: 532
GlyphClass: 2
Flags: W
AnchorPoint: "Anchor-0" 282 504 basechar 0
LayerCount: 2
Fore
SplineSet
500 -181 m 0,0,1
 449 -181 449 -181 426 -148.5 c 128,-1,2
 403 -116 403 -116 403 -47 c 2,3,-1
 403 302 l 2,4,5
 403 379 403 379 377.5 415.5 c 128,-1,6
 352 452 352 452 293 452 c 0,7,8
 250 452 250 452 215 429.5 c 128,-1,9
 180 407 180 407 136 362 c 1,10,-1
 136 0 l 1,11,-1
 92 0 l 1,12,-1
 92 480 l 1,13,-1
 130 480 l 1,14,-1
 134 406 l 1,15,-1
 137 406 l 1,16,17
 174 443 174 443 213 467.5 c 128,-1,18
 252 492 252 492 302 492 c 0,19,20
 377 492 377 492 412 447 c 128,-1,21
 447 402 447 402 447 308 c 2,22,-1
 447 -44 l 2,23,24
 447 -89 447 -89 458 -115.5 c 128,-1,25
 469 -142 469 -142 501 -142 c 0,26,27
 513 -142 513 -142 523.5 -139 c 128,-1,28
 534 -136 534 -136 542 -133 c 1,29,-1
 552 -169 l 1,30,31
 544 -174 544 -174 529 -177.5 c 128,-1,32
 514 -181 514 -181 500 -181 c 0,0,1
EndSplineSet
Validated: 1
EndChar

StartChar: uni0274
Encoding: 628 628 483
Width: 532
GlyphClass: 2
Flags: W
AnchorPoint: "Anchor-0" 268 504 basechar 0
LayerCount: 2
Fore
SplineSet
92 0 m 1,0,-1
 92 480 l 1,1,-1
 136 480 l 1,2,-1
 336 167 l 2,3,4
 350 144 350 144 367 115 c 128,-1,5
 384 86 384 86 398 63 c 1,6,-1
 402 63 l 1,7,8
 400 111 400 111 398.5 156 c 128,-1,9
 397 201 397 201 397 240 c 2,10,-1
 397 480 l 1,11,-1
 440 480 l 1,12,-1
 440 0 l 1,13,-1
 397 0 l 1,14,-1
 196 314 l 2,15,16
 182 336 182 336 165 365.5 c 128,-1,17
 148 395 148 395 134 418 c 1,18,-1
 130 418 l 1,19,20
 132 370 132 370 133.5 325 c 128,-1,21
 135 280 135 280 135 240 c 2,22,-1
 135 0 l 1,23,-1
 92 0 l 1,0,-1
EndSplineSet
Validated: 1
EndChar

StartChar: uni0275
Encoding: 629 629 484
Width: 535
GlyphClass: 2
Flags: W
AnchorPoint: "Anchor-0" 267 504 basechar 0
LayerCount: 2
Fore
SplineSet
267 -12 m 256,0,1
 223 -12 223 -12 184 4 c 128,-1,2
 145 20 145 20 115.5 51.5 c 128,-1,3
 86 83 86 83 69 130 c 128,-1,4
 52 177 52 177 52 239 c 0,5,6
 52 302 52 302 69 349 c 128,-1,7
 86 396 86 396 115.5 428 c 128,-1,8
 145 460 145 460 184 476 c 128,-1,9
 223 492 223 492 267 492 c 256,10,11
 311 492 311 492 350.5 476 c 128,-1,12
 390 460 390 460 419.5 428 c 128,-1,13
 449 396 449 396 466 349 c 128,-1,14
 483 302 483 302 483 239 c 0,15,16
 483 177 483 177 466 130 c 128,-1,17
 449 83 449 83 419.5 51.5 c 128,-1,18
 390 20 390 20 350.5 4 c 128,-1,19
 311 -12 311 -12 267 -12 c 256,0,1
267 454 m 0,20,21
 233 454 233 454 203.5 441.5 c 128,-1,22
 174 429 174 429 151.5 405 c 128,-1,23
 129 381 129 381 114.5 347 c 128,-1,24
 100 313 100 313 96 270 c 1,25,-1
 439 270 l 1,26,27
 431 357 431 357 383.5 405.5 c 128,-1,28
 336 454 336 454 267 454 c 0,20,21
267 26 m 256,29,30
 304 26 304 26 336 40.5 c 128,-1,31
 368 55 368 55 391 82 c 128,-1,32
 414 109 414 109 427 147.5 c 128,-1,33
 440 186 440 186 440 234 c 1,34,-1
 95 234 l 1,35,36
 96 185 96 185 109 146.5 c 128,-1,37
 122 108 122 108 145 81 c 128,-1,38
 168 54 168 54 199 40 c 128,-1,39
 230 26 230 26 267 26 c 256,29,30
EndSplineSet
Validated: 1
EndChar

StartChar: uni0276
Encoding: 630 630 485
Width: 684
GlyphClass: 2
Flags: W
AnchorPoint: "Anchor-4" 429 -22 basechar 0
AnchorPoint: "Anchor-0" 415 504 basechar 0
LayerCount: 2
Fore
SplineSet
285 -12 m 0,0,1
 235 -12 235 -12 192 4.5 c 128,-1,2
 149 21 149 21 118 53.5 c 128,-1,3
 87 86 87 86 69.5 133 c 128,-1,4
 52 180 52 180 52 241 c 256,5,6
 52 302 52 302 69.5 348.5 c 128,-1,7
 87 395 87 395 118 427 c 128,-1,8
 149 459 149 459 192 475.5 c 128,-1,9
 235 492 235 492 285 492 c 0,10,11
 307 492 307 492 330 490 c 128,-1,12
 353 488 353 488 380 480 c 1,13,-1
 657 480 l 1,14,-1
 657 443 l 1,15,-1
 414 443 l 1,16,-1
 414 270 l 1,17,-1
 616 270 l 1,18,-1
 616 234 l 1,19,-1
 414 234 l 1,20,-1
 414 37 l 1,21,-1
 667 37 l 1,22,-1
 667 0 l 1,23,-1
 380 0 l 1,24,25
 353 -8 353 -8 330 -10 c 128,-1,26
 307 -12 307 -12 285 -12 c 0,0,1
288 27 m 0,27,28
 306 27 306 27 327.5 31.5 c 128,-1,29
 349 36 349 36 368 42 c 1,30,-1
 368 439 l 1,31,32
 349 444 349 444 327.5 448.5 c 128,-1,33
 306 453 306 453 288 453 c 0,34,35
 247 453 247 453 213 439.5 c 128,-1,36
 179 426 179 426 153.5 399 c 128,-1,37
 128 372 128 372 114 332.5 c 128,-1,38
 100 293 100 293 100 241 c 0,39,40
 100 188 100 188 114 148 c 128,-1,41
 128 108 128 108 153.5 81 c 128,-1,42
 179 54 179 54 213 40.5 c 128,-1,43
 247 27 247 27 288 27 c 0,27,28
EndSplineSet
Validated: 1
EndChar

StartChar: uni0278
Encoding: 632 632 486
Width: 647
Flags: W
LayerCount: 2
Fore
SplineSet
98 241 m 256,0,1
 98 193 98 193 114.5 153.5 c 128,-1,2
 131 114 131 114 159 86.5 c 128,-1,3
 187 59 187 59 224 43 c 128,-1,4
 261 27 261 27 302 26 c 1,5,-1
 302 454 l 1,6,7
 261 453 261 453 224 437.5 c 128,-1,8
 187 422 187 422 159 394.5 c 128,-1,9
 131 367 131 367 114.5 328 c 128,-1,10
 98 289 98 289 98 241 c 256,0,1
548 241 m 256,11,12
 548 289 548 289 532.5 328 c 128,-1,13
 517 367 517 367 490 394.5 c 128,-1,14
 463 422 463 422 425.5 437.5 c 128,-1,15
 388 453 388 453 345 454 c 1,16,-1
 345 26 l 1,17,18
 386 27 386 27 423 43 c 128,-1,19
 460 59 460 59 487.5 86.5 c 128,-1,20
 515 114 515 114 531.5 153.5 c 128,-1,21
 548 193 548 193 548 241 c 256,11,12
302 -217 m 1,22,-1
 302 -10 l 1,23,24
 254 -9 254 -9 209 8 c 128,-1,25
 164 25 164 25 129 57 c 128,-1,26
 94 89 94 89 73 135.5 c 128,-1,27
 52 182 52 182 52 241 c 256,28,29
 52 300 52 300 73 346 c 128,-1,30
 94 392 94 392 129 423.5 c 128,-1,31
 164 455 164 455 209 472 c 128,-1,32
 254 489 254 489 302 490 c 1,33,-1
 302 719 l 1,34,-1
 345 719 l 1,35,-1
 345 490 l 1,36,37
 395 489 395 489 440 472 c 128,-1,38
 485 455 485 455 519.5 423.5 c 128,-1,39
 554 392 554 392 574.5 346 c 128,-1,40
 595 300 595 300 595 241 c 256,41,42
 595 182 595 182 574 135.5 c 128,-1,43
 553 89 553 89 518 57 c 128,-1,44
 483 25 483 25 438 8 c 128,-1,45
 393 -9 393 -9 345 -10 c 1,46,-1
 345 -217 l 1,47,-1
 302 -217 l 1,22,-1
EndSplineSet
Validated: 1
EndChar

StartChar: uni0279
Encoding: 633 633 487
Width: 317
GlyphClass: 2
Flags: W
AnchorPoint: "Anchor-4" 18 -22 basechar 0
AnchorPoint: "Anchor-0" 193 504 basechar 0
LayerCount: 2
Fore
SplineSet
44 -12 m 0,0,1
 31 -12 31 -12 19.5 -10 c 128,-1,2
 8 -8 8 -8 -4 -2 c 1,3,-1
 6 38 l 1,4,5
 19 33 19 33 27.5 31.5 c 128,-1,6
 36 30 36 30 50 30 c 0,7,8
 82 30 82 30 117.5 57.5 c 128,-1,9
 153 85 153 85 181 154 c 1,10,-1
 181 480 l 1,11,-1
 225 480 l 1,12,-1
 225 0 l 1,13,-1
 188 0 l 1,14,-1
 183 90 l 1,15,-1
 181 90 l 1,16,17
 156 45 156 45 121.5 16.5 c 128,-1,18
 87 -12 87 -12 44 -12 c 0,0,1
EndSplineSet
Validated: 1
EndChar

StartChar: uni027A
Encoding: 634 634 488
Width: 317
GlyphClass: 2
Flags: W
AnchorPoint: "Anchor-4" 18 -22 basechar 0
AnchorPoint: "Anchor-0" 103 504 basechar 0
LayerCount: 2
Fore
SplineSet
44 -12 m 0,0,1
 31 -12 31 -12 19.5 -10 c 128,-1,2
 8 -8 8 -8 -4 -2 c 1,3,-1
 6 38 l 1,4,5
 19 33 19 33 27.5 31.5 c 128,-1,6
 36 30 36 30 50 30 c 0,7,8
 82 30 82 30 117.5 57.5 c 128,-1,9
 153 85 153 85 181 154 c 1,10,-1
 181 719 l 1,11,-1
 225 719 l 1,12,-1
 225 0 l 1,13,-1
 188 0 l 1,14,-1
 183 90 l 1,15,-1
 181 90 l 1,16,17
 156 45 156 45 121.5 16.5 c 128,-1,18
 87 -12 87 -12 44 -12 c 0,0,1
EndSplineSet
Validated: 1
EndChar

StartChar: uni027B
Encoding: 635 635 489
Width: 317
GlyphClass: 2
Flags: W
AnchorPoint: "Anchor-4" 18 -22 basechar 0
AnchorPoint: "Anchor-0" 193 504 basechar 0
LayerCount: 2
Fore
SplineSet
278 -181 m 0,0,1
 228 -181 228 -181 205.5 -149.5 c 128,-1,2
 183 -118 183 -118 183 -50 c 2,3,-1
 183 90 l 1,4,-1
 181 90 l 1,5,6
 156 45 156 45 121.5 16.5 c 128,-1,7
 87 -12 87 -12 44 -12 c 0,8,9
 31 -12 31 -12 19.5 -10 c 128,-1,10
 8 -8 8 -8 -4 -2 c 1,11,-1
 6 38 l 1,12,13
 19 33 19 33 27.5 31.5 c 128,-1,14
 36 30 36 30 50 30 c 0,15,16
 82 30 82 30 117.5 57.5 c 128,-1,17
 153 85 153 85 181 154 c 1,18,-1
 181 480 l 1,19,-1
 225 480 l 1,20,-1
 225 -44 l 2,21,22
 225 -89 225 -89 236 -115.5 c 128,-1,23
 247 -142 247 -142 279 -142 c 0,24,25
 291 -142 291 -142 301.5 -139 c 128,-1,26
 312 -136 312 -136 320 -133 c 1,27,-1
 330 -169 l 1,28,29
 322 -174 322 -174 307 -177.5 c 128,-1,30
 292 -181 292 -181 278 -181 c 0,0,1
EndSplineSet
Validated: 1
EndChar

StartChar: uni027D
Encoding: 637 637 490
Width: 317
GlyphClass: 2
Flags: W
AnchorPoint: "Anchor-4" 113 -22 basechar 0
AnchorPoint: "Anchor-0" 199 504 basechar 0
LayerCount: 2
Fore
SplineSet
190 -181 m 0,0,1
 139 -181 139 -181 115.5 -148.5 c 128,-1,2
 92 -116 92 -116 92 -47 c 2,3,-1
 92 480 l 1,4,-1
 130 480 l 1,5,-1
 134 391 l 1,6,-1
 137 391 l 1,7,8
 161 436 161 436 195.5 464 c 128,-1,9
 230 492 230 492 273 492 c 0,10,11
 287 492 287 492 298 490 c 128,-1,12
 309 488 309 488 321 482 c 1,13,-1
 311 442 l 1,14,15
 299 447 299 447 290 448.5 c 128,-1,16
 281 450 281 450 267 450 c 0,17,18
 235 450 235 450 199.5 422.5 c 128,-1,19
 164 395 164 395 136 327 c 1,20,-1
 136 -44 l 2,21,22
 136 -89 136 -89 147.5 -115.5 c 128,-1,23
 159 -142 159 -142 191 -142 c 0,24,25
 202 -142 202 -142 212.5 -139 c 128,-1,26
 223 -136 223 -136 231 -133 c 1,27,-1
 241 -169 l 1,28,29
 233 -174 233 -174 218.5 -177.5 c 128,-1,30
 204 -181 204 -181 190 -181 c 0,0,1
EndSplineSet
Validated: 1
EndChar

StartChar: uni027E
Encoding: 638 638 491
Width: 306
Flags: W
LayerCount: 2
Fore
SplineSet
92 0 m 1,0,-1
 92 320 l 2,1,2
 92 363 92 363 103.5 395.5 c 128,-1,3
 115 428 115 428 135 449.5 c 128,-1,4
 155 471 155 471 182 481.5 c 128,-1,5
 209 492 209 492 240 492 c 0,6,7
 283 492 283 492 310 478 c 1,8,-1
 300 440 l 1,9,10
 286 448 286 448 272.5 450 c 128,-1,11
 259 452 259 452 241 452 c 0,12,13
 196 452 196 452 166 415.5 c 128,-1,14
 136 379 136 379 136 312 c 2,15,-1
 136 0 l 1,16,-1
 92 0 l 1,0,-1
EndSplineSet
Validated: 1
EndChar

StartChar: uni0280
Encoding: 640 640 492
Width: 474
GlyphClass: 2
Flags: W
AnchorPoint: "Anchor-4" 272 -22 basechar 0
AnchorPoint: "Anchor-1" 250 504 basechar 0
LayerCount: 2
Fore
SplineSet
92 0 m 1,0,-1
 92 480 l 1,1,-1
 245 480 l 2,2,3
 282 480 282 480 314 473 c 128,-1,4
 346 466 346 466 368.5 450.5 c 128,-1,5
 391 435 391 435 404 409.5 c 128,-1,6
 417 384 417 384 417 348 c 0,7,8
 417 286 417 286 381 253 c 128,-1,9
 345 220 345 220 292 212 c 1,10,-1
 432 0 l 1,11,-1
 382 0 l 1,12,-1
 248 209 l 1,13,-1
 136 209 l 1,14,-1
 136 0 l 1,15,-1
 92 0 l 1,0,-1
136 246 m 1,16,-1
 234 246 l 2,17,18
 298 246 298 246 334.5 271 c 128,-1,19
 371 296 371 296 371 347 c 256,20,21
 371 398 371 398 334.5 420.5 c 128,-1,22
 298 443 298 443 234 443 c 2,23,-1
 136 443 l 1,24,-1
 136 246 l 1,16,-1
EndSplineSet
Validated: 1
EndChar

StartChar: uni0281
Encoding: 641 641 493
Width: 474
Flags: W
LayerCount: 2
Fore
SplineSet
229 0 m 2,0,1
 191 0 191 0 159.5 7.5 c 128,-1,2
 128 15 128 15 105.5 31 c 128,-1,3
 83 47 83 47 70 72.5 c 128,-1,4
 57 98 57 98 57 134 c 0,5,6
 57 196 57 196 93 229.5 c 128,-1,7
 129 263 129 263 182 271 c 1,8,-1
 42 480 l 1,9,-1
 92 480 l 1,10,-1
 226 274 l 1,11,-1
 338 274 l 1,12,-1
 338 480 l 1,13,-1
 382 480 l 1,14,-1
 382 0 l 1,15,-1
 229 0 l 2,0,1
240 38 m 2,16,-1
 338 38 l 1,17,-1
 338 238 l 1,18,-1
 240 238 l 2,19,20
 176 238 176 238 139.5 212 c 128,-1,21
 103 186 103 186 103 135 c 256,22,23
 103 84 103 84 139.5 61 c 128,-1,24
 176 38 176 38 240 38 c 2,16,-1
EndSplineSet
Validated: 1
EndChar

StartChar: uni0282
Encoding: 642 642 494
Width: 405
GlyphClass: 2
Flags: W
AnchorPoint: "Anchor-0" 210 504 basechar 0
LayerCount: 2
Fore
SplineSet
208 -12 m 0,0,1
 170 -12 170 -12 136.5 -3.5 c 128,-1,2
 103 5 103 5 74 19 c 1,3,-1
 74 -38 l 2,4,5
 74 -61 74 -61 76.5 -80 c 128,-1,6
 79 -99 79 -99 86 -113 c 128,-1,7
 93 -127 93 -127 106 -135 c 128,-1,8
 119 -143 119 -143 139 -143 c 0,9,10
 153 -143 153 -143 166.5 -139.5 c 128,-1,11
 180 -136 180 -136 189 -133 c 1,12,-1
 200 -169 l 1,13,14
 189 -174 189 -174 172 -177.5 c 128,-1,15
 155 -181 155 -181 138 -181 c 0,16,17
 83 -181 83 -181 57.5 -146.5 c 128,-1,18
 32 -112 32 -112 32 -41 c 2,19,-1
 32 45 l 1,20,-1
 58 77 l 1,21,22
 89 55 89 55 124 40.5 c 128,-1,23
 159 26 159 26 211 26 c 0,24,25
 268 26 268 26 296.5 54.5 c 128,-1,26
 325 83 325 83 325 121 c 0,27,28
 325 143 325 143 314.5 160 c 128,-1,29
 304 177 304 177 287 189 c 128,-1,30
 270 201 270 201 249.5 210 c 128,-1,31
 229 219 229 219 208 227 c 0,32,33
 181 237 181 237 153.5 248 c 128,-1,34
 126 259 126 259 104 274.5 c 128,-1,35
 82 290 82 290 68.5 311.5 c 128,-1,36
 55 333 55 333 55 364 c 0,37,38
 55 390 55 390 65 413.5 c 128,-1,39
 75 437 75 437 95 454.5 c 128,-1,40
 115 472 115 472 143.5 482 c 128,-1,41
 172 492 172 492 210 492 c 256,42,43
 248 492 248 492 284.5 478 c 128,-1,44
 321 464 321 464 347 442 c 1,45,-1
 323 411 l 1,46,47
 299 429 299 429 272 441.5 c 128,-1,48
 245 454 245 454 208 454 c 0,49,50
 180 454 180 454 160 446.5 c 128,-1,51
 140 439 140 439 126.5 427 c 128,-1,52
 113 415 113 415 106.5 399 c 128,-1,53
 100 383 100 383 100 367 c 0,54,55
 100 346 100 346 109.5 331.5 c 128,-1,56
 119 317 119 317 135 306 c 128,-1,57
 151 295 151 295 171.5 286.5 c 128,-1,58
 192 278 192 278 213 270 c 0,59,60
 241 259 241 259 269 248 c 128,-1,61
 297 237 297 237 319.5 221 c 128,-1,62
 342 205 342 205 356 181.5 c 128,-1,63
 370 158 370 158 370 123 c 0,64,65
 370 96 370 96 359.5 71.5 c 128,-1,66
 349 47 349 47 328 28.5 c 128,-1,67
 307 10 307 10 277 -1 c 128,-1,68
 247 -12 247 -12 208 -12 c 0,0,1
EndSplineSet
Validated: 1
EndChar

StartChar: uni0283
Encoding: 643 643 495
Width: 229
Flags: W
LayerCount: 2
Fore
SplineSet
29 -229 m 0,0,1
 12 -229 12 -229 -5 -225.5 c 128,-1,2
 -22 -222 -22 -222 -33 -217 c 1,3,-1
 -22 -181 l 1,4,5
 -13 -184 -13 -184 0.5 -187.5 c 128,-1,6
 14 -191 14 -191 28 -191 c 0,7,8
 68 -191 68 -191 80 -161.5 c 128,-1,9
 92 -132 92 -132 92 -86 c 2,10,-1
 92 593 l 2,11,12
 92 664 92 664 120.5 698.5 c 128,-1,13
 149 733 149 733 210 733 c 0,14,15
 224 733 224 733 238 729.5 c 128,-1,16
 252 726 252 726 262 721 c 1,17,-1
 251 685 l 1,18,19
 243 688 243 688 232.5 691.5 c 128,-1,20
 222 695 222 695 211 695 c 0,21,22
 188 695 188 695 173.5 687 c 128,-1,23
 159 679 159 679 151 665 c 128,-1,24
 143 651 143 651 140 632 c 128,-1,25
 137 613 137 613 137 590 c 2,26,-1
 137 -89 l 2,27,28
 137 -160 137 -160 111 -194.5 c 128,-1,29
 85 -229 85 -229 29 -229 c 0,0,1
EndSplineSet
Validated: 1
EndChar

StartChar: uni0284
Encoding: 644 644 496
Width: 241
Flags: W
LayerCount: 2
Fore
SplineSet
35 -229 m 0,0,1
 18 -229 18 -229 1 -225.5 c 128,-1,2
 -16 -222 -16 -222 -27 -217 c 1,3,-1
 -16 -181 l 1,4,5
 -7 -184 -7 -184 6.5 -187.5 c 128,-1,6
 20 -191 20 -191 34 -191 c 0,7,8
 74 -191 74 -191 86 -161.5 c 128,-1,9
 98 -132 98 -132 98 -86 c 2,10,-1
 98 236 l 1,11,-1
 5 236 l 1,12,-1
 5 265 l 1,13,-1
 98 269 l 1,14,-1
 98 593 l 2,15,16
 98 664 98 664 126.5 698.5 c 128,-1,17
 155 733 155 733 216 733 c 0,18,19
 230 733 230 733 244 729.5 c 128,-1,20
 258 726 258 726 268 721 c 1,21,-1
 257 685 l 1,22,23
 249 688 249 688 238.5 691.5 c 128,-1,24
 228 695 228 695 217 695 c 0,25,26
 194 695 194 695 179.5 687 c 128,-1,27
 165 679 165 679 157 665 c 128,-1,28
 149 651 149 651 146 632 c 128,-1,29
 143 613 143 613 143 590 c 2,30,-1
 143 269 l 1,31,-1
 232 269 l 1,32,-1
 232 236 l 1,33,-1
 143 236 l 1,34,-1
 143 -89 l 2,35,36
 143 -160 143 -160 117 -194.5 c 128,-1,37
 91 -229 91 -229 35 -229 c 0,0,1
EndSplineSet
Validated: 1
EndChar

StartChar: uni0288
Encoding: 648 648 497
Width: 312
GlyphClass: 2
Flags: W
AnchorPoint: "Anchor-0" 129 633 basechar 0
LayerCount: 2
Fore
SplineSet
223 -183 m 0,0,1
 188 -183 188 -183 165 -172.5 c 128,-1,2
 142 -162 142 -162 128 -143 c 128,-1,3
 114 -124 114 -124 108.5 -97 c 128,-1,4
 103 -70 103 -70 103 -38 c 2,5,-1
 103 442 l 1,6,-1
 28 442 l 1,7,-1
 28 476 l 1,8,-1
 104 480 l 1,9,-1
 110 619 l 1,10,-1
 148 619 l 1,11,-1
 148 480 l 1,12,-1
 287 480 l 1,13,-1
 287 442 l 1,14,-1
 148 442 l 1,15,-1
 148 -41 l 2,16,17
 148 -64 148 -64 151.5 -83 c 128,-1,18
 155 -102 155 -102 164 -115.5 c 128,-1,19
 173 -129 173 -129 188.5 -136.5 c 128,-1,20
 204 -144 204 -144 229 -144 c 0,21,22
 243 -144 243 -144 259.5 -139 c 128,-1,23
 276 -134 276 -134 289 -129 c 1,24,-1
 301 -165 l 1,25,26
 280 -172 280 -172 259 -177.5 c 128,-1,27
 238 -183 238 -183 223 -183 c 0,0,1
EndSplineSet
Validated: 1
EndChar

StartChar: uni0289
Encoding: 649 649 498
Width: 549
GlyphClass: 2
Flags: W
AnchorPoint: "Anchor-0" 279 504 basechar 0
LayerCount: 2
Fore
SplineSet
5 259 m 1,0,-1
 5 288 l 1,1,-1
 99 292 l 1,2,-1
 99 480 l 1,3,-1
 143 480 l 1,4,-1
 143 292 l 1,5,-1
 407 292 l 1,6,-1
 407 480 l 1,7,-1
 451 480 l 1,8,-1
 451 292 l 1,9,-1
 540 292 l 1,10,-1
 540 259 l 1,11,-1
 451 259 l 1,12,-1
 451 0 l 1,13,-1
 414 0 l 1,14,-1
 409 80 l 1,15,-1
 407 80 l 1,16,17
 372 38 372 38 333 13 c 128,-1,18
 294 -12 294 -12 244 -12 c 0,19,20
 169 -12 169 -12 134 33 c 128,-1,21
 99 78 99 78 99 172 c 2,22,-1
 99 259 l 1,23,-1
 5 259 l 1,0,-1
252 28 m 0,24,25
 295 28 295 28 330 51.5 c 128,-1,26
 365 75 365 75 407 126 c 1,27,-1
 407 259 l 1,28,-1
 143 259 l 1,29,-1
 143 178 l 2,30,31
 143 101 143 101 168.5 64.5 c 128,-1,32
 194 28 194 28 252 28 c 0,24,25
EndSplineSet
Validated: 1
EndChar

StartChar: uni028A
Encoding: 650 650 499
Width: 532
GlyphClass: 2
Flags: W
AnchorPoint: "Anchor-4" 266 -22 basechar 0
AnchorPoint: "Anchor-0" 266 504 basechar 0
LayerCount: 2
Fore
SplineSet
266 -12 m 0,0,1
 215 -12 215 -12 175.5 6.5 c 128,-1,2
 136 25 136 25 109 56.5 c 128,-1,3
 82 88 82 88 68 129 c 128,-1,4
 54 170 54 170 54 214 c 0,5,6
 54 255 54 255 62.5 289.5 c 128,-1,7
 71 324 71 324 84.5 352.5 c 128,-1,8
 98 381 98 381 115 402.5 c 128,-1,9
 132 424 132 424 149 440 c 1,10,-1
 149 442 l 1,11,-1
 42 442 l 1,12,-1
 42 480 l 1,13,-1
 211 480 l 1,14,-1
 211 451 l 1,15,16
 163 418 163 418 131.5 361 c 128,-1,17
 100 304 100 304 100 223 c 0,18,19
 100 184 100 184 110.5 148.5 c 128,-1,20
 121 113 121 113 142 86 c 128,-1,21
 163 59 163 59 194 43 c 128,-1,22
 225 27 225 27 266 27 c 0,23,24
 306 27 306 27 337 43 c 128,-1,25
 368 59 368 59 389 86 c 128,-1,26
 410 113 410 113 421 148.5 c 128,-1,27
 432 184 432 184 432 223 c 0,28,29
 432 304 432 304 400.5 361 c 128,-1,30
 369 418 369 418 321 451 c 1,31,-1
 321 480 l 1,32,-1
 489 480 l 1,33,-1
 489 442 l 1,34,-1
 383 442 l 1,35,-1
 383 440 l 1,36,37
 400 424 400 424 417 402.5 c 128,-1,38
 434 381 434 381 447.5 352.5 c 128,-1,39
 461 324 461 324 469.5 289.5 c 128,-1,40
 478 255 478 255 478 214 c 0,41,42
 478 170 478 170 463.5 129 c 128,-1,43
 449 88 449 88 422 56.5 c 128,-1,44
 395 25 395 25 355.5 6.5 c 128,-1,45
 316 -12 316 -12 266 -12 c 0,0,1
EndSplineSet
Validated: 1
EndChar

StartChar: uni028B
Encoding: 651 651 500
Width: 517
GlyphClass: 2
Flags: W
AnchorPoint: "Anchor-4" 277 -22 basechar 0
AnchorPoint: "Anchor-0" 261 504 basechar 0
LayerCount: 2
Fore
SplineSet
255 -12 m 0,0,1
 220 -12 220 -12 189 -0.5 c 128,-1,2
 158 11 158 11 135 36 c 128,-1,3
 112 61 112 61 98.5 100 c 128,-1,4
 85 139 85 139 85 194 c 2,5,-1
 85 480 l 1,6,-1
 129 480 l 1,7,-1
 129 203 l 2,8,9
 129 155 129 155 139.5 121.5 c 128,-1,10
 150 88 150 88 167 67 c 128,-1,11
 184 46 184 46 207 36.5 c 128,-1,12
 230 27 230 27 256 27 c 0,13,14
 294 27 294 27 323 46.5 c 128,-1,15
 352 66 352 66 372 99 c 128,-1,16
 392 132 392 132 402.5 177 c 128,-1,17
 413 222 413 222 413 273 c 0,18,19
 413 360 413 360 390 407 c 128,-1,20
 367 454 367 454 319 454 c 0,21,22
 302 454 302 454 285 446 c 1,23,-1
 274 484 l 1,24,25
 297 492 297 492 326 492 c 0,26,27
 391 492 391 492 425.5 440 c 128,-1,28
 460 388 460 388 460 279 c 0,29,30
 460 218 460 218 447 165 c 128,-1,31
 434 112 434 112 408 72.5 c 128,-1,32
 382 33 382 33 343.5 10.5 c 128,-1,33
 305 -12 305 -12 255 -12 c 0,0,1
EndSplineSet
Validated: 1
EndChar

StartChar: uni028C
Encoding: 652 652 501
Width: 434
GlyphClass: 2
Flags: W
AnchorPoint: "Anchor-4" 218 -22 basechar 0
AnchorPoint: "Anchor-0" 218 504 basechar 0
LayerCount: 2
Fore
SplineSet
12 0 m 1,0,-1
 190 480 l 1,1,-1
 242 480 l 1,2,-1
 422 0 l 1,3,-1
 374 0 l 1,4,-1
 266 301 l 2,5,6
 255 336 255 336 242 371.5 c 128,-1,7
 229 407 229 407 218 439 c 1,8,-1
 214 439 l 1,9,10
 202 407 202 407 189.5 371.5 c 128,-1,11
 177 336 177 336 165 301 c 2,12,-1
 57 0 l 1,13,-1
 12 0 l 1,0,-1
EndSplineSet
Validated: 1
EndChar

StartChar: uni028D
Encoding: 653 653 502
Width: 685
GlyphClass: 2
Flags: W
AnchorPoint: "Anchor-4" 342 -22 basechar 0
AnchorPoint: "Anchor-0" 342 504 basechar 0
LayerCount: 2
Fore
SplineSet
24 0 m 1,0,-1
 161 480 l 1,1,-1
 219 480 l 1,2,-1
 304 182 l 2,3,4
 314 147 314 147 322 113.5 c 128,-1,5
 330 80 330 80 340 45 c 1,6,-1
 344 45 l 1,7,8
 353 80 353 80 362 114.5 c 128,-1,9
 371 149 371 149 383 184 c 2,10,-1
 465 480 l 1,11,-1
 519 480 l 1,12,-1
 661 0 l 1,13,-1
 613 0 l 1,14,-1
 526 311 l 2,15,16
 518 344 518 344 510 375.5 c 128,-1,17
 502 407 502 407 494 439 c 1,18,-1
 490 439 l 1,19,20
 481 407 481 407 472.5 375.5 c 128,-1,21
 464 344 464 344 455 311 c 2,22,-1
 367 0 l 1,23,-1
 315 0 l 1,24,-1
 227 311 l 2,25,26
 218 344 218 344 209.5 375.5 c 128,-1,27
 201 407 201 407 192 439 c 1,28,-1
 188 439 l 1,29,30
 179 407 179 407 170.5 375.5 c 128,-1,31
 162 344 162 344 153 311 c 2,32,-1
 69 0 l 1,33,-1
 24 0 l 1,0,-1
EndSplineSet
Validated: 1
EndChar

StartChar: uni028E
Encoding: 654 654 503
Width: 436
GlyphClass: 2
Flags: W
AnchorPoint: "Anchor-4" 225 -22 basechar 0
AnchorPoint: "Anchor-0" 229 504 basechar 0
LayerCount: 2
Fore
SplineSet
12 0 m 1,0,-1
 213 573 l 2,1,2
 223 603 223 603 237.5 631.5 c 128,-1,3
 252 660 252 660 272 682 c 128,-1,4
 292 704 292 704 317.5 717.5 c 128,-1,5
 343 731 343 731 375 731 c 0,6,7
 402 731 402 731 424 721 c 1,8,-1
 414 683 l 1,9,10
 406 686 406 686 395.5 688.5 c 128,-1,11
 385 691 385 691 374 691 c 0,12,13
 330 691 330 691 300 655 c 128,-1,14
 270 619 270 619 251 564 c 2,15,-1
 227 489 l 1,16,-1
 424 0 l 1,17,-1
 376 0 l 1,18,-1
 260 302 l 2,19,20
 248 332 248 332 234.5 368.5 c 128,-1,21
 221 405 221 405 208 437 c 1,22,-1
 204 437 l 1,23,24
 193 405 193 405 181.5 369 c 128,-1,25
 170 333 170 333 159 302 c 2,26,-1
 57 0 l 1,27,-1
 12 0 l 1,0,-1
EndSplineSet
Validated: 1
EndChar

StartChar: uni028F
Encoding: 655 655 504
Width: 385
GlyphClass: 2
Flags: W
AnchorPoint: "Anchor-4" 192 -22 basechar 0
AnchorPoint: "Anchor-0" 193 504 basechar 0
LayerCount: 2
Fore
SplineSet
171 0 m 1,0,-1
 171 173 l 1,1,-1
 3 480 l 1,2,-1
 51 480 l 1,3,-1
 132 325 l 2,4,5
 146 296 146 296 161 270 c 128,-1,6
 176 244 176 244 192 216 c 1,7,-1
 196 216 l 1,8,9
 211 244 211 244 225.5 270 c 128,-1,10
 240 296 240 296 254 325 c 2,11,-1
 334 480 l 1,12,-1
 383 480 l 1,13,-1
 215 173 l 1,14,-1
 215 0 l 1,15,-1
 171 0 l 1,0,-1
EndSplineSet
Validated: 1
EndChar

StartChar: uni0290
Encoding: 656 656 505
Width: 404
GlyphClass: 2
Flags: W
AnchorPoint: "Anchor-0" 220 504 basechar 0
LayerCount: 2
Fore
SplineSet
421 -181 m 0,0,1
 370 -181 370 -181 347 -149 c 128,-1,2
 324 -117 324 -117 324 -49 c 2,3,-1
 324 0 l 1,4,-1
 27 0 l 1,5,-1
 27 24 l 1,6,-1
 311 442 l 1,7,-1
 58 442 l 1,8,-1
 58 480 l 1,9,-1
 368 480 l 1,10,-1
 368 457 l 1,11,-1
 85 39 l 1,12,-1
 368 39 l 1,13,-1
 368 -44 l 2,14,15
 368 -89 368 -89 379 -115.5 c 128,-1,16
 390 -142 390 -142 422 -142 c 0,17,18
 434 -142 434 -142 444.5 -139 c 128,-1,19
 455 -136 455 -136 463 -133 c 1,20,-1
 473 -169 l 1,21,22
 465 -174 465 -174 450 -177.5 c 128,-1,23
 435 -181 435 -181 421 -181 c 0,0,1
EndSplineSet
Validated: 1
EndChar

StartChar: uni0291
Encoding: 657 657 506
Width: 418
GlyphClass: 2
Flags: W
AnchorPoint: "Anchor-0" 220 504 basechar 0
LayerCount: 2
Fore
SplineSet
209 -80 m 1,0,-1
 174 -73 l 1,1,2
 179 -53 179 -53 183.5 -35 c 128,-1,3
 188 -17 188 -17 193 0 c 1,4,-1
 27 0 l 1,5,-1
 27 24 l 1,6,-1
 311 442 l 1,7,-1
 58 442 l 1,8,-1
 58 480 l 1,9,-1
 367 480 l 1,10,-1
 367 457 l 1,11,-1
 84 39 l 1,12,13
 115 38 115 38 145 38 c 128,-1,14
 175 38 175 38 206 38 c 1,15,16
 262 187 262 187 349 187 c 0,17,18
 388 187 388 187 410 165 c 128,-1,19
 432 143 432 143 432 105 c 0,20,21
 432 62 432 62 396.5 31 c 128,-1,22
 361 0 361 0 289 0 c 2,23,-1
 228 0 l 1,24,25
 223 -18 223 -18 218.5 -37.5 c 128,-1,26
 214 -57 214 -57 209 -80 c 1,0,-1
299 38 m 2,27,28
 345 38 345 38 369.5 59 c 128,-1,29
 394 80 394 80 394 106 c 0,30,31
 394 126 394 126 383.5 139.5 c 128,-1,32
 373 153 373 153 347 153 c 0,33,34
 320 153 320 153 292.5 125.5 c 128,-1,35
 265 98 265 98 242 38 c 1,36,-1
 299 38 l 2,27,28
EndSplineSet
Validated: 1
EndChar

StartChar: uni0292
Encoding: 658 658 507
Width: 404
GlyphClass: 2
Flags: W
AnchorPoint: "Anchor-0" 178 516 basechar 0
LayerCount: 2
Fore
SplineSet
193 -229 m 0,0,1
 157 -229 157 -229 128 -222.5 c 128,-1,2
 99 -216 99 -216 76 -205 c 128,-1,3
 53 -194 53 -194 35 -181 c 128,-1,4
 17 -168 17 -168 2 -154 c 1,5,-1
 28 -123 l 1,6,7
 41 -136 41 -136 57 -148 c 128,-1,8
 73 -160 73 -160 92.5 -169.5 c 128,-1,9
 112 -179 112 -179 136.5 -184.5 c 128,-1,10
 161 -190 161 -190 192 -190 c 0,11,12
 222 -190 222 -190 249 -177.5 c 128,-1,13
 276 -165 276 -165 296.5 -142.5 c 128,-1,14
 317 -120 317 -120 329 -88.5 c 128,-1,15
 341 -57 341 -57 341 -18 c 0,16,17
 341 54 341 54 301.5 96 c 128,-1,18
 262 138 262 138 185 138 c 0,19,20
 163 138 163 138 149.5 132.5 c 128,-1,21
 136 127 136 127 119 119 c 1,22,-1
 95 150 l 1,23,-1
 310 442 l 1,24,-1
 47 442 l 1,25,-1
 47 480 l 1,26,-1
 367 480 l 1,27,-1
 367 457 l 1,28,-1
 155 169 l 1,29,30
 208 179 208 179 251 169 c 128,-1,31
 294 159 294 159 324 134 c 128,-1,32
 354 109 354 109 370.5 70.5 c 128,-1,33
 387 32 387 32 387 -15 c 0,34,35
 387 -67 387 -67 370.5 -107 c 128,-1,36
 354 -147 354 -147 327 -174 c 128,-1,37
 300 -201 300 -201 265 -215 c 128,-1,38
 230 -229 230 -229 193 -229 c 0,0,1
EndSplineSet
Validated: 33
EndChar

StartChar: uni0294
Encoding: 660 660 508
Width: 399
Flags: W
LayerCount: 2
Fore
SplineSet
156 0 m 1,0,-1
 156 328 l 1,1,2
 245 376 245 376 288 426 c 128,-1,3
 331 476 331 476 331 548 c 0,4,5
 331 613 331 613 294 652.5 c 128,-1,6
 257 692 257 692 187 692 c 0,7,8
 128 692 128 692 90 668 c 128,-1,9
 52 644 52 644 27 614 c 1,10,-1
 1 645 l 1,11,12
 15 660 15 660 32.5 675.5 c 128,-1,13
 50 691 50 691 73 703.5 c 128,-1,14
 96 716 96 716 124 723.5 c 128,-1,15
 152 731 152 731 187 731 c 0,16,17
 227 731 227 731 262 719 c 128,-1,18
 297 707 297 707 322.5 684 c 128,-1,19
 348 661 348 661 362.5 626.5 c 128,-1,20
 377 592 377 592 377 547 c 0,21,22
 377 503 377 503 364 468.5 c 128,-1,23
 351 434 351 434 327.5 405 c 128,-1,24
 304 376 304 376 271.5 351 c 128,-1,25
 239 326 239 326 200 302 c 1,26,-1
 200 0 l 1,27,-1
 156 0 l 1,0,-1
EndSplineSet
Validated: 1
EndChar

StartChar: uni0295
Encoding: 661 661 509
Width: 406
Flags: W
LayerCount: 2
Fore
SplineSet
201 0 m 1,0,-1
 201 302 l 1,1,2
 163 326 163 326 130.5 351 c 128,-1,3
 98 376 98 376 74.5 405 c 128,-1,4
 51 434 51 434 37.5 468.5 c 128,-1,5
 24 503 24 503 24 547 c 0,6,7
 24 592 24 592 39.5 626.5 c 128,-1,8
 55 661 55 661 82 684 c 128,-1,9
 109 707 109 707 145.5 719 c 128,-1,10
 182 731 182 731 225 731 c 0,11,12
 258 731 258 731 284.5 723.5 c 128,-1,13
 311 716 311 716 332.5 703.5 c 128,-1,14
 354 691 354 691 370.5 675.5 c 128,-1,15
 387 660 387 660 401 645 c 1,16,-1
 374 614 l 1,17,18
 351 644 351 644 315.5 668 c 128,-1,19
 280 692 280 692 225 692 c 0,20,21
 150 692 150 692 110 652.5 c 128,-1,22
 70 613 70 613 70 548 c 0,23,24
 70 476 70 476 113.5 426 c 128,-1,25
 157 376 157 376 246 328 c 1,26,-1
 246 0 l 1,27,-1
 201 0 l 1,0,-1
EndSplineSet
Validated: 1
EndChar

StartChar: uni02A1
Encoding: 673 673 510
Width: 420
Flags: W
LayerCount: 2
Fore
SplineSet
167 0 m 1,0,-1
 167 290 l 1,1,-1
 5 290 l 1,2,-1
 5 324 l 1,3,-1
 81 328 l 1,4,-1
 178 328 l 1,5,6
 262 376 262 376 304 429.5 c 128,-1,7
 346 483 346 483 346 548 c 256,8,9
 346 613 346 613 308.5 652.5 c 128,-1,10
 271 692 271 692 201 692 c 0,11,12
 142 692 142 692 104.5 668 c 128,-1,13
 67 644 67 644 42 614 c 1,14,-1
 15 645 l 1,15,16
 29 660 29 660 47 675.5 c 128,-1,17
 65 691 65 691 87.5 703.5 c 128,-1,18
 110 716 110 716 138 723.5 c 128,-1,19
 166 731 166 731 201 731 c 0,20,21
 241 731 241 731 276 719 c 128,-1,22
 311 707 311 707 337 684 c 128,-1,23
 363 661 363 661 377.5 626.5 c 128,-1,24
 392 592 392 592 392 547 c 0,25,26
 392 478 392 478 351 424 c 128,-1,27
 310 370 310 370 247 328 c 1,28,-1
 400 328 l 1,29,-1
 400 290 l 1,30,-1
 211 290 l 1,31,-1
 211 0 l 1,32,-1
 167 0 l 1,0,-1
EndSplineSet
Validated: 1
EndChar

StartChar: uni02A2
Encoding: 674 674 511
Width: 420
Flags: W
LayerCount: 2
Fore
SplineSet
209 0 m 1,0,-1
 209 290 l 1,1,-1
 20 290 l 1,2,-1
 20 328 l 1,3,-1
 172 328 l 1,4,5
 141 349 141 349 114.5 373 c 128,-1,6
 88 397 88 397 69 424 c 128,-1,7
 50 451 50 451 39 481.5 c 128,-1,8
 28 512 28 512 28 547 c 0,9,10
 28 592 28 592 43.5 626.5 c 128,-1,11
 59 661 59 661 86 684 c 128,-1,12
 113 707 113 707 149.5 719 c 128,-1,13
 186 731 186 731 229 731 c 0,14,15
 262 731 262 731 288.5 723.5 c 128,-1,16
 315 716 315 716 336.5 703.5 c 128,-1,17
 358 691 358 691 374.5 675.5 c 128,-1,18
 391 660 391 660 405 645 c 1,19,-1
 378 614 l 1,20,21
 355 644 355 644 319.5 668 c 128,-1,22
 284 692 284 692 229 692 c 0,23,24
 154 692 154 692 114 652.5 c 128,-1,25
 74 613 74 613 74 548 c 256,26,27
 74 483 74 483 116 429.5 c 128,-1,28
 158 376 158 376 242 328 c 1,29,-1
 339 328 l 1,30,-1
 415 324 l 1,31,-1
 415 290 l 1,32,-1
 253 290 l 1,33,-1
 253 0 l 1,34,-1
 209 0 l 1,0,-1
EndSplineSet
Validated: 1
EndChar

StartChar: uni01C2
Encoding: 450 450 512
Width: 263
Flags: W
LayerCount: 2
Fore
SplineSet
6 332 m 1,0,-1
 6 361 l 1,1,-1
 84 365 l 1,2,-1
 120 365 l 1,3,-1
 120 750 l 1,4,-1
 156 750 l 1,5,-1
 156 365 l 1,6,-1
 257 365 l 1,7,-1
 257 332 l 1,8,-1
 156 332 l 1,9,-1
 156 209 l 1,10,-1
 257 209 l 1,11,-1
 257 176 l 1,12,-1
 156 176 l 1,13,-1
 156 -250 l 1,14,-1
 120 -250 l 1,15,-1
 120 176 l 1,16,-1
 6 176 l 1,17,-1
 6 205 l 1,18,-1
 84 209 l 1,19,-1
 120 209 l 1,20,-1
 120 332 l 1,21,-1
 6 332 l 1,0,-1
EndSplineSet
Validated: 1
EndChar

StartChar: uni0298
Encoding: 664 664 513
Width: 507
Flags: W
LayerCount: 2
Fore
SplineSet
253 -12 m 0,0,1
 209 -12 209 -12 174 9.5 c 128,-1,2
 139 31 139 31 115 76.5 c 128,-1,3
 91 122 91 122 78.5 193 c 128,-1,4
 66 264 66 264 66 363 c 0,5,6
 66 540 66 540 115 635.5 c 128,-1,7
 164 731 164 731 253 731 c 0,8,9
 343 731 343 731 392 635.5 c 128,-1,10
 441 540 441 540 441 363 c 0,11,12
 441 264 441 264 428.5 193 c 128,-1,13
 416 122 416 122 392 76.5 c 128,-1,14
 368 31 368 31 333 9.5 c 128,-1,15
 298 -12 298 -12 253 -12 c 0,0,1
253 27 m 256,16,17
 284 27 284 27 310.5 45.5 c 128,-1,18
 337 64 337 64 356.5 104 c 128,-1,19
 376 144 376 144 386.5 208 c 128,-1,20
 397 272 397 272 397 363 c 0,21,22
 397 527 397 527 356.5 609.5 c 128,-1,23
 316 692 316 692 253 692 c 0,24,25
 191 692 191 692 150.5 609 c 128,-1,26
 110 526 110 526 110 363 c 0,27,28
 110 272 110 272 120.5 208 c 128,-1,29
 131 144 131 144 150 104 c 128,-1,30
 169 64 169 64 195.5 45.5 c 128,-1,31
 222 27 222 27 253 27 c 256,16,17
253 325 m 256,32,33
 238 325 238 325 227 335.5 c 128,-1,34
 216 346 216 346 216 363 c 256,35,36
 216 380 216 380 227 390 c 128,-1,37
 238 400 238 400 253 400 c 256,38,39
 268 400 268 400 279.5 390 c 128,-1,40
 291 380 291 380 291 363 c 256,41,42
 291 346 291 346 279.5 335.5 c 128,-1,43
 268 325 268 325 253 325 c 256,32,33
EndSplineSet
Validated: 1
EndChar

StartChar: f_f
Encoding: 64256 64256 514
Width: 530
GlyphClass: 3
Flags: W
LayerCount: 2
Fore
SplineSet
366 0 m 1,0,-1
 366 442 l 1,1,-1
 143 442 l 1,2,-1
 143 0 l 1,3,-1
 99 0 l 1,4,-1
 99 442 l 1,5,-1
 33 442 l 1,6,-1
 33 476 l 1,7,-1
 99 480 l 1,8,-1
 99 569 l 2,9,10
 99 644 99 644 133 682.5 c 128,-1,11
 167 721 167 721 229 721 c 0,12,13
 249 721 249 721 269.5 716.5 c 128,-1,14
 290 712 290 712 310 703 c 1,15,-1
 298 667 l 1,16,17
 280 676 280 676 263 679.5 c 128,-1,18
 246 683 246 683 229 683 c 0,19,20
 186 683 186 683 164.5 652.5 c 128,-1,21
 143 622 143 622 143 566 c 2,22,-1
 143 480 l 1,23,-1
 366 480 l 1,24,-1
 366 587 l 2,25,26
 366 659 366 659 396.5 695 c 128,-1,27
 427 731 427 731 484 731 c 0,28,29
 519 731 519 731 554 715 c 1,30,-1
 542 679 l 1,31,32
 528 687 528 687 513.5 690 c 128,-1,33
 499 693 499 693 485 693 c 0,34,35
 446 693 446 693 428 665 c 128,-1,36
 410 637 410 637 410 584 c 2,37,-1
 410 480 l 1,38,-1
 521 480 l 1,39,-1
 521 442 l 1,40,-1
 410 442 l 1,41,-1
 410 0 l 1,42,-1
 366 0 l 1,0,-1
EndSplineSet
Validated: 1
Ligature2: "'liga' Standard Ligatures lookup 47 subtable" f f
EndChar

StartChar: f_t
Encoding: 1114116 -1 517
Width: 539
GlyphClass: 3
Flags: W
LayerCount: 2
Fore
SplineSet
99 0 m 1,0,-1
 99 442 l 1,1,-1
 33 442 l 1,2,-1
 33 476 l 1,3,-1
 99 480 l 1,4,-1
 99 587 l 2,5,6
 99 659 99 659 130 695 c 128,-1,7
 161 731 161 731 218 731 c 0,8,9
 253 731 253 731 288 715 c 1,10,-1
 276 679 l 1,11,12
 261 687 261 687 246.5 690 c 128,-1,13
 232 693 232 693 218 693 c 0,14,15
 180 693 180 693 161.5 665 c 128,-1,16
 143 637 143 637 143 584 c 2,17,-1
 143 480 l 1,18,-1
 331 480 l 1,19,-1
 337 619 l 1,20,-1
 374 619 l 1,21,-1
 374 480 l 1,22,-1
 514 480 l 1,23,-1
 514 442 l 1,24,-1
 374 442 l 1,25,-1
 374 129 l 2,26,27
 374 106 374 106 377.5 87.5 c 128,-1,28
 381 69 381 69 390 55.5 c 128,-1,29
 399 42 399 42 415 34.5 c 128,-1,30
 431 27 431 27 456 27 c 0,31,32
 470 27 470 27 486.5 31.5 c 128,-1,33
 503 36 503 36 516 42 c 1,34,-1
 528 6 l 1,35,36
 507 -2 507 -2 485.5 -7 c 128,-1,37
 464 -12 464 -12 449 -12 c 0,38,39
 414 -12 414 -12 391.5 -1.5 c 128,-1,40
 369 9 369 9 355 28 c 128,-1,41
 341 47 341 47 335.5 74 c 128,-1,42
 330 101 330 101 330 133 c 2,43,-1
 330 442 l 1,44,-1
 143 442 l 1,45,-1
 143 0 l 1,46,-1
 99 0 l 1,0,-1
EndSplineSet
Validated: 1
Ligature2: "'liga' Standard Ligatures lookup 47 subtable" f t
EndChar

StartChar: f_f_t
Encoding: 1114117 -1 518
Width: 805
GlyphClass: 3
Flags: W
LayerCount: 2
Fore
SplineSet
99 0 m 1,0,-1
 99 442 l 1,1,-1
 33 442 l 1,2,-1
 33 476 l 1,3,-1
 99 480 l 1,4,-1
 99 569 l 2,5,6
 99 644 99 644 133 682.5 c 128,-1,7
 167 721 167 721 229 721 c 0,8,9
 249 721 249 721 269.5 716.5 c 128,-1,10
 290 712 290 712 310 703 c 1,11,-1
 298 667 l 1,12,13
 280 676 280 676 263 679.5 c 128,-1,14
 246 683 246 683 229 683 c 0,15,16
 186 683 186 683 164.5 652.5 c 128,-1,17
 143 622 143 622 143 566 c 2,18,-1
 143 480 l 1,19,-1
 366 480 l 1,20,-1
 366 587 l 2,21,22
 366 659 366 659 396.5 695 c 128,-1,23
 427 731 427 731 484 731 c 0,24,25
 519 731 519 731 554 715 c 1,26,-1
 542 679 l 1,27,28
 528 687 528 687 513.5 690 c 128,-1,29
 499 693 499 693 485 693 c 0,30,31
 446 693 446 693 428 665 c 128,-1,32
 410 637 410 637 410 584 c 2,33,-1
 410 480 l 1,34,-1
 598 480 l 1,35,-1
 604 619 l 1,36,-1
 641 619 l 1,37,-1
 641 480 l 1,38,-1
 780 480 l 1,39,-1
 780 442 l 1,40,-1
 641 442 l 1,41,-1
 641 129 l 2,42,43
 641 106 641 106 644.5 87.5 c 128,-1,44
 648 69 648 69 657 55.5 c 128,-1,45
 666 42 666 42 682 34.5 c 128,-1,46
 698 27 698 27 723 27 c 0,47,48
 737 27 737 27 753.5 31.5 c 128,-1,49
 770 36 770 36 783 42 c 1,50,-1
 795 6 l 1,51,52
 774 -2 774 -2 752.5 -7 c 128,-1,53
 731 -12 731 -12 716 -12 c 0,54,55
 681 -12 681 -12 658.5 -1.5 c 128,-1,56
 636 9 636 9 622 28 c 128,-1,57
 608 47 608 47 602.5 74 c 128,-1,58
 597 101 597 101 597 133 c 2,59,-1
 597 442 l 1,60,-1
 410 442 l 1,61,-1
 410 0 l 1,62,-1
 366 0 l 1,63,-1
 366 442 l 1,64,-1
 143 442 l 1,65,-1
 143 0 l 1,66,-1
 99 0 l 1,0,-1
EndSplineSet
Validated: 1
Ligature2: "'liga' Standard Ligatures lookup 47 subtable" f f t
EndChar

StartChar: I.a
Encoding: 1114118 -1 519
Width: 240
GlyphClass: 2
Flags: W
LayerCount: 2
Fore
SplineSet
97 0 m 1,0,-1
 97 659 l 1,1,-1
 143 659 l 1,2,-1
 143 0 l 1,3,-1
 97 0 l 1,0,-1
EndSplineSet
Validated: 1
EndChar

StartChar: Iogonek.a
Encoding: 1114129 -1 530
Width: 240
GlyphClass: 2
Flags: W
AnchorPoint: "Anchor-1" 119 681 basechar 0
LayerCount: 2
Fore
SplineSet
128 -205 m 0,0,1
 93 -205 93 -205 68.5 -185 c 128,-1,2
 44 -165 44 -165 44 -123 c 0,3,4
 44 -82 44 -82 62 -54 c 128,-1,5
 80 -26 80 -26 106 0 c 1,6,-1
 97 0 l 1,7,-1
 97 659 l 1,8,-1
 143 659 l 1,9,-1
 143 0 l 1,10,11
 117 -29 117 -29 100 -56 c 128,-1,12
 83 -83 83 -83 83 -116 c 0,13,14
 83 -142 83 -142 99 -155 c 128,-1,15
 115 -168 115 -168 134 -168 c 0,16,17
 159 -168 159 -168 177 -154 c 1,18,-1
 193 -181 l 1,19,20
 182 -191 182 -191 163.5 -198 c 128,-1,21
 145 -205 145 -205 128 -205 c 0,0,1
EndSplineSet
EndChar

StartChar: uni014A.a
Encoding: 1114131 -1 532
Width: 636
Flags: W
LayerCount: 2
Fore
SplineSet
432 -156 m 0,0,1
 415 -156 415 -156 398 -152 c 128,-1,2
 381 -148 381 -148 370 -143 c 1,3,-1
 380 -104 l 1,4,5
 389 -107 389 -107 402.5 -110 c 128,-1,6
 416 -113 416 -113 431 -113 c 0,7,8
 471 -113 471 -113 483 -83 c 128,-1,9
 495 -53 495 -53 495 0 c 1,10,-1
 491 0 l 1,11,-1
 213 465 l 1,12,-1
 139 596 l 1,13,-1
 135 596 l 1,14,15
 137 548 137 548 139 502.5 c 128,-1,16
 141 457 141 457 141 409 c 2,17,-1
 141 0 l 1,18,-1
 97 0 l 1,19,-1
 97 659 l 1,20,-1
 145 659 l 1,21,-1
 423 194 l 1,22,-1
 497 63 l 1,23,-1
 501 63 l 1,24,25
 499 111 499 111 497 159 c 128,-1,26
 495 207 495 207 495 255 c 2,27,-1
 495 659 l 1,28,-1
 539 659 l 1,29,-1
 539 -15 l 2,30,31
 539 -156 539 -156 432 -156 c 0,0,1
EndSplineSet
Validated: 1
EndChar

